<?xml version="1.0" encoding="utf-8" standalone="no"?>
<!DOCTYPE svg PUBLIC "-//W3C//DTD SVG 1.1//EN"
  "http://www.w3.org/Graphics/SVG/1.1/DTD/svg11.dtd">
<svg xmlns:xlink="http://www.w3.org/1999/xlink" width="576pt" height="432pt" viewBox="0 0 576 432" xmlns="http://www.w3.org/2000/svg" version="1.1">
 <metadata>
  <rdf:RDF xmlns:dc="http://purl.org/dc/elements/1.1/" xmlns:cc="http://creativecommons.org/ns#" xmlns:rdf="http://www.w3.org/1999/02/22-rdf-syntax-ns#">
   <cc:Work>
    <dc:type rdf:resource="http://purl.org/dc/dcmitype/StillImage"/>
    <dc:date>2025-01-09T12:46:10.062379</dc:date>
    <dc:format>image/svg+xml</dc:format>
    <dc:creator>
     <cc:Agent>
      <dc:title>Matplotlib v3.9.2, https://matplotlib.org/</dc:title>
     </cc:Agent>
    </dc:creator>
   </cc:Work>
  </rdf:RDF>
 </metadata>
 <defs>
  <style type="text/css">*{stroke-linejoin: round; stroke-linecap: butt}</style>
 </defs>
 <g id="figure_1">
  <g id="patch_1">
   <path d="M 0 432 
L 576 432 
L 576 0 
L 0 0 
z
" style="fill: #ffffff"/>
  </g>
  <g id="axes_1">
   <g id="patch_2">
    <path d="M 72 384.48 
L 518.4 384.48 
L 518.4 51.84 
L 72 51.84 
z
" style="fill: #ffffff"/>
   </g>
   <g id="matplotlib.axis_1">
    <g id="xtick_1">
     <g id="line2d_1">
      <path d="M 88.191736 384.48 
L 88.191736 51.84 
" clip-path="url(#paa56dbe74f)" style="fill: none; stroke: #b0b0b0; stroke-width: 0.8; stroke-linecap: square"/>
     </g>
     <g id="line2d_2">
      <defs>
       <path id="m635e1aec95" d="M 0 0 
L 0 3.5 
" style="stroke: #000000; stroke-width: 0.8"/>
      </defs>
      <g>
       <use xlink:href="#m635e1aec95" x="88.191736" y="384.48" style="stroke: #000000; stroke-width: 0.8"/>
      </g>
     </g>
     <g id="text_1">
      <!-- 0 -->
      <g transform="translate(85.010486 399.078438) scale(0.1 -0.1)">
       <defs>
        <path id="DejaVuSans-30" d="M 2034 4250 
Q 1547 4250 1301 3770 
Q 1056 3291 1056 2328 
Q 1056 1369 1301 889 
Q 1547 409 2034 409 
Q 2525 409 2770 889 
Q 3016 1369 3016 2328 
Q 3016 3291 2770 3770 
Q 2525 4250 2034 4250 
z
M 2034 4750 
Q 2819 4750 3233 4129 
Q 3647 3509 3647 2328 
Q 3647 1150 3233 529 
Q 2819 -91 2034 -91 
Q 1250 -91 836 529 
Q 422 1150 422 2328 
Q 422 3509 836 4129 
Q 1250 4750 2034 4750 
z
" transform="scale(0.015625)"/>
       </defs>
       <use xlink:href="#DejaVuSans-30"/>
      </g>
     </g>
    </g>
    <g id="xtick_2">
     <g id="line2d_3">
      <path d="M 170.175207 384.48 
L 170.175207 51.84 
" clip-path="url(#paa56dbe74f)" style="fill: none; stroke: #b0b0b0; stroke-width: 0.8; stroke-linecap: square"/>
     </g>
     <g id="line2d_4">
      <g>
       <use xlink:href="#m635e1aec95" x="170.175207" y="384.48" style="stroke: #000000; stroke-width: 0.8"/>
      </g>
     </g>
     <g id="text_2">
      <!-- 20 -->
      <g transform="translate(163.812707 399.078438) scale(0.1 -0.1)">
       <defs>
        <path id="DejaVuSans-32" d="M 1228 531 
L 3431 531 
L 3431 0 
L 469 0 
L 469 531 
Q 828 903 1448 1529 
Q 2069 2156 2228 2338 
Q 2531 2678 2651 2914 
Q 2772 3150 2772 3378 
Q 2772 3750 2511 3984 
Q 2250 4219 1831 4219 
Q 1534 4219 1204 4116 
Q 875 4013 500 3803 
L 500 4441 
Q 881 4594 1212 4672 
Q 1544 4750 1819 4750 
Q 2544 4750 2975 4387 
Q 3406 4025 3406 3419 
Q 3406 3131 3298 2873 
Q 3191 2616 2906 2266 
Q 2828 2175 2409 1742 
Q 1991 1309 1228 531 
z
" transform="scale(0.015625)"/>
       </defs>
       <use xlink:href="#DejaVuSans-32"/>
       <use xlink:href="#DejaVuSans-30" x="63.623047"/>
      </g>
     </g>
    </g>
    <g id="xtick_3">
     <g id="line2d_5">
      <path d="M 252.158678 384.48 
L 252.158678 51.84 
" clip-path="url(#paa56dbe74f)" style="fill: none; stroke: #b0b0b0; stroke-width: 0.8; stroke-linecap: square"/>
     </g>
     <g id="line2d_6">
      <g>
       <use xlink:href="#m635e1aec95" x="252.158678" y="384.48" style="stroke: #000000; stroke-width: 0.8"/>
      </g>
     </g>
     <g id="text_3">
      <!-- 40 -->
      <g transform="translate(245.796178 399.078438) scale(0.1 -0.1)">
       <defs>
        <path id="DejaVuSans-34" d="M 2419 4116 
L 825 1625 
L 2419 1625 
L 2419 4116 
z
M 2253 4666 
L 3047 4666 
L 3047 1625 
L 3713 1625 
L 3713 1100 
L 3047 1100 
L 3047 0 
L 2419 0 
L 2419 1100 
L 313 1100 
L 313 1709 
L 2253 4666 
z
" transform="scale(0.015625)"/>
       </defs>
       <use xlink:href="#DejaVuSans-34"/>
       <use xlink:href="#DejaVuSans-30" x="63.623047"/>
      </g>
     </g>
    </g>
    <g id="xtick_4">
     <g id="line2d_7">
      <path d="M 334.142149 384.48 
L 334.142149 51.84 
" clip-path="url(#paa56dbe74f)" style="fill: none; stroke: #b0b0b0; stroke-width: 0.8; stroke-linecap: square"/>
     </g>
     <g id="line2d_8">
      <g>
       <use xlink:href="#m635e1aec95" x="334.142149" y="384.48" style="stroke: #000000; stroke-width: 0.8"/>
      </g>
     </g>
     <g id="text_4">
      <!-- 60 -->
      <g transform="translate(327.779649 399.078438) scale(0.1 -0.1)">
       <defs>
        <path id="DejaVuSans-36" d="M 2113 2584 
Q 1688 2584 1439 2293 
Q 1191 2003 1191 1497 
Q 1191 994 1439 701 
Q 1688 409 2113 409 
Q 2538 409 2786 701 
Q 3034 994 3034 1497 
Q 3034 2003 2786 2293 
Q 2538 2584 2113 2584 
z
M 3366 4563 
L 3366 3988 
Q 3128 4100 2886 4159 
Q 2644 4219 2406 4219 
Q 1781 4219 1451 3797 
Q 1122 3375 1075 2522 
Q 1259 2794 1537 2939 
Q 1816 3084 2150 3084 
Q 2853 3084 3261 2657 
Q 3669 2231 3669 1497 
Q 3669 778 3244 343 
Q 2819 -91 2113 -91 
Q 1303 -91 875 529 
Q 447 1150 447 2328 
Q 447 3434 972 4092 
Q 1497 4750 2381 4750 
Q 2619 4750 2861 4703 
Q 3103 4656 3366 4563 
z
" transform="scale(0.015625)"/>
       </defs>
       <use xlink:href="#DejaVuSans-36"/>
       <use xlink:href="#DejaVuSans-30" x="63.623047"/>
      </g>
     </g>
    </g>
    <g id="xtick_5">
     <g id="line2d_9">
      <path d="M 416.12562 384.48 
L 416.12562 51.84 
" clip-path="url(#paa56dbe74f)" style="fill: none; stroke: #b0b0b0; stroke-width: 0.8; stroke-linecap: square"/>
     </g>
     <g id="line2d_10">
      <g>
       <use xlink:href="#m635e1aec95" x="416.12562" y="384.48" style="stroke: #000000; stroke-width: 0.8"/>
      </g>
     </g>
     <g id="text_5">
      <!-- 80 -->
      <g transform="translate(409.76312 399.078438) scale(0.1 -0.1)">
       <defs>
        <path id="DejaVuSans-38" d="M 2034 2216 
Q 1584 2216 1326 1975 
Q 1069 1734 1069 1313 
Q 1069 891 1326 650 
Q 1584 409 2034 409 
Q 2484 409 2743 651 
Q 3003 894 3003 1313 
Q 3003 1734 2745 1975 
Q 2488 2216 2034 2216 
z
M 1403 2484 
Q 997 2584 770 2862 
Q 544 3141 544 3541 
Q 544 4100 942 4425 
Q 1341 4750 2034 4750 
Q 2731 4750 3128 4425 
Q 3525 4100 3525 3541 
Q 3525 3141 3298 2862 
Q 3072 2584 2669 2484 
Q 3125 2378 3379 2068 
Q 3634 1759 3634 1313 
Q 3634 634 3220 271 
Q 2806 -91 2034 -91 
Q 1263 -91 848 271 
Q 434 634 434 1313 
Q 434 1759 690 2068 
Q 947 2378 1403 2484 
z
M 1172 3481 
Q 1172 3119 1398 2916 
Q 1625 2713 2034 2713 
Q 2441 2713 2670 2916 
Q 2900 3119 2900 3481 
Q 2900 3844 2670 4047 
Q 2441 4250 2034 4250 
Q 1625 4250 1398 4047 
Q 1172 3844 1172 3481 
z
" transform="scale(0.015625)"/>
       </defs>
       <use xlink:href="#DejaVuSans-38"/>
       <use xlink:href="#DejaVuSans-30" x="63.623047"/>
      </g>
     </g>
    </g>
    <g id="xtick_6">
     <g id="line2d_11">
      <path d="M 498.109091 384.48 
L 498.109091 51.84 
" clip-path="url(#paa56dbe74f)" style="fill: none; stroke: #b0b0b0; stroke-width: 0.8; stroke-linecap: square"/>
     </g>
     <g id="line2d_12">
      <g>
       <use xlink:href="#m635e1aec95" x="498.109091" y="384.48" style="stroke: #000000; stroke-width: 0.8"/>
      </g>
     </g>
     <g id="text_6">
      <!-- 100 -->
      <g transform="translate(488.565341 399.078438) scale(0.1 -0.1)">
       <defs>
        <path id="DejaVuSans-31" d="M 794 531 
L 1825 531 
L 1825 4091 
L 703 3866 
L 703 4441 
L 1819 4666 
L 2450 4666 
L 2450 531 
L 3481 531 
L 3481 0 
L 794 0 
L 794 531 
z
" transform="scale(0.015625)"/>
       </defs>
       <use xlink:href="#DejaVuSans-31"/>
       <use xlink:href="#DejaVuSans-30" x="63.623047"/>
       <use xlink:href="#DejaVuSans-30" x="127.246094"/>
      </g>
     </g>
    </g>
    <g id="text_7">
     <!-- Epochs -->
     <g transform="translate(259.36875 420.355) scale(0.2 -0.2)">
      <defs>
       <path id="DejaVuSans-45" d="M 628 4666 
L 3578 4666 
L 3578 4134 
L 1259 4134 
L 1259 2753 
L 3481 2753 
L 3481 2222 
L 1259 2222 
L 1259 531 
L 3634 531 
L 3634 0 
L 628 0 
L 628 4666 
z
" transform="scale(0.015625)"/>
       <path id="DejaVuSans-70" d="M 1159 525 
L 1159 -1331 
L 581 -1331 
L 581 3500 
L 1159 3500 
L 1159 2969 
Q 1341 3281 1617 3432 
Q 1894 3584 2278 3584 
Q 2916 3584 3314 3078 
Q 3713 2572 3713 1747 
Q 3713 922 3314 415 
Q 2916 -91 2278 -91 
Q 1894 -91 1617 61 
Q 1341 213 1159 525 
z
M 3116 1747 
Q 3116 2381 2855 2742 
Q 2594 3103 2138 3103 
Q 1681 3103 1420 2742 
Q 1159 2381 1159 1747 
Q 1159 1113 1420 752 
Q 1681 391 2138 391 
Q 2594 391 2855 752 
Q 3116 1113 3116 1747 
z
" transform="scale(0.015625)"/>
       <path id="DejaVuSans-6f" d="M 1959 3097 
Q 1497 3097 1228 2736 
Q 959 2375 959 1747 
Q 959 1119 1226 758 
Q 1494 397 1959 397 
Q 2419 397 2687 759 
Q 2956 1122 2956 1747 
Q 2956 2369 2687 2733 
Q 2419 3097 1959 3097 
z
M 1959 3584 
Q 2709 3584 3137 3096 
Q 3566 2609 3566 1747 
Q 3566 888 3137 398 
Q 2709 -91 1959 -91 
Q 1206 -91 779 398 
Q 353 888 353 1747 
Q 353 2609 779 3096 
Q 1206 3584 1959 3584 
z
" transform="scale(0.015625)"/>
       <path id="DejaVuSans-63" d="M 3122 3366 
L 3122 2828 
Q 2878 2963 2633 3030 
Q 2388 3097 2138 3097 
Q 1578 3097 1268 2742 
Q 959 2388 959 1747 
Q 959 1106 1268 751 
Q 1578 397 2138 397 
Q 2388 397 2633 464 
Q 2878 531 3122 666 
L 3122 134 
Q 2881 22 2623 -34 
Q 2366 -91 2075 -91 
Q 1284 -91 818 406 
Q 353 903 353 1747 
Q 353 2603 823 3093 
Q 1294 3584 2113 3584 
Q 2378 3584 2631 3529 
Q 2884 3475 3122 3366 
z
" transform="scale(0.015625)"/>
       <path id="DejaVuSans-68" d="M 3513 2113 
L 3513 0 
L 2938 0 
L 2938 2094 
Q 2938 2591 2744 2837 
Q 2550 3084 2163 3084 
Q 1697 3084 1428 2787 
Q 1159 2491 1159 1978 
L 1159 0 
L 581 0 
L 581 4863 
L 1159 4863 
L 1159 2956 
Q 1366 3272 1645 3428 
Q 1925 3584 2291 3584 
Q 2894 3584 3203 3211 
Q 3513 2838 3513 2113 
z
" transform="scale(0.015625)"/>
       <path id="DejaVuSans-73" d="M 2834 3397 
L 2834 2853 
Q 2591 2978 2328 3040 
Q 2066 3103 1784 3103 
Q 1356 3103 1142 2972 
Q 928 2841 928 2578 
Q 928 2378 1081 2264 
Q 1234 2150 1697 2047 
L 1894 2003 
Q 2506 1872 2764 1633 
Q 3022 1394 3022 966 
Q 3022 478 2636 193 
Q 2250 -91 1575 -91 
Q 1294 -91 989 -36 
Q 684 19 347 128 
L 347 722 
Q 666 556 975 473 
Q 1284 391 1588 391 
Q 1994 391 2212 530 
Q 2431 669 2431 922 
Q 2431 1156 2273 1281 
Q 2116 1406 1581 1522 
L 1381 1569 
Q 847 1681 609 1914 
Q 372 2147 372 2553 
Q 372 3047 722 3315 
Q 1072 3584 1716 3584 
Q 2034 3584 2315 3537 
Q 2597 3491 2834 3397 
z
" transform="scale(0.015625)"/>
      </defs>
      <use xlink:href="#DejaVuSans-45"/>
      <use xlink:href="#DejaVuSans-70" x="63.183594"/>
      <use xlink:href="#DejaVuSans-6f" x="126.660156"/>
      <use xlink:href="#DejaVuSans-63" x="187.841797"/>
      <use xlink:href="#DejaVuSans-68" x="242.822266"/>
      <use xlink:href="#DejaVuSans-73" x="306.201172"/>
     </g>
    </g>
   </g>
   <g id="matplotlib.axis_2">
    <g id="ytick_1">
     <g id="line2d_13">
      <path d="M 72 374.294819 
L 518.4 374.294819 
" clip-path="url(#paa56dbe74f)" style="fill: none; stroke: #b0b0b0; stroke-width: 0.8; stroke-linecap: square"/>
     </g>
     <g id="line2d_14">
      <defs>
       <path id="md7e055df94" d="M 0 0 
L -3.5 0 
" style="stroke: #000000; stroke-width: 0.8"/>
      </defs>
      <g>
       <use xlink:href="#md7e055df94" x="72" y="374.294819" style="stroke: #000000; stroke-width: 0.8"/>
      </g>
     </g>
     <g id="text_8">
      <!-- 0.0002 -->
      <g transform="translate(30.009375 378.094038) scale(0.1 -0.1)">
       <defs>
        <path id="DejaVuSans-2e" d="M 684 794 
L 1344 794 
L 1344 0 
L 684 0 
L 684 794 
z
" transform="scale(0.015625)"/>
       </defs>
       <use xlink:href="#DejaVuSans-30"/>
       <use xlink:href="#DejaVuSans-2e" x="63.623047"/>
       <use xlink:href="#DejaVuSans-30" x="95.410156"/>
       <use xlink:href="#DejaVuSans-30" x="159.033203"/>
       <use xlink:href="#DejaVuSans-30" x="222.65625"/>
       <use xlink:href="#DejaVuSans-32" x="286.279297"/>
      </g>
     </g>
    </g>
    <g id="ytick_2">
     <g id="line2d_15">
      <path d="M 72 320.251552 
L 518.4 320.251552 
" clip-path="url(#paa56dbe74f)" style="fill: none; stroke: #b0b0b0; stroke-width: 0.8; stroke-linecap: square"/>
     </g>
     <g id="line2d_16">
      <g>
       <use xlink:href="#md7e055df94" x="72" y="320.251552" style="stroke: #000000; stroke-width: 0.8"/>
      </g>
     </g>
     <g id="text_9">
      <!-- 0.0004 -->
      <g transform="translate(30.009375 324.05077) scale(0.1 -0.1)">
       <use xlink:href="#DejaVuSans-30"/>
       <use xlink:href="#DejaVuSans-2e" x="63.623047"/>
       <use xlink:href="#DejaVuSans-30" x="95.410156"/>
       <use xlink:href="#DejaVuSans-30" x="159.033203"/>
       <use xlink:href="#DejaVuSans-30" x="222.65625"/>
       <use xlink:href="#DejaVuSans-34" x="286.279297"/>
      </g>
     </g>
    </g>
    <g id="ytick_3">
     <g id="line2d_17">
      <path d="M 72 266.208284 
L 518.4 266.208284 
" clip-path="url(#paa56dbe74f)" style="fill: none; stroke: #b0b0b0; stroke-width: 0.8; stroke-linecap: square"/>
     </g>
     <g id="line2d_18">
      <g>
       <use xlink:href="#md7e055df94" x="72" y="266.208284" style="stroke: #000000; stroke-width: 0.8"/>
      </g>
     </g>
     <g id="text_10">
      <!-- 0.0006 -->
      <g transform="translate(30.009375 270.007502) scale(0.1 -0.1)">
       <use xlink:href="#DejaVuSans-30"/>
       <use xlink:href="#DejaVuSans-2e" x="63.623047"/>
       <use xlink:href="#DejaVuSans-30" x="95.410156"/>
       <use xlink:href="#DejaVuSans-30" x="159.033203"/>
       <use xlink:href="#DejaVuSans-30" x="222.65625"/>
       <use xlink:href="#DejaVuSans-36" x="286.279297"/>
      </g>
     </g>
    </g>
    <g id="ytick_4">
     <g id="line2d_19">
      <path d="M 72 212.165016 
L 518.4 212.165016 
" clip-path="url(#paa56dbe74f)" style="fill: none; stroke: #b0b0b0; stroke-width: 0.8; stroke-linecap: square"/>
     </g>
     <g id="line2d_20">
      <g>
       <use xlink:href="#md7e055df94" x="72" y="212.165016" style="stroke: #000000; stroke-width: 0.8"/>
      </g>
     </g>
     <g id="text_11">
      <!-- 0.0008 -->
      <g transform="translate(30.009375 215.964235) scale(0.1 -0.1)">
       <use xlink:href="#DejaVuSans-30"/>
       <use xlink:href="#DejaVuSans-2e" x="63.623047"/>
       <use xlink:href="#DejaVuSans-30" x="95.410156"/>
       <use xlink:href="#DejaVuSans-30" x="159.033203"/>
       <use xlink:href="#DejaVuSans-30" x="222.65625"/>
       <use xlink:href="#DejaVuSans-38" x="286.279297"/>
      </g>
     </g>
    </g>
    <g id="ytick_5">
     <g id="line2d_21">
      <path d="M 72 158.121748 
L 518.4 158.121748 
" clip-path="url(#paa56dbe74f)" style="fill: none; stroke: #b0b0b0; stroke-width: 0.8; stroke-linecap: square"/>
     </g>
     <g id="line2d_22">
      <g>
       <use xlink:href="#md7e055df94" x="72" y="158.121748" style="stroke: #000000; stroke-width: 0.8"/>
      </g>
     </g>
     <g id="text_12">
      <!-- 0.0010 -->
      <g transform="translate(30.009375 161.920967) scale(0.1 -0.1)">
       <use xlink:href="#DejaVuSans-30"/>
       <use xlink:href="#DejaVuSans-2e" x="63.623047"/>
       <use xlink:href="#DejaVuSans-30" x="95.410156"/>
       <use xlink:href="#DejaVuSans-30" x="159.033203"/>
       <use xlink:href="#DejaVuSans-31" x="222.65625"/>
       <use xlink:href="#DejaVuSans-30" x="286.279297"/>
      </g>
     </g>
    </g>
    <g id="ytick_6">
     <g id="line2d_23">
      <path d="M 72 104.07848 
L 518.4 104.07848 
" clip-path="url(#paa56dbe74f)" style="fill: none; stroke: #b0b0b0; stroke-width: 0.8; stroke-linecap: square"/>
     </g>
     <g id="line2d_24">
      <g>
       <use xlink:href="#md7e055df94" x="72" y="104.07848" style="stroke: #000000; stroke-width: 0.8"/>
      </g>
     </g>
     <g id="text_13">
      <!-- 0.0012 -->
      <g transform="translate(30.009375 107.877699) scale(0.1 -0.1)">
       <use xlink:href="#DejaVuSans-30"/>
       <use xlink:href="#DejaVuSans-2e" x="63.623047"/>
       <use xlink:href="#DejaVuSans-30" x="95.410156"/>
       <use xlink:href="#DejaVuSans-30" x="159.033203"/>
       <use xlink:href="#DejaVuSans-31" x="222.65625"/>
       <use xlink:href="#DejaVuSans-32" x="286.279297"/>
      </g>
     </g>
    </g>
    <g id="text_14">
     <!-- Loss -->
     <g transform="translate(21.85 240.094375) rotate(-90) scale(0.2 -0.2)">
      <defs>
       <path id="DejaVuSans-4c" d="M 628 4666 
L 1259 4666 
L 1259 531 
L 3531 531 
L 3531 0 
L 628 0 
L 628 4666 
z
" transform="scale(0.015625)"/>
      </defs>
      <use xlink:href="#DejaVuSans-4c"/>
      <use xlink:href="#DejaVuSans-6f" x="53.962891"/>
      <use xlink:href="#DejaVuSans-73" x="115.144531"/>
      <use xlink:href="#DejaVuSans-73" x="167.244141"/>
     </g>
    </g>
   </g>
   <g id="line2d_25">
    <path d="M 92.290909 66.96 
L 96.390083 253.907471 
L 100.489256 272.3005 
L 104.58843 288.228002 
L 108.687603 318.503951 
L 112.786777 307.971891 
L 116.88595 314.092987 
L 120.985124 347.880397 
L 125.084298 327.929099 
L 129.183471 348.264885 
L 133.282645 350.452718 
L 137.381818 343.325313 
L 141.480992 348.184395 
L 145.580165 348.352906 
L 149.679339 349.356718 
L 153.778512 340.739011 
L 157.877686 367.567246 
L 161.97686 353.042798 
L 166.076033 355.463629 
L 170.175207 355.35827 
L 174.27438 349.188527 
L 178.373554 356.667102 
L 182.472727 332.94661 
L 186.571901 345.387073 
L 190.671074 350.748532 
L 194.770248 344.754854 
L 198.869421 357.323793 
L 202.968595 332.72395 
L 207.067769 365.430806 
L 211.166942 328.620423 
L 215.266116 340.108409 
L 219.365289 339.496924 
L 223.464463 361.607522 
L 227.563636 361.666778 
L 231.66281 348.919496 
L 235.761983 348.71575 
L 239.861157 361.041663 
L 243.960331 348.764701 
L 248.059504 344.217799 
L 252.158678 366.6878 
L 256.257851 344.138996 
L 260.357025 369.36 
L 264.456198 349.747969 
L 268.555372 359.457828 
L 272.654545 368.031408 
L 276.753719 330.431925 
L 280.852893 334.307352 
L 284.952066 351.530647 
L 289.05124 347.503822 
L 293.150413 346.653905 
L 297.249587 351.044132 
L 301.34876 364.622247 
L 305.447934 352.18419 
L 309.547107 360.044304 
L 313.646281 357.815461 
L 317.745455 353.614736 
L 321.844628 350.553402 
L 325.943802 361.144251 
L 330.042975 339.470432 
L 334.142149 360.899856 
L 338.241322 358.089818 
L 342.340496 341.975913 
L 346.439669 346.607908 
L 350.538843 355.301254 
L 354.638017 349.102855 
L 358.73719 353.387203 
L 362.836364 342.646085 
L 366.935537 351.293928 
L 371.034711 357.694232 
L 375.133884 366.105494 
L 379.233058 332.078547 
L 383.332231 347.607863 
L 387.431405 352.625206 
L 391.530579 347.193534 
L 395.629752 351.525721 
L 399.728926 367.574898 
L 403.828099 344.988284 
L 407.927273 354.048555 
L 412.026446 345.78409 
L 416.12562 349.340243 
L 420.224793 357.760162 
L 424.323967 347.046016 
L 428.42314 358.699434 
L 432.522314 335.0602 
L 436.621488 357.283139 
L 440.720661 346.463072 
L 444.819835 341.639448 
L 448.919008 349.469273 
L 453.018182 356.662177 
L 457.117355 355.484014 
L 461.216529 336.283043 
L 465.315702 355.790293 
L 469.414876 342.560276 
L 473.51405 343.013528 
L 477.613223 329.417065 
L 481.712397 330.671449 
L 485.81157 334.160354 
L 489.910744 354.819132 
L 494.009917 352.871672 
L 498.109091 348.849187 
" clip-path="url(#paa56dbe74f)" style="fill: none; stroke: #1f77b4; stroke-width: 1.5; stroke-linecap: square"/>
    <defs>
     <path id="me5eb759bbb" d="M 0 3 
C 0.795609 3 1.55874 2.683901 2.12132 2.12132 
C 2.683901 1.55874 3 0.795609 3 0 
C 3 -0.795609 2.683901 -1.55874 2.12132 -2.12132 
C 1.55874 -2.683901 0.795609 -3 0 -3 
C -0.795609 -3 -1.55874 -2.683901 -2.12132 -2.12132 
C -2.683901 -1.55874 -3 -0.795609 -3 0 
C -3 0.795609 -2.683901 1.55874 -2.12132 2.12132 
C -1.55874 2.683901 -0.795609 3 0 3 
z
" style="stroke: #1f77b4"/>
    </defs>
    <g clip-path="url(#paa56dbe74f)">
     <use xlink:href="#me5eb759bbb" x="92.290909" y="66.96" style="fill: #1f77b4; stroke: #1f77b4"/>
     <use xlink:href="#me5eb759bbb" x="96.390083" y="253.907471" style="fill: #1f77b4; stroke: #1f77b4"/>
     <use xlink:href="#me5eb759bbb" x="100.489256" y="272.3005" style="fill: #1f77b4; stroke: #1f77b4"/>
     <use xlink:href="#me5eb759bbb" x="104.58843" y="288.228002" style="fill: #1f77b4; stroke: #1f77b4"/>
     <use xlink:href="#me5eb759bbb" x="108.687603" y="318.503951" style="fill: #1f77b4; stroke: #1f77b4"/>
     <use xlink:href="#me5eb759bbb" x="112.786777" y="307.971891" style="fill: #1f77b4; stroke: #1f77b4"/>
     <use xlink:href="#me5eb759bbb" x="116.88595" y="314.092987" style="fill: #1f77b4; stroke: #1f77b4"/>
     <use xlink:href="#me5eb759bbb" x="120.985124" y="347.880397" style="fill: #1f77b4; stroke: #1f77b4"/>
     <use xlink:href="#me5eb759bbb" x="125.084298" y="327.929099" style="fill: #1f77b4; stroke: #1f77b4"/>
     <use xlink:href="#me5eb759bbb" x="129.183471" y="348.264885" style="fill: #1f77b4; stroke: #1f77b4"/>
     <use xlink:href="#me5eb759bbb" x="133.282645" y="350.452718" style="fill: #1f77b4; stroke: #1f77b4"/>
     <use xlink:href="#me5eb759bbb" x="137.381818" y="343.325313" style="fill: #1f77b4; stroke: #1f77b4"/>
     <use xlink:href="#me5eb759bbb" x="141.480992" y="348.184395" style="fill: #1f77b4; stroke: #1f77b4"/>
     <use xlink:href="#me5eb759bbb" x="145.580165" y="348.352906" style="fill: #1f77b4; stroke: #1f77b4"/>
     <use xlink:href="#me5eb759bbb" x="149.679339" y="349.356718" style="fill: #1f77b4; stroke: #1f77b4"/>
     <use xlink:href="#me5eb759bbb" x="153.778512" y="340.739011" style="fill: #1f77b4; stroke: #1f77b4"/>
     <use xlink:href="#me5eb759bbb" x="157.877686" y="367.567246" style="fill: #1f77b4; stroke: #1f77b4"/>
     <use xlink:href="#me5eb759bbb" x="161.97686" y="353.042798" style="fill: #1f77b4; stroke: #1f77b4"/>
     <use xlink:href="#me5eb759bbb" x="166.076033" y="355.463629" style="fill: #1f77b4; stroke: #1f77b4"/>
     <use xlink:href="#me5eb759bbb" x="170.175207" y="355.35827" style="fill: #1f77b4; stroke: #1f77b4"/>
     <use xlink:href="#me5eb759bbb" x="174.27438" y="349.188527" style="fill: #1f77b4; stroke: #1f77b4"/>
     <use xlink:href="#me5eb759bbb" x="178.373554" y="356.667102" style="fill: #1f77b4; stroke: #1f77b4"/>
     <use xlink:href="#me5eb759bbb" x="182.472727" y="332.94661" style="fill: #1f77b4; stroke: #1f77b4"/>
     <use xlink:href="#me5eb759bbb" x="186.571901" y="345.387073" style="fill: #1f77b4; stroke: #1f77b4"/>
     <use xlink:href="#me5eb759bbb" x="190.671074" y="350.748532" style="fill: #1f77b4; stroke: #1f77b4"/>
     <use xlink:href="#me5eb759bbb" x="194.770248" y="344.754854" style="fill: #1f77b4; stroke: #1f77b4"/>
     <use xlink:href="#me5eb759bbb" x="198.869421" y="357.323793" style="fill: #1f77b4; stroke: #1f77b4"/>
     <use xlink:href="#me5eb759bbb" x="202.968595" y="332.72395" style="fill: #1f77b4; stroke: #1f77b4"/>
     <use xlink:href="#me5eb759bbb" x="207.067769" y="365.430806" style="fill: #1f77b4; stroke: #1f77b4"/>
     <use xlink:href="#me5eb759bbb" x="211.166942" y="328.620423" style="fill: #1f77b4; stroke: #1f77b4"/>
     <use xlink:href="#me5eb759bbb" x="215.266116" y="340.108409" style="fill: #1f77b4; stroke: #1f77b4"/>
     <use xlink:href="#me5eb759bbb" x="219.365289" y="339.496924" style="fill: #1f77b4; stroke: #1f77b4"/>
     <use xlink:href="#me5eb759bbb" x="223.464463" y="361.607522" style="fill: #1f77b4; stroke: #1f77b4"/>
     <use xlink:href="#me5eb759bbb" x="227.563636" y="361.666778" style="fill: #1f77b4; stroke: #1f77b4"/>
     <use xlink:href="#me5eb759bbb" x="231.66281" y="348.919496" style="fill: #1f77b4; stroke: #1f77b4"/>
     <use xlink:href="#me5eb759bbb" x="235.761983" y="348.71575" style="fill: #1f77b4; stroke: #1f77b4"/>
     <use xlink:href="#me5eb759bbb" x="239.861157" y="361.041663" style="fill: #1f77b4; stroke: #1f77b4"/>
     <use xlink:href="#me5eb759bbb" x="243.960331" y="348.764701" style="fill: #1f77b4; stroke: #1f77b4"/>
     <use xlink:href="#me5eb759bbb" x="248.059504" y="344.217799" style="fill: #1f77b4; stroke: #1f77b4"/>
     <use xlink:href="#me5eb759bbb" x="252.158678" y="366.6878" style="fill: #1f77b4; stroke: #1f77b4"/>
     <use xlink:href="#me5eb759bbb" x="256.257851" y="344.138996" style="fill: #1f77b4; stroke: #1f77b4"/>
     <use xlink:href="#me5eb759bbb" x="260.357025" y="369.36" style="fill: #1f77b4; stroke: #1f77b4"/>
     <use xlink:href="#me5eb759bbb" x="264.456198" y="349.747969" style="fill: #1f77b4; stroke: #1f77b4"/>
     <use xlink:href="#me5eb759bbb" x="268.555372" y="359.457828" style="fill: #1f77b4; stroke: #1f77b4"/>
     <use xlink:href="#me5eb759bbb" x="272.654545" y="368.031408" style="fill: #1f77b4; stroke: #1f77b4"/>
     <use xlink:href="#me5eb759bbb" x="276.753719" y="330.431925" style="fill: #1f77b4; stroke: #1f77b4"/>
     <use xlink:href="#me5eb759bbb" x="280.852893" y="334.307352" style="fill: #1f77b4; stroke: #1f77b4"/>
     <use xlink:href="#me5eb759bbb" x="284.952066" y="351.530647" style="fill: #1f77b4; stroke: #1f77b4"/>
     <use xlink:href="#me5eb759bbb" x="289.05124" y="347.503822" style="fill: #1f77b4; stroke: #1f77b4"/>
     <use xlink:href="#me5eb759bbb" x="293.150413" y="346.653905" style="fill: #1f77b4; stroke: #1f77b4"/>
     <use xlink:href="#me5eb759bbb" x="297.249587" y="351.044132" style="fill: #1f77b4; stroke: #1f77b4"/>
     <use xlink:href="#me5eb759bbb" x="301.34876" y="364.622247" style="fill: #1f77b4; stroke: #1f77b4"/>
     <use xlink:href="#me5eb759bbb" x="305.447934" y="352.18419" style="fill: #1f77b4; stroke: #1f77b4"/>
     <use xlink:href="#me5eb759bbb" x="309.547107" y="360.044304" style="fill: #1f77b4; stroke: #1f77b4"/>
     <use xlink:href="#me5eb759bbb" x="313.646281" y="357.815461" style="fill: #1f77b4; stroke: #1f77b4"/>
     <use xlink:href="#me5eb759bbb" x="317.745455" y="353.614736" style="fill: #1f77b4; stroke: #1f77b4"/>
     <use xlink:href="#me5eb759bbb" x="321.844628" y="350.553402" style="fill: #1f77b4; stroke: #1f77b4"/>
     <use xlink:href="#me5eb759bbb" x="325.943802" y="361.144251" style="fill: #1f77b4; stroke: #1f77b4"/>
     <use xlink:href="#me5eb759bbb" x="330.042975" y="339.470432" style="fill: #1f77b4; stroke: #1f77b4"/>
     <use xlink:href="#me5eb759bbb" x="334.142149" y="360.899856" style="fill: #1f77b4; stroke: #1f77b4"/>
     <use xlink:href="#me5eb759bbb" x="338.241322" y="358.089818" style="fill: #1f77b4; stroke: #1f77b4"/>
     <use xlink:href="#me5eb759bbb" x="342.340496" y="341.975913" style="fill: #1f77b4; stroke: #1f77b4"/>
     <use xlink:href="#me5eb759bbb" x="346.439669" y="346.607908" style="fill: #1f77b4; stroke: #1f77b4"/>
     <use xlink:href="#me5eb759bbb" x="350.538843" y="355.301254" style="fill: #1f77b4; stroke: #1f77b4"/>
     <use xlink:href="#me5eb759bbb" x="354.638017" y="349.102855" style="fill: #1f77b4; stroke: #1f77b4"/>
     <use xlink:href="#me5eb759bbb" x="358.73719" y="353.387203" style="fill: #1f77b4; stroke: #1f77b4"/>
     <use xlink:href="#me5eb759bbb" x="362.836364" y="342.646085" style="fill: #1f77b4; stroke: #1f77b4"/>
     <use xlink:href="#me5eb759bbb" x="366.935537" y="351.293928" style="fill: #1f77b4; stroke: #1f77b4"/>
     <use xlink:href="#me5eb759bbb" x="371.034711" y="357.694232" style="fill: #1f77b4; stroke: #1f77b4"/>
     <use xlink:href="#me5eb759bbb" x="375.133884" y="366.105494" style="fill: #1f77b4; stroke: #1f77b4"/>
     <use xlink:href="#me5eb759bbb" x="379.233058" y="332.078547" style="fill: #1f77b4; stroke: #1f77b4"/>
     <use xlink:href="#me5eb759bbb" x="383.332231" y="347.607863" style="fill: #1f77b4; stroke: #1f77b4"/>
     <use xlink:href="#me5eb759bbb" x="387.431405" y="352.625206" style="fill: #1f77b4; stroke: #1f77b4"/>
     <use xlink:href="#me5eb759bbb" x="391.530579" y="347.193534" style="fill: #1f77b4; stroke: #1f77b4"/>
     <use xlink:href="#me5eb759bbb" x="395.629752" y="351.525721" style="fill: #1f77b4; stroke: #1f77b4"/>
     <use xlink:href="#me5eb759bbb" x="399.728926" y="367.574898" style="fill: #1f77b4; stroke: #1f77b4"/>
     <use xlink:href="#me5eb759bbb" x="403.828099" y="344.988284" style="fill: #1f77b4; stroke: #1f77b4"/>
     <use xlink:href="#me5eb759bbb" x="407.927273" y="354.048555" style="fill: #1f77b4; stroke: #1f77b4"/>
     <use xlink:href="#me5eb759bbb" x="412.026446" y="345.78409" style="fill: #1f77b4; stroke: #1f77b4"/>
     <use xlink:href="#me5eb759bbb" x="416.12562" y="349.340243" style="fill: #1f77b4; stroke: #1f77b4"/>
     <use xlink:href="#me5eb759bbb" x="420.224793" y="357.760162" style="fill: #1f77b4; stroke: #1f77b4"/>
     <use xlink:href="#me5eb759bbb" x="424.323967" y="347.046016" style="fill: #1f77b4; stroke: #1f77b4"/>
     <use xlink:href="#me5eb759bbb" x="428.42314" y="358.699434" style="fill: #1f77b4; stroke: #1f77b4"/>
     <use xlink:href="#me5eb759bbb" x="432.522314" y="335.0602" style="fill: #1f77b4; stroke: #1f77b4"/>
     <use xlink:href="#me5eb759bbb" x="436.621488" y="357.283139" style="fill: #1f77b4; stroke: #1f77b4"/>
     <use xlink:href="#me5eb759bbb" x="440.720661" y="346.463072" style="fill: #1f77b4; stroke: #1f77b4"/>
     <use xlink:href="#me5eb759bbb" x="444.819835" y="341.639448" style="fill: #1f77b4; stroke: #1f77b4"/>
     <use xlink:href="#me5eb759bbb" x="448.919008" y="349.469273" style="fill: #1f77b4; stroke: #1f77b4"/>
     <use xlink:href="#me5eb759bbb" x="453.018182" y="356.662177" style="fill: #1f77b4; stroke: #1f77b4"/>
     <use xlink:href="#me5eb759bbb" x="457.117355" y="355.484014" style="fill: #1f77b4; stroke: #1f77b4"/>
     <use xlink:href="#me5eb759bbb" x="461.216529" y="336.283043" style="fill: #1f77b4; stroke: #1f77b4"/>
     <use xlink:href="#me5eb759bbb" x="465.315702" y="355.790293" style="fill: #1f77b4; stroke: #1f77b4"/>
     <use xlink:href="#me5eb759bbb" x="469.414876" y="342.560276" style="fill: #1f77b4; stroke: #1f77b4"/>
     <use xlink:href="#me5eb759bbb" x="473.51405" y="343.013528" style="fill: #1f77b4; stroke: #1f77b4"/>
     <use xlink:href="#me5eb759bbb" x="477.613223" y="329.417065" style="fill: #1f77b4; stroke: #1f77b4"/>
     <use xlink:href="#me5eb759bbb" x="481.712397" y="330.671449" style="fill: #1f77b4; stroke: #1f77b4"/>
     <use xlink:href="#me5eb759bbb" x="485.81157" y="334.160354" style="fill: #1f77b4; stroke: #1f77b4"/>
     <use xlink:href="#me5eb759bbb" x="489.910744" y="354.819132" style="fill: #1f77b4; stroke: #1f77b4"/>
     <use xlink:href="#me5eb759bbb" x="494.009917" y="352.871672" style="fill: #1f77b4; stroke: #1f77b4"/>
     <use xlink:href="#me5eb759bbb" x="498.109091" y="348.849187" style="fill: #1f77b4; stroke: #1f77b4"/>
    </g>
   </g>
   <g id="patch_3">
    <path d="M 72 384.48 
L 72 51.84 
" style="fill: none; stroke: #000000; stroke-width: 0.8; stroke-linejoin: miter; stroke-linecap: square"/>
   </g>
   <g id="patch_4">
    <path d="M 518.4 384.48 
L 518.4 51.84 
" style="fill: none; stroke: #000000; stroke-width: 0.8; stroke-linejoin: miter; stroke-linecap: square"/>
   </g>
   <g id="patch_5">
    <path d="M 72 384.48 
L 518.4 384.48 
" style="fill: none; stroke: #000000; stroke-width: 0.8; stroke-linejoin: miter; stroke-linecap: square"/>
   </g>
   <g id="patch_6">
    <path d="M 72 51.84 
L 518.4 51.84 
" style="fill: none; stroke: #000000; stroke-width: 0.8; stroke-linejoin: miter; stroke-linecap: square"/>
   </g>
   <g id="text_15">
    <!-- Training Loss Over Epochs -->
    <g transform="translate(164.39375 45.84) scale(0.2 -0.2)">
     <defs>
      <path id="DejaVuSans-54" d="M -19 4666 
L 3928 4666 
L 3928 4134 
L 2272 4134 
L 2272 0 
L 1638 0 
L 1638 4134 
L -19 4134 
L -19 4666 
z
" transform="scale(0.015625)"/>
      <path id="DejaVuSans-72" d="M 2631 2963 
Q 2534 3019 2420 3045 
Q 2306 3072 2169 3072 
Q 1681 3072 1420 2755 
Q 1159 2438 1159 1844 
L 1159 0 
L 581 0 
L 581 3500 
L 1159 3500 
L 1159 2956 
Q 1341 3275 1631 3429 
Q 1922 3584 2338 3584 
Q 2397 3584 2469 3576 
Q 2541 3569 2628 3553 
L 2631 2963 
z
" transform="scale(0.015625)"/>
      <path id="DejaVuSans-61" d="M 2194 1759 
Q 1497 1759 1228 1600 
Q 959 1441 959 1056 
Q 959 750 1161 570 
Q 1363 391 1709 391 
Q 2188 391 2477 730 
Q 2766 1069 2766 1631 
L 2766 1759 
L 2194 1759 
z
M 3341 1997 
L 3341 0 
L 2766 0 
L 2766 531 
Q 2569 213 2275 61 
Q 1981 -91 1556 -91 
Q 1019 -91 701 211 
Q 384 513 384 1019 
Q 384 1609 779 1909 
Q 1175 2209 1959 2209 
L 2766 2209 
L 2766 2266 
Q 2766 2663 2505 2880 
Q 2244 3097 1772 3097 
Q 1472 3097 1187 3025 
Q 903 2953 641 2809 
L 641 3341 
Q 956 3463 1253 3523 
Q 1550 3584 1831 3584 
Q 2591 3584 2966 3190 
Q 3341 2797 3341 1997 
z
" transform="scale(0.015625)"/>
      <path id="DejaVuSans-69" d="M 603 3500 
L 1178 3500 
L 1178 0 
L 603 0 
L 603 3500 
z
M 603 4863 
L 1178 4863 
L 1178 4134 
L 603 4134 
L 603 4863 
z
" transform="scale(0.015625)"/>
      <path id="DejaVuSans-6e" d="M 3513 2113 
L 3513 0 
L 2938 0 
L 2938 2094 
Q 2938 2591 2744 2837 
Q 2550 3084 2163 3084 
Q 1697 3084 1428 2787 
Q 1159 2491 1159 1978 
L 1159 0 
L 581 0 
L 581 3500 
L 1159 3500 
L 1159 2956 
Q 1366 3272 1645 3428 
Q 1925 3584 2291 3584 
Q 2894 3584 3203 3211 
Q 3513 2838 3513 2113 
z
" transform="scale(0.015625)"/>
      <path id="DejaVuSans-67" d="M 2906 1791 
Q 2906 2416 2648 2759 
Q 2391 3103 1925 3103 
Q 1463 3103 1205 2759 
Q 947 2416 947 1791 
Q 947 1169 1205 825 
Q 1463 481 1925 481 
Q 2391 481 2648 825 
Q 2906 1169 2906 1791 
z
M 3481 434 
Q 3481 -459 3084 -895 
Q 2688 -1331 1869 -1331 
Q 1566 -1331 1297 -1286 
Q 1028 -1241 775 -1147 
L 775 -588 
Q 1028 -725 1275 -790 
Q 1522 -856 1778 -856 
Q 2344 -856 2625 -561 
Q 2906 -266 2906 331 
L 2906 616 
Q 2728 306 2450 153 
Q 2172 0 1784 0 
Q 1141 0 747 490 
Q 353 981 353 1791 
Q 353 2603 747 3093 
Q 1141 3584 1784 3584 
Q 2172 3584 2450 3431 
Q 2728 3278 2906 2969 
L 2906 3500 
L 3481 3500 
L 3481 434 
z
" transform="scale(0.015625)"/>
      <path id="DejaVuSans-20" transform="scale(0.015625)"/>
      <path id="DejaVuSans-4f" d="M 2522 4238 
Q 1834 4238 1429 3725 
Q 1025 3213 1025 2328 
Q 1025 1447 1429 934 
Q 1834 422 2522 422 
Q 3209 422 3611 934 
Q 4013 1447 4013 2328 
Q 4013 3213 3611 3725 
Q 3209 4238 2522 4238 
z
M 2522 4750 
Q 3503 4750 4090 4092 
Q 4678 3434 4678 2328 
Q 4678 1225 4090 567 
Q 3503 -91 2522 -91 
Q 1538 -91 948 565 
Q 359 1222 359 2328 
Q 359 3434 948 4092 
Q 1538 4750 2522 4750 
z
" transform="scale(0.015625)"/>
      <path id="DejaVuSans-76" d="M 191 3500 
L 800 3500 
L 1894 563 
L 2988 3500 
L 3597 3500 
L 2284 0 
L 1503 0 
L 191 3500 
z
" transform="scale(0.015625)"/>
      <path id="DejaVuSans-65" d="M 3597 1894 
L 3597 1613 
L 953 1613 
Q 991 1019 1311 708 
Q 1631 397 2203 397 
Q 2534 397 2845 478 
Q 3156 559 3463 722 
L 3463 178 
Q 3153 47 2828 -22 
Q 2503 -91 2169 -91 
Q 1331 -91 842 396 
Q 353 884 353 1716 
Q 353 2575 817 3079 
Q 1281 3584 2069 3584 
Q 2775 3584 3186 3129 
Q 3597 2675 3597 1894 
z
M 3022 2063 
Q 3016 2534 2758 2815 
Q 2500 3097 2075 3097 
Q 1594 3097 1305 2825 
Q 1016 2553 972 2059 
L 3022 2063 
z
" transform="scale(0.015625)"/>
     </defs>
     <use xlink:href="#DejaVuSans-54"/>
     <use xlink:href="#DejaVuSans-72" x="46.333984"/>
     <use xlink:href="#DejaVuSans-61" x="87.447266"/>
     <use xlink:href="#DejaVuSans-69" x="148.726562"/>
     <use xlink:href="#DejaVuSans-6e" x="176.509766"/>
     <use xlink:href="#DejaVuSans-69" x="239.888672"/>
     <use xlink:href="#DejaVuSans-6e" x="267.671875"/>
     <use xlink:href="#DejaVuSans-67" x="331.050781"/>
     <use xlink:href="#DejaVuSans-20" x="394.527344"/>
     <use xlink:href="#DejaVuSans-4c" x="426.314453"/>
     <use xlink:href="#DejaVuSans-6f" x="480.277344"/>
     <use xlink:href="#DejaVuSans-73" x="541.458984"/>
     <use xlink:href="#DejaVuSans-73" x="593.558594"/>
     <use xlink:href="#DejaVuSans-20" x="645.658203"/>
     <use xlink:href="#DejaVuSans-4f" x="677.445312"/>
     <use xlink:href="#DejaVuSans-76" x="756.15625"/>
     <use xlink:href="#DejaVuSans-65" x="815.335938"/>
     <use xlink:href="#DejaVuSans-72" x="876.859375"/>
     <use xlink:href="#DejaVuSans-20" x="917.972656"/>
     <use xlink:href="#DejaVuSans-45" x="949.759766"/>
     <use xlink:href="#DejaVuSans-70" x="1012.943359"/>
     <use xlink:href="#DejaVuSans-6f" x="1076.419922"/>
     <use xlink:href="#DejaVuSans-63" x="1137.601562"/>
     <use xlink:href="#DejaVuSans-68" x="1192.582031"/>
     <use xlink:href="#DejaVuSans-73" x="1255.960938"/>
    </g>
   </g>
  </g>
 </g>
 <defs>
  <clipPath id="paa56dbe74f">
   <rect x="72" y="51.84" width="446.4" height="332.64"/>
  </clipPath>
 </defs>
</svg>
