<?xml version="1.0" encoding="utf-8" standalone="no"?>
<!DOCTYPE svg PUBLIC "-//W3C//DTD SVG 1.1//EN"
  "http://www.w3.org/Graphics/SVG/1.1/DTD/svg11.dtd">
<svg xmlns:xlink="http://www.w3.org/1999/xlink" width="576pt" height="432pt" viewBox="0 0 576 432" xmlns="http://www.w3.org/2000/svg" version="1.1">
 <metadata>
  <rdf:RDF xmlns:dc="http://purl.org/dc/elements/1.1/" xmlns:cc="http://creativecommons.org/ns#" xmlns:rdf="http://www.w3.org/1999/02/22-rdf-syntax-ns#">
   <cc:Work>
    <dc:type rdf:resource="http://purl.org/dc/dcmitype/StillImage"/>
    <dc:date>2025-01-07T01:12:17.851570</dc:date>
    <dc:format>image/svg+xml</dc:format>
    <dc:creator>
     <cc:Agent>
      <dc:title>Matplotlib v3.9.2, https://matplotlib.org/</dc:title>
     </cc:Agent>
    </dc:creator>
   </cc:Work>
  </rdf:RDF>
 </metadata>
 <defs>
  <style type="text/css">*{stroke-linejoin: round; stroke-linecap: butt}</style>
 </defs>
 <g id="figure_1">
  <g id="patch_1">
   <path d="M 0 432 
L 576 432 
L 576 0 
L 0 0 
z
" style="fill: #ffffff"/>
  </g>
  <g id="axes_1">
   <g id="patch_2">
    <path d="M 72 384.48 
L 518.4 384.48 
L 518.4 51.84 
L 72 51.84 
z
" style="fill: #ffffff"/>
   </g>
   <g id="matplotlib.axis_1">
    <g id="xtick_1">
     <g id="line2d_1">
      <path d="M 88.191736 384.48 
L 88.191736 51.84 
" clip-path="url(#p471de7dc19)" style="fill: none; stroke: #b0b0b0; stroke-width: 0.8; stroke-linecap: square"/>
     </g>
     <g id="line2d_2">
      <defs>
       <path id="m61d15bb980" d="M 0 0 
L 0 3.5 
" style="stroke: #000000; stroke-width: 0.8"/>
      </defs>
      <g>
       <use xlink:href="#m61d15bb980" x="88.191736" y="384.48" style="stroke: #000000; stroke-width: 0.8"/>
      </g>
     </g>
     <g id="text_1">
      <!-- 0 -->
      <g transform="translate(85.010486 399.078438) scale(0.1 -0.1)">
       <defs>
        <path id="DejaVuSans-30" d="M 2034 4250 
Q 1547 4250 1301 3770 
Q 1056 3291 1056 2328 
Q 1056 1369 1301 889 
Q 1547 409 2034 409 
Q 2525 409 2770 889 
Q 3016 1369 3016 2328 
Q 3016 3291 2770 3770 
Q 2525 4250 2034 4250 
z
M 2034 4750 
Q 2819 4750 3233 4129 
Q 3647 3509 3647 2328 
Q 3647 1150 3233 529 
Q 2819 -91 2034 -91 
Q 1250 -91 836 529 
Q 422 1150 422 2328 
Q 422 3509 836 4129 
Q 1250 4750 2034 4750 
z
" transform="scale(0.015625)"/>
       </defs>
       <use xlink:href="#DejaVuSans-30"/>
      </g>
     </g>
    </g>
    <g id="xtick_2">
     <g id="line2d_3">
      <path d="M 170.175207 384.48 
L 170.175207 51.84 
" clip-path="url(#p471de7dc19)" style="fill: none; stroke: #b0b0b0; stroke-width: 0.8; stroke-linecap: square"/>
     </g>
     <g id="line2d_4">
      <g>
       <use xlink:href="#m61d15bb980" x="170.175207" y="384.48" style="stroke: #000000; stroke-width: 0.8"/>
      </g>
     </g>
     <g id="text_2">
      <!-- 20 -->
      <g transform="translate(163.812707 399.078438) scale(0.1 -0.1)">
       <defs>
        <path id="DejaVuSans-32" d="M 1228 531 
L 3431 531 
L 3431 0 
L 469 0 
L 469 531 
Q 828 903 1448 1529 
Q 2069 2156 2228 2338 
Q 2531 2678 2651 2914 
Q 2772 3150 2772 3378 
Q 2772 3750 2511 3984 
Q 2250 4219 1831 4219 
Q 1534 4219 1204 4116 
Q 875 4013 500 3803 
L 500 4441 
Q 881 4594 1212 4672 
Q 1544 4750 1819 4750 
Q 2544 4750 2975 4387 
Q 3406 4025 3406 3419 
Q 3406 3131 3298 2873 
Q 3191 2616 2906 2266 
Q 2828 2175 2409 1742 
Q 1991 1309 1228 531 
z
" transform="scale(0.015625)"/>
       </defs>
       <use xlink:href="#DejaVuSans-32"/>
       <use xlink:href="#DejaVuSans-30" x="63.623047"/>
      </g>
     </g>
    </g>
    <g id="xtick_3">
     <g id="line2d_5">
      <path d="M 252.158678 384.48 
L 252.158678 51.84 
" clip-path="url(#p471de7dc19)" style="fill: none; stroke: #b0b0b0; stroke-width: 0.8; stroke-linecap: square"/>
     </g>
     <g id="line2d_6">
      <g>
       <use xlink:href="#m61d15bb980" x="252.158678" y="384.48" style="stroke: #000000; stroke-width: 0.8"/>
      </g>
     </g>
     <g id="text_3">
      <!-- 40 -->
      <g transform="translate(245.796178 399.078438) scale(0.1 -0.1)">
       <defs>
        <path id="DejaVuSans-34" d="M 2419 4116 
L 825 1625 
L 2419 1625 
L 2419 4116 
z
M 2253 4666 
L 3047 4666 
L 3047 1625 
L 3713 1625 
L 3713 1100 
L 3047 1100 
L 3047 0 
L 2419 0 
L 2419 1100 
L 313 1100 
L 313 1709 
L 2253 4666 
z
" transform="scale(0.015625)"/>
       </defs>
       <use xlink:href="#DejaVuSans-34"/>
       <use xlink:href="#DejaVuSans-30" x="63.623047"/>
      </g>
     </g>
    </g>
    <g id="xtick_4">
     <g id="line2d_7">
      <path d="M 334.142149 384.48 
L 334.142149 51.84 
" clip-path="url(#p471de7dc19)" style="fill: none; stroke: #b0b0b0; stroke-width: 0.8; stroke-linecap: square"/>
     </g>
     <g id="line2d_8">
      <g>
       <use xlink:href="#m61d15bb980" x="334.142149" y="384.48" style="stroke: #000000; stroke-width: 0.8"/>
      </g>
     </g>
     <g id="text_4">
      <!-- 60 -->
      <g transform="translate(327.779649 399.078438) scale(0.1 -0.1)">
       <defs>
        <path id="DejaVuSans-36" d="M 2113 2584 
Q 1688 2584 1439 2293 
Q 1191 2003 1191 1497 
Q 1191 994 1439 701 
Q 1688 409 2113 409 
Q 2538 409 2786 701 
Q 3034 994 3034 1497 
Q 3034 2003 2786 2293 
Q 2538 2584 2113 2584 
z
M 3366 4563 
L 3366 3988 
Q 3128 4100 2886 4159 
Q 2644 4219 2406 4219 
Q 1781 4219 1451 3797 
Q 1122 3375 1075 2522 
Q 1259 2794 1537 2939 
Q 1816 3084 2150 3084 
Q 2853 3084 3261 2657 
Q 3669 2231 3669 1497 
Q 3669 778 3244 343 
Q 2819 -91 2113 -91 
Q 1303 -91 875 529 
Q 447 1150 447 2328 
Q 447 3434 972 4092 
Q 1497 4750 2381 4750 
Q 2619 4750 2861 4703 
Q 3103 4656 3366 4563 
z
" transform="scale(0.015625)"/>
       </defs>
       <use xlink:href="#DejaVuSans-36"/>
       <use xlink:href="#DejaVuSans-30" x="63.623047"/>
      </g>
     </g>
    </g>
    <g id="xtick_5">
     <g id="line2d_9">
      <path d="M 416.12562 384.48 
L 416.12562 51.84 
" clip-path="url(#p471de7dc19)" style="fill: none; stroke: #b0b0b0; stroke-width: 0.8; stroke-linecap: square"/>
     </g>
     <g id="line2d_10">
      <g>
       <use xlink:href="#m61d15bb980" x="416.12562" y="384.48" style="stroke: #000000; stroke-width: 0.8"/>
      </g>
     </g>
     <g id="text_5">
      <!-- 80 -->
      <g transform="translate(409.76312 399.078438) scale(0.1 -0.1)">
       <defs>
        <path id="DejaVuSans-38" d="M 2034 2216 
Q 1584 2216 1326 1975 
Q 1069 1734 1069 1313 
Q 1069 891 1326 650 
Q 1584 409 2034 409 
Q 2484 409 2743 651 
Q 3003 894 3003 1313 
Q 3003 1734 2745 1975 
Q 2488 2216 2034 2216 
z
M 1403 2484 
Q 997 2584 770 2862 
Q 544 3141 544 3541 
Q 544 4100 942 4425 
Q 1341 4750 2034 4750 
Q 2731 4750 3128 4425 
Q 3525 4100 3525 3541 
Q 3525 3141 3298 2862 
Q 3072 2584 2669 2484 
Q 3125 2378 3379 2068 
Q 3634 1759 3634 1313 
Q 3634 634 3220 271 
Q 2806 -91 2034 -91 
Q 1263 -91 848 271 
Q 434 634 434 1313 
Q 434 1759 690 2068 
Q 947 2378 1403 2484 
z
M 1172 3481 
Q 1172 3119 1398 2916 
Q 1625 2713 2034 2713 
Q 2441 2713 2670 2916 
Q 2900 3119 2900 3481 
Q 2900 3844 2670 4047 
Q 2441 4250 2034 4250 
Q 1625 4250 1398 4047 
Q 1172 3844 1172 3481 
z
" transform="scale(0.015625)"/>
       </defs>
       <use xlink:href="#DejaVuSans-38"/>
       <use xlink:href="#DejaVuSans-30" x="63.623047"/>
      </g>
     </g>
    </g>
    <g id="xtick_6">
     <g id="line2d_11">
      <path d="M 498.109091 384.48 
L 498.109091 51.84 
" clip-path="url(#p471de7dc19)" style="fill: none; stroke: #b0b0b0; stroke-width: 0.8; stroke-linecap: square"/>
     </g>
     <g id="line2d_12">
      <g>
       <use xlink:href="#m61d15bb980" x="498.109091" y="384.48" style="stroke: #000000; stroke-width: 0.8"/>
      </g>
     </g>
     <g id="text_6">
      <!-- 100 -->
      <g transform="translate(488.565341 399.078438) scale(0.1 -0.1)">
       <defs>
        <path id="DejaVuSans-31" d="M 794 531 
L 1825 531 
L 1825 4091 
L 703 3866 
L 703 4441 
L 1819 4666 
L 2450 4666 
L 2450 531 
L 3481 531 
L 3481 0 
L 794 0 
L 794 531 
z
" transform="scale(0.015625)"/>
       </defs>
       <use xlink:href="#DejaVuSans-31"/>
       <use xlink:href="#DejaVuSans-30" x="63.623047"/>
       <use xlink:href="#DejaVuSans-30" x="127.246094"/>
      </g>
     </g>
    </g>
    <g id="text_7">
     <!-- Epochs -->
     <g transform="translate(259.36875 420.355) scale(0.2 -0.2)">
      <defs>
       <path id="DejaVuSans-45" d="M 628 4666 
L 3578 4666 
L 3578 4134 
L 1259 4134 
L 1259 2753 
L 3481 2753 
L 3481 2222 
L 1259 2222 
L 1259 531 
L 3634 531 
L 3634 0 
L 628 0 
L 628 4666 
z
" transform="scale(0.015625)"/>
       <path id="DejaVuSans-70" d="M 1159 525 
L 1159 -1331 
L 581 -1331 
L 581 3500 
L 1159 3500 
L 1159 2969 
Q 1341 3281 1617 3432 
Q 1894 3584 2278 3584 
Q 2916 3584 3314 3078 
Q 3713 2572 3713 1747 
Q 3713 922 3314 415 
Q 2916 -91 2278 -91 
Q 1894 -91 1617 61 
Q 1341 213 1159 525 
z
M 3116 1747 
Q 3116 2381 2855 2742 
Q 2594 3103 2138 3103 
Q 1681 3103 1420 2742 
Q 1159 2381 1159 1747 
Q 1159 1113 1420 752 
Q 1681 391 2138 391 
Q 2594 391 2855 752 
Q 3116 1113 3116 1747 
z
" transform="scale(0.015625)"/>
       <path id="DejaVuSans-6f" d="M 1959 3097 
Q 1497 3097 1228 2736 
Q 959 2375 959 1747 
Q 959 1119 1226 758 
Q 1494 397 1959 397 
Q 2419 397 2687 759 
Q 2956 1122 2956 1747 
Q 2956 2369 2687 2733 
Q 2419 3097 1959 3097 
z
M 1959 3584 
Q 2709 3584 3137 3096 
Q 3566 2609 3566 1747 
Q 3566 888 3137 398 
Q 2709 -91 1959 -91 
Q 1206 -91 779 398 
Q 353 888 353 1747 
Q 353 2609 779 3096 
Q 1206 3584 1959 3584 
z
" transform="scale(0.015625)"/>
       <path id="DejaVuSans-63" d="M 3122 3366 
L 3122 2828 
Q 2878 2963 2633 3030 
Q 2388 3097 2138 3097 
Q 1578 3097 1268 2742 
Q 959 2388 959 1747 
Q 959 1106 1268 751 
Q 1578 397 2138 397 
Q 2388 397 2633 464 
Q 2878 531 3122 666 
L 3122 134 
Q 2881 22 2623 -34 
Q 2366 -91 2075 -91 
Q 1284 -91 818 406 
Q 353 903 353 1747 
Q 353 2603 823 3093 
Q 1294 3584 2113 3584 
Q 2378 3584 2631 3529 
Q 2884 3475 3122 3366 
z
" transform="scale(0.015625)"/>
       <path id="DejaVuSans-68" d="M 3513 2113 
L 3513 0 
L 2938 0 
L 2938 2094 
Q 2938 2591 2744 2837 
Q 2550 3084 2163 3084 
Q 1697 3084 1428 2787 
Q 1159 2491 1159 1978 
L 1159 0 
L 581 0 
L 581 4863 
L 1159 4863 
L 1159 2956 
Q 1366 3272 1645 3428 
Q 1925 3584 2291 3584 
Q 2894 3584 3203 3211 
Q 3513 2838 3513 2113 
z
" transform="scale(0.015625)"/>
       <path id="DejaVuSans-73" d="M 2834 3397 
L 2834 2853 
Q 2591 2978 2328 3040 
Q 2066 3103 1784 3103 
Q 1356 3103 1142 2972 
Q 928 2841 928 2578 
Q 928 2378 1081 2264 
Q 1234 2150 1697 2047 
L 1894 2003 
Q 2506 1872 2764 1633 
Q 3022 1394 3022 966 
Q 3022 478 2636 193 
Q 2250 -91 1575 -91 
Q 1294 -91 989 -36 
Q 684 19 347 128 
L 347 722 
Q 666 556 975 473 
Q 1284 391 1588 391 
Q 1994 391 2212 530 
Q 2431 669 2431 922 
Q 2431 1156 2273 1281 
Q 2116 1406 1581 1522 
L 1381 1569 
Q 847 1681 609 1914 
Q 372 2147 372 2553 
Q 372 3047 722 3315 
Q 1072 3584 1716 3584 
Q 2034 3584 2315 3537 
Q 2597 3491 2834 3397 
z
" transform="scale(0.015625)"/>
      </defs>
      <use xlink:href="#DejaVuSans-45"/>
      <use xlink:href="#DejaVuSans-70" x="63.183594"/>
      <use xlink:href="#DejaVuSans-6f" x="126.660156"/>
      <use xlink:href="#DejaVuSans-63" x="187.841797"/>
      <use xlink:href="#DejaVuSans-68" x="242.822266"/>
      <use xlink:href="#DejaVuSans-73" x="306.201172"/>
     </g>
    </g>
   </g>
   <g id="matplotlib.axis_2">
    <g id="ytick_1">
     <g id="line2d_13">
      <path d="M 72 353.069172 
L 518.4 353.069172 
" clip-path="url(#p471de7dc19)" style="fill: none; stroke: #b0b0b0; stroke-width: 0.8; stroke-linecap: square"/>
     </g>
     <g id="line2d_14">
      <defs>
       <path id="m26e66dcb97" d="M 0 0 
L -3.5 0 
" style="stroke: #000000; stroke-width: 0.8"/>
      </defs>
      <g>
       <use xlink:href="#m26e66dcb97" x="72" y="353.069172" style="stroke: #000000; stroke-width: 0.8"/>
      </g>
     </g>
     <g id="text_8">
      <!-- 0.005 -->
      <g transform="translate(36.371875 356.86839) scale(0.1 -0.1)">
       <defs>
        <path id="DejaVuSans-2e" d="M 684 794 
L 1344 794 
L 1344 0 
L 684 0 
L 684 794 
z
" transform="scale(0.015625)"/>
        <path id="DejaVuSans-35" d="M 691 4666 
L 3169 4666 
L 3169 4134 
L 1269 4134 
L 1269 2991 
Q 1406 3038 1543 3061 
Q 1681 3084 1819 3084 
Q 2600 3084 3056 2656 
Q 3513 2228 3513 1497 
Q 3513 744 3044 326 
Q 2575 -91 1722 -91 
Q 1428 -91 1123 -41 
Q 819 9 494 109 
L 494 744 
Q 775 591 1075 516 
Q 1375 441 1709 441 
Q 2250 441 2565 725 
Q 2881 1009 2881 1497 
Q 2881 1984 2565 2268 
Q 2250 2553 1709 2553 
Q 1456 2553 1204 2497 
Q 953 2441 691 2322 
L 691 4666 
z
" transform="scale(0.015625)"/>
       </defs>
       <use xlink:href="#DejaVuSans-30"/>
       <use xlink:href="#DejaVuSans-2e" x="63.623047"/>
       <use xlink:href="#DejaVuSans-30" x="95.410156"/>
       <use xlink:href="#DejaVuSans-30" x="159.033203"/>
       <use xlink:href="#DejaVuSans-35" x="222.65625"/>
      </g>
     </g>
    </g>
    <g id="ytick_2">
     <g id="line2d_15">
      <path d="M 72 312.903119 
L 518.4 312.903119 
" clip-path="url(#p471de7dc19)" style="fill: none; stroke: #b0b0b0; stroke-width: 0.8; stroke-linecap: square"/>
     </g>
     <g id="line2d_16">
      <g>
       <use xlink:href="#m26e66dcb97" x="72" y="312.903119" style="stroke: #000000; stroke-width: 0.8"/>
      </g>
     </g>
     <g id="text_9">
      <!-- 0.006 -->
      <g transform="translate(36.371875 316.702338) scale(0.1 -0.1)">
       <use xlink:href="#DejaVuSans-30"/>
       <use xlink:href="#DejaVuSans-2e" x="63.623047"/>
       <use xlink:href="#DejaVuSans-30" x="95.410156"/>
       <use xlink:href="#DejaVuSans-30" x="159.033203"/>
       <use xlink:href="#DejaVuSans-36" x="222.65625"/>
      </g>
     </g>
    </g>
    <g id="ytick_3">
     <g id="line2d_17">
      <path d="M 72 272.737067 
L 518.4 272.737067 
" clip-path="url(#p471de7dc19)" style="fill: none; stroke: #b0b0b0; stroke-width: 0.8; stroke-linecap: square"/>
     </g>
     <g id="line2d_18">
      <g>
       <use xlink:href="#m26e66dcb97" x="72" y="272.737067" style="stroke: #000000; stroke-width: 0.8"/>
      </g>
     </g>
     <g id="text_10">
      <!-- 0.007 -->
      <g transform="translate(36.371875 276.536286) scale(0.1 -0.1)">
       <defs>
        <path id="DejaVuSans-37" d="M 525 4666 
L 3525 4666 
L 3525 4397 
L 1831 0 
L 1172 0 
L 2766 4134 
L 525 4134 
L 525 4666 
z
" transform="scale(0.015625)"/>
       </defs>
       <use xlink:href="#DejaVuSans-30"/>
       <use xlink:href="#DejaVuSans-2e" x="63.623047"/>
       <use xlink:href="#DejaVuSans-30" x="95.410156"/>
       <use xlink:href="#DejaVuSans-30" x="159.033203"/>
       <use xlink:href="#DejaVuSans-37" x="222.65625"/>
      </g>
     </g>
    </g>
    <g id="ytick_4">
     <g id="line2d_19">
      <path d="M 72 232.571015 
L 518.4 232.571015 
" clip-path="url(#p471de7dc19)" style="fill: none; stroke: #b0b0b0; stroke-width: 0.8; stroke-linecap: square"/>
     </g>
     <g id="line2d_20">
      <g>
       <use xlink:href="#m26e66dcb97" x="72" y="232.571015" style="stroke: #000000; stroke-width: 0.8"/>
      </g>
     </g>
     <g id="text_11">
      <!-- 0.008 -->
      <g transform="translate(36.371875 236.370234) scale(0.1 -0.1)">
       <use xlink:href="#DejaVuSans-30"/>
       <use xlink:href="#DejaVuSans-2e" x="63.623047"/>
       <use xlink:href="#DejaVuSans-30" x="95.410156"/>
       <use xlink:href="#DejaVuSans-30" x="159.033203"/>
       <use xlink:href="#DejaVuSans-38" x="222.65625"/>
      </g>
     </g>
    </g>
    <g id="ytick_5">
     <g id="line2d_21">
      <path d="M 72 192.404963 
L 518.4 192.404963 
" clip-path="url(#p471de7dc19)" style="fill: none; stroke: #b0b0b0; stroke-width: 0.8; stroke-linecap: square"/>
     </g>
     <g id="line2d_22">
      <g>
       <use xlink:href="#m26e66dcb97" x="72" y="192.404963" style="stroke: #000000; stroke-width: 0.8"/>
      </g>
     </g>
     <g id="text_12">
      <!-- 0.009 -->
      <g transform="translate(36.371875 196.204182) scale(0.1 -0.1)">
       <defs>
        <path id="DejaVuSans-39" d="M 703 97 
L 703 672 
Q 941 559 1184 500 
Q 1428 441 1663 441 
Q 2288 441 2617 861 
Q 2947 1281 2994 2138 
Q 2813 1869 2534 1725 
Q 2256 1581 1919 1581 
Q 1219 1581 811 2004 
Q 403 2428 403 3163 
Q 403 3881 828 4315 
Q 1253 4750 1959 4750 
Q 2769 4750 3195 4129 
Q 3622 3509 3622 2328 
Q 3622 1225 3098 567 
Q 2575 -91 1691 -91 
Q 1453 -91 1209 -44 
Q 966 3 703 97 
z
M 1959 2075 
Q 2384 2075 2632 2365 
Q 2881 2656 2881 3163 
Q 2881 3666 2632 3958 
Q 2384 4250 1959 4250 
Q 1534 4250 1286 3958 
Q 1038 3666 1038 3163 
Q 1038 2656 1286 2365 
Q 1534 2075 1959 2075 
z
" transform="scale(0.015625)"/>
       </defs>
       <use xlink:href="#DejaVuSans-30"/>
       <use xlink:href="#DejaVuSans-2e" x="63.623047"/>
       <use xlink:href="#DejaVuSans-30" x="95.410156"/>
       <use xlink:href="#DejaVuSans-30" x="159.033203"/>
       <use xlink:href="#DejaVuSans-39" x="222.65625"/>
      </g>
     </g>
    </g>
    <g id="ytick_6">
     <g id="line2d_23">
      <path d="M 72 152.238911 
L 518.4 152.238911 
" clip-path="url(#p471de7dc19)" style="fill: none; stroke: #b0b0b0; stroke-width: 0.8; stroke-linecap: square"/>
     </g>
     <g id="line2d_24">
      <g>
       <use xlink:href="#m26e66dcb97" x="72" y="152.238911" style="stroke: #000000; stroke-width: 0.8"/>
      </g>
     </g>
     <g id="text_13">
      <!-- 0.010 -->
      <g transform="translate(36.371875 156.03813) scale(0.1 -0.1)">
       <use xlink:href="#DejaVuSans-30"/>
       <use xlink:href="#DejaVuSans-2e" x="63.623047"/>
       <use xlink:href="#DejaVuSans-30" x="95.410156"/>
       <use xlink:href="#DejaVuSans-31" x="159.033203"/>
       <use xlink:href="#DejaVuSans-30" x="222.65625"/>
      </g>
     </g>
    </g>
    <g id="ytick_7">
     <g id="line2d_25">
      <path d="M 72 112.072859 
L 518.4 112.072859 
" clip-path="url(#p471de7dc19)" style="fill: none; stroke: #b0b0b0; stroke-width: 0.8; stroke-linecap: square"/>
     </g>
     <g id="line2d_26">
      <g>
       <use xlink:href="#m26e66dcb97" x="72" y="112.072859" style="stroke: #000000; stroke-width: 0.8"/>
      </g>
     </g>
     <g id="text_14">
      <!-- 0.011 -->
      <g transform="translate(36.371875 115.872078) scale(0.1 -0.1)">
       <use xlink:href="#DejaVuSans-30"/>
       <use xlink:href="#DejaVuSans-2e" x="63.623047"/>
       <use xlink:href="#DejaVuSans-30" x="95.410156"/>
       <use xlink:href="#DejaVuSans-31" x="159.033203"/>
       <use xlink:href="#DejaVuSans-31" x="222.65625"/>
      </g>
     </g>
    </g>
    <g id="ytick_8">
     <g id="line2d_27">
      <path d="M 72 71.906807 
L 518.4 71.906807 
" clip-path="url(#p471de7dc19)" style="fill: none; stroke: #b0b0b0; stroke-width: 0.8; stroke-linecap: square"/>
     </g>
     <g id="line2d_28">
      <g>
       <use xlink:href="#m26e66dcb97" x="72" y="71.906807" style="stroke: #000000; stroke-width: 0.8"/>
      </g>
     </g>
     <g id="text_15">
      <!-- 0.012 -->
      <g transform="translate(36.371875 75.706025) scale(0.1 -0.1)">
       <use xlink:href="#DejaVuSans-30"/>
       <use xlink:href="#DejaVuSans-2e" x="63.623047"/>
       <use xlink:href="#DejaVuSans-30" x="95.410156"/>
       <use xlink:href="#DejaVuSans-31" x="159.033203"/>
       <use xlink:href="#DejaVuSans-32" x="222.65625"/>
      </g>
     </g>
    </g>
    <g id="text_16">
     <!-- Loss -->
     <g transform="translate(28.2125 240.094375) rotate(-90) scale(0.2 -0.2)">
      <defs>
       <path id="DejaVuSans-4c" d="M 628 4666 
L 1259 4666 
L 1259 531 
L 3531 531 
L 3531 0 
L 628 0 
L 628 4666 
z
" transform="scale(0.015625)"/>
      </defs>
      <use xlink:href="#DejaVuSans-4c"/>
      <use xlink:href="#DejaVuSans-6f" x="53.962891"/>
      <use xlink:href="#DejaVuSans-73" x="115.144531"/>
      <use xlink:href="#DejaVuSans-73" x="167.244141"/>
     </g>
    </g>
   </g>
   <g id="line2d_29">
    <path d="M 92.290909 66.96 
L 96.390083 99.891934 
L 100.489256 155.622858 
L 104.58843 194.935835 
L 108.687603 213.386526 
L 112.786777 223.23345 
L 116.88595 240.774927 
L 120.985124 246.932322 
L 125.084298 273.250292 
L 129.183471 274.041807 
L 133.282645 286.391337 
L 137.381818 285.930051 
L 141.480992 285.87601 
L 145.580165 296.564142 
L 149.679339 307.485818 
L 153.778512 300.62432 
L 157.877686 301.394294 
L 161.97686 310.706422 
L 166.076033 315.001275 
L 170.175207 317.661524 
L 174.27438 324.164501 
L 178.373554 322.379766 
L 182.472727 315.919192 
L 186.571901 324.406287 
L 190.671074 331.208527 
L 194.770248 323.052859 
L 198.869421 334.416463 
L 202.968595 335.522368 
L 207.067769 335.982147 
L 211.166942 336.627115 
L 215.266116 338.476806 
L 219.365289 339.017802 
L 223.464463 346.794191 
L 227.563636 329.532652 
L 231.66281 333.209123 
L 235.761983 337.972856 
L 239.861157 341.906792 
L 243.960331 344.873011 
L 248.059504 342.042781 
L 252.158678 349.116881 
L 256.257851 346.712353 
L 260.357025 343.378174 
L 264.456198 345.422161 
L 268.555372 341.557749 
L 272.654545 348.738356 
L 276.753719 349.382492 
L 280.852893 342.256024 
L 284.952066 351.631712 
L 289.05124 352.163106 
L 293.150413 338.288745 
L 297.249587 349.240059 
L 301.34876 346.184691 
L 305.447934 349.282827 
L 309.547107 349.48356 
L 313.646281 344.249618 
L 317.745455 345.791846 
L 321.844628 353.298476 
L 325.943802 345.103606 
L 330.042975 352.650271 
L 334.142149 360.289023 
L 338.241322 354.020602 
L 342.340496 352.009548 
L 346.439669 352.006117 
L 350.538843 351.575988 
L 354.638017 355.152461 
L 358.73719 355.097227 
L 362.836364 353.62605 
L 366.935537 350.630051 
L 371.034711 353.455251 
L 375.133884 356.138385 
L 379.233058 354.134228 
L 383.332231 361.6442 
L 387.431405 356.825341 
L 391.530579 359.221802 
L 395.629752 361.078809 
L 399.728926 355.375933 
L 403.828099 357.684828 
L 407.927273 357.536508 
L 412.026446 354.519 
L 416.12562 350.987003 
L 420.224793 354.583427 
L 424.323967 358.561965 
L 428.42314 360.872834 
L 432.522314 358.899791 
L 436.621488 359.513948 
L 440.720661 360.57896 
L 444.819835 364.355471 
L 448.919008 369.36 
L 453.018182 356.19948 
L 457.117355 358.704642 
L 461.216529 366.820657 
L 465.315702 358.671142 
L 469.414876 354.164532 
L 473.51405 355.27224 
L 477.613223 354.461771 
L 481.712397 358.369018 
L 485.81157 360.718929 
L 489.910744 366.336912 
L 494.009917 358.66266 
L 498.109091 361.967983 
" clip-path="url(#p471de7dc19)" style="fill: none; stroke: #1f77b4; stroke-width: 1.5; stroke-linecap: square"/>
    <defs>
     <path id="m5c1dc5d7df" d="M 0 3 
C 0.795609 3 1.55874 2.683901 2.12132 2.12132 
C 2.683901 1.55874 3 0.795609 3 0 
C 3 -0.795609 2.683901 -1.55874 2.12132 -2.12132 
C 1.55874 -2.683901 0.795609 -3 0 -3 
C -0.795609 -3 -1.55874 -2.683901 -2.12132 -2.12132 
C -2.683901 -1.55874 -3 -0.795609 -3 0 
C -3 0.795609 -2.683901 1.55874 -2.12132 2.12132 
C -1.55874 2.683901 -0.795609 3 0 3 
z
" style="stroke: #1f77b4"/>
    </defs>
    <g clip-path="url(#p471de7dc19)">
     <use xlink:href="#m5c1dc5d7df" x="92.290909" y="66.96" style="fill: #1f77b4; stroke: #1f77b4"/>
     <use xlink:href="#m5c1dc5d7df" x="96.390083" y="99.891934" style="fill: #1f77b4; stroke: #1f77b4"/>
     <use xlink:href="#m5c1dc5d7df" x="100.489256" y="155.622858" style="fill: #1f77b4; stroke: #1f77b4"/>
     <use xlink:href="#m5c1dc5d7df" x="104.58843" y="194.935835" style="fill: #1f77b4; stroke: #1f77b4"/>
     <use xlink:href="#m5c1dc5d7df" x="108.687603" y="213.386526" style="fill: #1f77b4; stroke: #1f77b4"/>
     <use xlink:href="#m5c1dc5d7df" x="112.786777" y="223.23345" style="fill: #1f77b4; stroke: #1f77b4"/>
     <use xlink:href="#m5c1dc5d7df" x="116.88595" y="240.774927" style="fill: #1f77b4; stroke: #1f77b4"/>
     <use xlink:href="#m5c1dc5d7df" x="120.985124" y="246.932322" style="fill: #1f77b4; stroke: #1f77b4"/>
     <use xlink:href="#m5c1dc5d7df" x="125.084298" y="273.250292" style="fill: #1f77b4; stroke: #1f77b4"/>
     <use xlink:href="#m5c1dc5d7df" x="129.183471" y="274.041807" style="fill: #1f77b4; stroke: #1f77b4"/>
     <use xlink:href="#m5c1dc5d7df" x="133.282645" y="286.391337" style="fill: #1f77b4; stroke: #1f77b4"/>
     <use xlink:href="#m5c1dc5d7df" x="137.381818" y="285.930051" style="fill: #1f77b4; stroke: #1f77b4"/>
     <use xlink:href="#m5c1dc5d7df" x="141.480992" y="285.87601" style="fill: #1f77b4; stroke: #1f77b4"/>
     <use xlink:href="#m5c1dc5d7df" x="145.580165" y="296.564142" style="fill: #1f77b4; stroke: #1f77b4"/>
     <use xlink:href="#m5c1dc5d7df" x="149.679339" y="307.485818" style="fill: #1f77b4; stroke: #1f77b4"/>
     <use xlink:href="#m5c1dc5d7df" x="153.778512" y="300.62432" style="fill: #1f77b4; stroke: #1f77b4"/>
     <use xlink:href="#m5c1dc5d7df" x="157.877686" y="301.394294" style="fill: #1f77b4; stroke: #1f77b4"/>
     <use xlink:href="#m5c1dc5d7df" x="161.97686" y="310.706422" style="fill: #1f77b4; stroke: #1f77b4"/>
     <use xlink:href="#m5c1dc5d7df" x="166.076033" y="315.001275" style="fill: #1f77b4; stroke: #1f77b4"/>
     <use xlink:href="#m5c1dc5d7df" x="170.175207" y="317.661524" style="fill: #1f77b4; stroke: #1f77b4"/>
     <use xlink:href="#m5c1dc5d7df" x="174.27438" y="324.164501" style="fill: #1f77b4; stroke: #1f77b4"/>
     <use xlink:href="#m5c1dc5d7df" x="178.373554" y="322.379766" style="fill: #1f77b4; stroke: #1f77b4"/>
     <use xlink:href="#m5c1dc5d7df" x="182.472727" y="315.919192" style="fill: #1f77b4; stroke: #1f77b4"/>
     <use xlink:href="#m5c1dc5d7df" x="186.571901" y="324.406287" style="fill: #1f77b4; stroke: #1f77b4"/>
     <use xlink:href="#m5c1dc5d7df" x="190.671074" y="331.208527" style="fill: #1f77b4; stroke: #1f77b4"/>
     <use xlink:href="#m5c1dc5d7df" x="194.770248" y="323.052859" style="fill: #1f77b4; stroke: #1f77b4"/>
     <use xlink:href="#m5c1dc5d7df" x="198.869421" y="334.416463" style="fill: #1f77b4; stroke: #1f77b4"/>
     <use xlink:href="#m5c1dc5d7df" x="202.968595" y="335.522368" style="fill: #1f77b4; stroke: #1f77b4"/>
     <use xlink:href="#m5c1dc5d7df" x="207.067769" y="335.982147" style="fill: #1f77b4; stroke: #1f77b4"/>
     <use xlink:href="#m5c1dc5d7df" x="211.166942" y="336.627115" style="fill: #1f77b4; stroke: #1f77b4"/>
     <use xlink:href="#m5c1dc5d7df" x="215.266116" y="338.476806" style="fill: #1f77b4; stroke: #1f77b4"/>
     <use xlink:href="#m5c1dc5d7df" x="219.365289" y="339.017802" style="fill: #1f77b4; stroke: #1f77b4"/>
     <use xlink:href="#m5c1dc5d7df" x="223.464463" y="346.794191" style="fill: #1f77b4; stroke: #1f77b4"/>
     <use xlink:href="#m5c1dc5d7df" x="227.563636" y="329.532652" style="fill: #1f77b4; stroke: #1f77b4"/>
     <use xlink:href="#m5c1dc5d7df" x="231.66281" y="333.209123" style="fill: #1f77b4; stroke: #1f77b4"/>
     <use xlink:href="#m5c1dc5d7df" x="235.761983" y="337.972856" style="fill: #1f77b4; stroke: #1f77b4"/>
     <use xlink:href="#m5c1dc5d7df" x="239.861157" y="341.906792" style="fill: #1f77b4; stroke: #1f77b4"/>
     <use xlink:href="#m5c1dc5d7df" x="243.960331" y="344.873011" style="fill: #1f77b4; stroke: #1f77b4"/>
     <use xlink:href="#m5c1dc5d7df" x="248.059504" y="342.042781" style="fill: #1f77b4; stroke: #1f77b4"/>
     <use xlink:href="#m5c1dc5d7df" x="252.158678" y="349.116881" style="fill: #1f77b4; stroke: #1f77b4"/>
     <use xlink:href="#m5c1dc5d7df" x="256.257851" y="346.712353" style="fill: #1f77b4; stroke: #1f77b4"/>
     <use xlink:href="#m5c1dc5d7df" x="260.357025" y="343.378174" style="fill: #1f77b4; stroke: #1f77b4"/>
     <use xlink:href="#m5c1dc5d7df" x="264.456198" y="345.422161" style="fill: #1f77b4; stroke: #1f77b4"/>
     <use xlink:href="#m5c1dc5d7df" x="268.555372" y="341.557749" style="fill: #1f77b4; stroke: #1f77b4"/>
     <use xlink:href="#m5c1dc5d7df" x="272.654545" y="348.738356" style="fill: #1f77b4; stroke: #1f77b4"/>
     <use xlink:href="#m5c1dc5d7df" x="276.753719" y="349.382492" style="fill: #1f77b4; stroke: #1f77b4"/>
     <use xlink:href="#m5c1dc5d7df" x="280.852893" y="342.256024" style="fill: #1f77b4; stroke: #1f77b4"/>
     <use xlink:href="#m5c1dc5d7df" x="284.952066" y="351.631712" style="fill: #1f77b4; stroke: #1f77b4"/>
     <use xlink:href="#m5c1dc5d7df" x="289.05124" y="352.163106" style="fill: #1f77b4; stroke: #1f77b4"/>
     <use xlink:href="#m5c1dc5d7df" x="293.150413" y="338.288745" style="fill: #1f77b4; stroke: #1f77b4"/>
     <use xlink:href="#m5c1dc5d7df" x="297.249587" y="349.240059" style="fill: #1f77b4; stroke: #1f77b4"/>
     <use xlink:href="#m5c1dc5d7df" x="301.34876" y="346.184691" style="fill: #1f77b4; stroke: #1f77b4"/>
     <use xlink:href="#m5c1dc5d7df" x="305.447934" y="349.282827" style="fill: #1f77b4; stroke: #1f77b4"/>
     <use xlink:href="#m5c1dc5d7df" x="309.547107" y="349.48356" style="fill: #1f77b4; stroke: #1f77b4"/>
     <use xlink:href="#m5c1dc5d7df" x="313.646281" y="344.249618" style="fill: #1f77b4; stroke: #1f77b4"/>
     <use xlink:href="#m5c1dc5d7df" x="317.745455" y="345.791846" style="fill: #1f77b4; stroke: #1f77b4"/>
     <use xlink:href="#m5c1dc5d7df" x="321.844628" y="353.298476" style="fill: #1f77b4; stroke: #1f77b4"/>
     <use xlink:href="#m5c1dc5d7df" x="325.943802" y="345.103606" style="fill: #1f77b4; stroke: #1f77b4"/>
     <use xlink:href="#m5c1dc5d7df" x="330.042975" y="352.650271" style="fill: #1f77b4; stroke: #1f77b4"/>
     <use xlink:href="#m5c1dc5d7df" x="334.142149" y="360.289023" style="fill: #1f77b4; stroke: #1f77b4"/>
     <use xlink:href="#m5c1dc5d7df" x="338.241322" y="354.020602" style="fill: #1f77b4; stroke: #1f77b4"/>
     <use xlink:href="#m5c1dc5d7df" x="342.340496" y="352.009548" style="fill: #1f77b4; stroke: #1f77b4"/>
     <use xlink:href="#m5c1dc5d7df" x="346.439669" y="352.006117" style="fill: #1f77b4; stroke: #1f77b4"/>
     <use xlink:href="#m5c1dc5d7df" x="350.538843" y="351.575988" style="fill: #1f77b4; stroke: #1f77b4"/>
     <use xlink:href="#m5c1dc5d7df" x="354.638017" y="355.152461" style="fill: #1f77b4; stroke: #1f77b4"/>
     <use xlink:href="#m5c1dc5d7df" x="358.73719" y="355.097227" style="fill: #1f77b4; stroke: #1f77b4"/>
     <use xlink:href="#m5c1dc5d7df" x="362.836364" y="353.62605" style="fill: #1f77b4; stroke: #1f77b4"/>
     <use xlink:href="#m5c1dc5d7df" x="366.935537" y="350.630051" style="fill: #1f77b4; stroke: #1f77b4"/>
     <use xlink:href="#m5c1dc5d7df" x="371.034711" y="353.455251" style="fill: #1f77b4; stroke: #1f77b4"/>
     <use xlink:href="#m5c1dc5d7df" x="375.133884" y="356.138385" style="fill: #1f77b4; stroke: #1f77b4"/>
     <use xlink:href="#m5c1dc5d7df" x="379.233058" y="354.134228" style="fill: #1f77b4; stroke: #1f77b4"/>
     <use xlink:href="#m5c1dc5d7df" x="383.332231" y="361.6442" style="fill: #1f77b4; stroke: #1f77b4"/>
     <use xlink:href="#m5c1dc5d7df" x="387.431405" y="356.825341" style="fill: #1f77b4; stroke: #1f77b4"/>
     <use xlink:href="#m5c1dc5d7df" x="391.530579" y="359.221802" style="fill: #1f77b4; stroke: #1f77b4"/>
     <use xlink:href="#m5c1dc5d7df" x="395.629752" y="361.078809" style="fill: #1f77b4; stroke: #1f77b4"/>
     <use xlink:href="#m5c1dc5d7df" x="399.728926" y="355.375933" style="fill: #1f77b4; stroke: #1f77b4"/>
     <use xlink:href="#m5c1dc5d7df" x="403.828099" y="357.684828" style="fill: #1f77b4; stroke: #1f77b4"/>
     <use xlink:href="#m5c1dc5d7df" x="407.927273" y="357.536508" style="fill: #1f77b4; stroke: #1f77b4"/>
     <use xlink:href="#m5c1dc5d7df" x="412.026446" y="354.519" style="fill: #1f77b4; stroke: #1f77b4"/>
     <use xlink:href="#m5c1dc5d7df" x="416.12562" y="350.987003" style="fill: #1f77b4; stroke: #1f77b4"/>
     <use xlink:href="#m5c1dc5d7df" x="420.224793" y="354.583427" style="fill: #1f77b4; stroke: #1f77b4"/>
     <use xlink:href="#m5c1dc5d7df" x="424.323967" y="358.561965" style="fill: #1f77b4; stroke: #1f77b4"/>
     <use xlink:href="#m5c1dc5d7df" x="428.42314" y="360.872834" style="fill: #1f77b4; stroke: #1f77b4"/>
     <use xlink:href="#m5c1dc5d7df" x="432.522314" y="358.899791" style="fill: #1f77b4; stroke: #1f77b4"/>
     <use xlink:href="#m5c1dc5d7df" x="436.621488" y="359.513948" style="fill: #1f77b4; stroke: #1f77b4"/>
     <use xlink:href="#m5c1dc5d7df" x="440.720661" y="360.57896" style="fill: #1f77b4; stroke: #1f77b4"/>
     <use xlink:href="#m5c1dc5d7df" x="444.819835" y="364.355471" style="fill: #1f77b4; stroke: #1f77b4"/>
     <use xlink:href="#m5c1dc5d7df" x="448.919008" y="369.36" style="fill: #1f77b4; stroke: #1f77b4"/>
     <use xlink:href="#m5c1dc5d7df" x="453.018182" y="356.19948" style="fill: #1f77b4; stroke: #1f77b4"/>
     <use xlink:href="#m5c1dc5d7df" x="457.117355" y="358.704642" style="fill: #1f77b4; stroke: #1f77b4"/>
     <use xlink:href="#m5c1dc5d7df" x="461.216529" y="366.820657" style="fill: #1f77b4; stroke: #1f77b4"/>
     <use xlink:href="#m5c1dc5d7df" x="465.315702" y="358.671142" style="fill: #1f77b4; stroke: #1f77b4"/>
     <use xlink:href="#m5c1dc5d7df" x="469.414876" y="354.164532" style="fill: #1f77b4; stroke: #1f77b4"/>
     <use xlink:href="#m5c1dc5d7df" x="473.51405" y="355.27224" style="fill: #1f77b4; stroke: #1f77b4"/>
     <use xlink:href="#m5c1dc5d7df" x="477.613223" y="354.461771" style="fill: #1f77b4; stroke: #1f77b4"/>
     <use xlink:href="#m5c1dc5d7df" x="481.712397" y="358.369018" style="fill: #1f77b4; stroke: #1f77b4"/>
     <use xlink:href="#m5c1dc5d7df" x="485.81157" y="360.718929" style="fill: #1f77b4; stroke: #1f77b4"/>
     <use xlink:href="#m5c1dc5d7df" x="489.910744" y="366.336912" style="fill: #1f77b4; stroke: #1f77b4"/>
     <use xlink:href="#m5c1dc5d7df" x="494.009917" y="358.66266" style="fill: #1f77b4; stroke: #1f77b4"/>
     <use xlink:href="#m5c1dc5d7df" x="498.109091" y="361.967983" style="fill: #1f77b4; stroke: #1f77b4"/>
    </g>
   </g>
   <g id="patch_3">
    <path d="M 72 384.48 
L 72 51.84 
" style="fill: none; stroke: #000000; stroke-width: 0.8; stroke-linejoin: miter; stroke-linecap: square"/>
   </g>
   <g id="patch_4">
    <path d="M 518.4 384.48 
L 518.4 51.84 
" style="fill: none; stroke: #000000; stroke-width: 0.8; stroke-linejoin: miter; stroke-linecap: square"/>
   </g>
   <g id="patch_5">
    <path d="M 72 384.48 
L 518.4 384.48 
" style="fill: none; stroke: #000000; stroke-width: 0.8; stroke-linejoin: miter; stroke-linecap: square"/>
   </g>
   <g id="patch_6">
    <path d="M 72 51.84 
L 518.4 51.84 
" style="fill: none; stroke: #000000; stroke-width: 0.8; stroke-linejoin: miter; stroke-linecap: square"/>
   </g>
   <g id="text_17">
    <!-- Training Loss Over Epochs -->
    <g transform="translate(164.39375 45.84) scale(0.2 -0.2)">
     <defs>
      <path id="DejaVuSans-54" d="M -19 4666 
L 3928 4666 
L 3928 4134 
L 2272 4134 
L 2272 0 
L 1638 0 
L 1638 4134 
L -19 4134 
L -19 4666 
z
" transform="scale(0.015625)"/>
      <path id="DejaVuSans-72" d="M 2631 2963 
Q 2534 3019 2420 3045 
Q 2306 3072 2169 3072 
Q 1681 3072 1420 2755 
Q 1159 2438 1159 1844 
L 1159 0 
L 581 0 
L 581 3500 
L 1159 3500 
L 1159 2956 
Q 1341 3275 1631 3429 
Q 1922 3584 2338 3584 
Q 2397 3584 2469 3576 
Q 2541 3569 2628 3553 
L 2631 2963 
z
" transform="scale(0.015625)"/>
      <path id="DejaVuSans-61" d="M 2194 1759 
Q 1497 1759 1228 1600 
Q 959 1441 959 1056 
Q 959 750 1161 570 
Q 1363 391 1709 391 
Q 2188 391 2477 730 
Q 2766 1069 2766 1631 
L 2766 1759 
L 2194 1759 
z
M 3341 1997 
L 3341 0 
L 2766 0 
L 2766 531 
Q 2569 213 2275 61 
Q 1981 -91 1556 -91 
Q 1019 -91 701 211 
Q 384 513 384 1019 
Q 384 1609 779 1909 
Q 1175 2209 1959 2209 
L 2766 2209 
L 2766 2266 
Q 2766 2663 2505 2880 
Q 2244 3097 1772 3097 
Q 1472 3097 1187 3025 
Q 903 2953 641 2809 
L 641 3341 
Q 956 3463 1253 3523 
Q 1550 3584 1831 3584 
Q 2591 3584 2966 3190 
Q 3341 2797 3341 1997 
z
" transform="scale(0.015625)"/>
      <path id="DejaVuSans-69" d="M 603 3500 
L 1178 3500 
L 1178 0 
L 603 0 
L 603 3500 
z
M 603 4863 
L 1178 4863 
L 1178 4134 
L 603 4134 
L 603 4863 
z
" transform="scale(0.015625)"/>
      <path id="DejaVuSans-6e" d="M 3513 2113 
L 3513 0 
L 2938 0 
L 2938 2094 
Q 2938 2591 2744 2837 
Q 2550 3084 2163 3084 
Q 1697 3084 1428 2787 
Q 1159 2491 1159 1978 
L 1159 0 
L 581 0 
L 581 3500 
L 1159 3500 
L 1159 2956 
Q 1366 3272 1645 3428 
Q 1925 3584 2291 3584 
Q 2894 3584 3203 3211 
Q 3513 2838 3513 2113 
z
" transform="scale(0.015625)"/>
      <path id="DejaVuSans-67" d="M 2906 1791 
Q 2906 2416 2648 2759 
Q 2391 3103 1925 3103 
Q 1463 3103 1205 2759 
Q 947 2416 947 1791 
Q 947 1169 1205 825 
Q 1463 481 1925 481 
Q 2391 481 2648 825 
Q 2906 1169 2906 1791 
z
M 3481 434 
Q 3481 -459 3084 -895 
Q 2688 -1331 1869 -1331 
Q 1566 -1331 1297 -1286 
Q 1028 -1241 775 -1147 
L 775 -588 
Q 1028 -725 1275 -790 
Q 1522 -856 1778 -856 
Q 2344 -856 2625 -561 
Q 2906 -266 2906 331 
L 2906 616 
Q 2728 306 2450 153 
Q 2172 0 1784 0 
Q 1141 0 747 490 
Q 353 981 353 1791 
Q 353 2603 747 3093 
Q 1141 3584 1784 3584 
Q 2172 3584 2450 3431 
Q 2728 3278 2906 2969 
L 2906 3500 
L 3481 3500 
L 3481 434 
z
" transform="scale(0.015625)"/>
      <path id="DejaVuSans-20" transform="scale(0.015625)"/>
      <path id="DejaVuSans-4f" d="M 2522 4238 
Q 1834 4238 1429 3725 
Q 1025 3213 1025 2328 
Q 1025 1447 1429 934 
Q 1834 422 2522 422 
Q 3209 422 3611 934 
Q 4013 1447 4013 2328 
Q 4013 3213 3611 3725 
Q 3209 4238 2522 4238 
z
M 2522 4750 
Q 3503 4750 4090 4092 
Q 4678 3434 4678 2328 
Q 4678 1225 4090 567 
Q 3503 -91 2522 -91 
Q 1538 -91 948 565 
Q 359 1222 359 2328 
Q 359 3434 948 4092 
Q 1538 4750 2522 4750 
z
" transform="scale(0.015625)"/>
      <path id="DejaVuSans-76" d="M 191 3500 
L 800 3500 
L 1894 563 
L 2988 3500 
L 3597 3500 
L 2284 0 
L 1503 0 
L 191 3500 
z
" transform="scale(0.015625)"/>
      <path id="DejaVuSans-65" d="M 3597 1894 
L 3597 1613 
L 953 1613 
Q 991 1019 1311 708 
Q 1631 397 2203 397 
Q 2534 397 2845 478 
Q 3156 559 3463 722 
L 3463 178 
Q 3153 47 2828 -22 
Q 2503 -91 2169 -91 
Q 1331 -91 842 396 
Q 353 884 353 1716 
Q 353 2575 817 3079 
Q 1281 3584 2069 3584 
Q 2775 3584 3186 3129 
Q 3597 2675 3597 1894 
z
M 3022 2063 
Q 3016 2534 2758 2815 
Q 2500 3097 2075 3097 
Q 1594 3097 1305 2825 
Q 1016 2553 972 2059 
L 3022 2063 
z
" transform="scale(0.015625)"/>
     </defs>
     <use xlink:href="#DejaVuSans-54"/>
     <use xlink:href="#DejaVuSans-72" x="46.333984"/>
     <use xlink:href="#DejaVuSans-61" x="87.447266"/>
     <use xlink:href="#DejaVuSans-69" x="148.726562"/>
     <use xlink:href="#DejaVuSans-6e" x="176.509766"/>
     <use xlink:href="#DejaVuSans-69" x="239.888672"/>
     <use xlink:href="#DejaVuSans-6e" x="267.671875"/>
     <use xlink:href="#DejaVuSans-67" x="331.050781"/>
     <use xlink:href="#DejaVuSans-20" x="394.527344"/>
     <use xlink:href="#DejaVuSans-4c" x="426.314453"/>
     <use xlink:href="#DejaVuSans-6f" x="480.277344"/>
     <use xlink:href="#DejaVuSans-73" x="541.458984"/>
     <use xlink:href="#DejaVuSans-73" x="593.558594"/>
     <use xlink:href="#DejaVuSans-20" x="645.658203"/>
     <use xlink:href="#DejaVuSans-4f" x="677.445312"/>
     <use xlink:href="#DejaVuSans-76" x="756.15625"/>
     <use xlink:href="#DejaVuSans-65" x="815.335938"/>
     <use xlink:href="#DejaVuSans-72" x="876.859375"/>
     <use xlink:href="#DejaVuSans-20" x="917.972656"/>
     <use xlink:href="#DejaVuSans-45" x="949.759766"/>
     <use xlink:href="#DejaVuSans-70" x="1012.943359"/>
     <use xlink:href="#DejaVuSans-6f" x="1076.419922"/>
     <use xlink:href="#DejaVuSans-63" x="1137.601562"/>
     <use xlink:href="#DejaVuSans-68" x="1192.582031"/>
     <use xlink:href="#DejaVuSans-73" x="1255.960938"/>
    </g>
   </g>
  </g>
 </g>
 <defs>
  <clipPath id="p471de7dc19">
   <rect x="72" y="51.84" width="446.4" height="332.64"/>
  </clipPath>
 </defs>
</svg>
