<?xml version="1.0" encoding="utf-8" standalone="no"?>
<!DOCTYPE svg PUBLIC "-//W3C//DTD SVG 1.1//EN"
  "http://www.w3.org/Graphics/SVG/1.1/DTD/svg11.dtd">
<svg xmlns:xlink="http://www.w3.org/1999/xlink" width="576pt" height="432pt" viewBox="0 0 576 432" xmlns="http://www.w3.org/2000/svg" version="1.1">
 <metadata>
  <rdf:RDF xmlns:dc="http://purl.org/dc/elements/1.1/" xmlns:cc="http://creativecommons.org/ns#" xmlns:rdf="http://www.w3.org/1999/02/22-rdf-syntax-ns#">
   <cc:Work>
    <dc:type rdf:resource="http://purl.org/dc/dcmitype/StillImage"/>
    <dc:date>2025-01-09T18:30:06.531207</dc:date>
    <dc:format>image/svg+xml</dc:format>
    <dc:creator>
     <cc:Agent>
      <dc:title>Matplotlib v3.9.2, https://matplotlib.org/</dc:title>
     </cc:Agent>
    </dc:creator>
   </cc:Work>
  </rdf:RDF>
 </metadata>
 <defs>
  <style type="text/css">*{stroke-linejoin: round; stroke-linecap: butt}</style>
 </defs>
 <g id="figure_1">
  <g id="patch_1">
   <path d="M 0 432 
L 576 432 
L 576 0 
L 0 0 
z
" style="fill: #ffffff"/>
  </g>
  <g id="axes_1">
   <g id="patch_2">
    <path d="M 72 384.48 
L 518.4 384.48 
L 518.4 51.84 
L 72 51.84 
z
" style="fill: #ffffff"/>
   </g>
   <g id="matplotlib.axis_1">
    <g id="xtick_1">
     <g id="line2d_1">
      <path d="M 88.191736 384.48 
L 88.191736 51.84 
" clip-path="url(#p35d58e1be0)" style="fill: none; stroke: #b0b0b0; stroke-width: 0.8; stroke-linecap: square"/>
     </g>
     <g id="line2d_2">
      <defs>
       <path id="m39e5dc480e" d="M 0 0 
L 0 3.5 
" style="stroke: #000000; stroke-width: 0.8"/>
      </defs>
      <g>
       <use xlink:href="#m39e5dc480e" x="88.191736" y="384.48" style="stroke: #000000; stroke-width: 0.8"/>
      </g>
     </g>
     <g id="text_1">
      <!-- 0 -->
      <g transform="translate(85.010486 399.078438) scale(0.1 -0.1)">
       <defs>
        <path id="DejaVuSans-30" d="M 2034 4250 
Q 1547 4250 1301 3770 
Q 1056 3291 1056 2328 
Q 1056 1369 1301 889 
Q 1547 409 2034 409 
Q 2525 409 2770 889 
Q 3016 1369 3016 2328 
Q 3016 3291 2770 3770 
Q 2525 4250 2034 4250 
z
M 2034 4750 
Q 2819 4750 3233 4129 
Q 3647 3509 3647 2328 
Q 3647 1150 3233 529 
Q 2819 -91 2034 -91 
Q 1250 -91 836 529 
Q 422 1150 422 2328 
Q 422 3509 836 4129 
Q 1250 4750 2034 4750 
z
" transform="scale(0.015625)"/>
       </defs>
       <use xlink:href="#DejaVuSans-30"/>
      </g>
     </g>
    </g>
    <g id="xtick_2">
     <g id="line2d_3">
      <path d="M 170.175207 384.48 
L 170.175207 51.84 
" clip-path="url(#p35d58e1be0)" style="fill: none; stroke: #b0b0b0; stroke-width: 0.8; stroke-linecap: square"/>
     </g>
     <g id="line2d_4">
      <g>
       <use xlink:href="#m39e5dc480e" x="170.175207" y="384.48" style="stroke: #000000; stroke-width: 0.8"/>
      </g>
     </g>
     <g id="text_2">
      <!-- 20 -->
      <g transform="translate(163.812707 399.078438) scale(0.1 -0.1)">
       <defs>
        <path id="DejaVuSans-32" d="M 1228 531 
L 3431 531 
L 3431 0 
L 469 0 
L 469 531 
Q 828 903 1448 1529 
Q 2069 2156 2228 2338 
Q 2531 2678 2651 2914 
Q 2772 3150 2772 3378 
Q 2772 3750 2511 3984 
Q 2250 4219 1831 4219 
Q 1534 4219 1204 4116 
Q 875 4013 500 3803 
L 500 4441 
Q 881 4594 1212 4672 
Q 1544 4750 1819 4750 
Q 2544 4750 2975 4387 
Q 3406 4025 3406 3419 
Q 3406 3131 3298 2873 
Q 3191 2616 2906 2266 
Q 2828 2175 2409 1742 
Q 1991 1309 1228 531 
z
" transform="scale(0.015625)"/>
       </defs>
       <use xlink:href="#DejaVuSans-32"/>
       <use xlink:href="#DejaVuSans-30" x="63.623047"/>
      </g>
     </g>
    </g>
    <g id="xtick_3">
     <g id="line2d_5">
      <path d="M 252.158678 384.48 
L 252.158678 51.84 
" clip-path="url(#p35d58e1be0)" style="fill: none; stroke: #b0b0b0; stroke-width: 0.8; stroke-linecap: square"/>
     </g>
     <g id="line2d_6">
      <g>
       <use xlink:href="#m39e5dc480e" x="252.158678" y="384.48" style="stroke: #000000; stroke-width: 0.8"/>
      </g>
     </g>
     <g id="text_3">
      <!-- 40 -->
      <g transform="translate(245.796178 399.078438) scale(0.1 -0.1)">
       <defs>
        <path id="DejaVuSans-34" d="M 2419 4116 
L 825 1625 
L 2419 1625 
L 2419 4116 
z
M 2253 4666 
L 3047 4666 
L 3047 1625 
L 3713 1625 
L 3713 1100 
L 3047 1100 
L 3047 0 
L 2419 0 
L 2419 1100 
L 313 1100 
L 313 1709 
L 2253 4666 
z
" transform="scale(0.015625)"/>
       </defs>
       <use xlink:href="#DejaVuSans-34"/>
       <use xlink:href="#DejaVuSans-30" x="63.623047"/>
      </g>
     </g>
    </g>
    <g id="xtick_4">
     <g id="line2d_7">
      <path d="M 334.142149 384.48 
L 334.142149 51.84 
" clip-path="url(#p35d58e1be0)" style="fill: none; stroke: #b0b0b0; stroke-width: 0.8; stroke-linecap: square"/>
     </g>
     <g id="line2d_8">
      <g>
       <use xlink:href="#m39e5dc480e" x="334.142149" y="384.48" style="stroke: #000000; stroke-width: 0.8"/>
      </g>
     </g>
     <g id="text_4">
      <!-- 60 -->
      <g transform="translate(327.779649 399.078438) scale(0.1 -0.1)">
       <defs>
        <path id="DejaVuSans-36" d="M 2113 2584 
Q 1688 2584 1439 2293 
Q 1191 2003 1191 1497 
Q 1191 994 1439 701 
Q 1688 409 2113 409 
Q 2538 409 2786 701 
Q 3034 994 3034 1497 
Q 3034 2003 2786 2293 
Q 2538 2584 2113 2584 
z
M 3366 4563 
L 3366 3988 
Q 3128 4100 2886 4159 
Q 2644 4219 2406 4219 
Q 1781 4219 1451 3797 
Q 1122 3375 1075 2522 
Q 1259 2794 1537 2939 
Q 1816 3084 2150 3084 
Q 2853 3084 3261 2657 
Q 3669 2231 3669 1497 
Q 3669 778 3244 343 
Q 2819 -91 2113 -91 
Q 1303 -91 875 529 
Q 447 1150 447 2328 
Q 447 3434 972 4092 
Q 1497 4750 2381 4750 
Q 2619 4750 2861 4703 
Q 3103 4656 3366 4563 
z
" transform="scale(0.015625)"/>
       </defs>
       <use xlink:href="#DejaVuSans-36"/>
       <use xlink:href="#DejaVuSans-30" x="63.623047"/>
      </g>
     </g>
    </g>
    <g id="xtick_5">
     <g id="line2d_9">
      <path d="M 416.12562 384.48 
L 416.12562 51.84 
" clip-path="url(#p35d58e1be0)" style="fill: none; stroke: #b0b0b0; stroke-width: 0.8; stroke-linecap: square"/>
     </g>
     <g id="line2d_10">
      <g>
       <use xlink:href="#m39e5dc480e" x="416.12562" y="384.48" style="stroke: #000000; stroke-width: 0.8"/>
      </g>
     </g>
     <g id="text_5">
      <!-- 80 -->
      <g transform="translate(409.76312 399.078438) scale(0.1 -0.1)">
       <defs>
        <path id="DejaVuSans-38" d="M 2034 2216 
Q 1584 2216 1326 1975 
Q 1069 1734 1069 1313 
Q 1069 891 1326 650 
Q 1584 409 2034 409 
Q 2484 409 2743 651 
Q 3003 894 3003 1313 
Q 3003 1734 2745 1975 
Q 2488 2216 2034 2216 
z
M 1403 2484 
Q 997 2584 770 2862 
Q 544 3141 544 3541 
Q 544 4100 942 4425 
Q 1341 4750 2034 4750 
Q 2731 4750 3128 4425 
Q 3525 4100 3525 3541 
Q 3525 3141 3298 2862 
Q 3072 2584 2669 2484 
Q 3125 2378 3379 2068 
Q 3634 1759 3634 1313 
Q 3634 634 3220 271 
Q 2806 -91 2034 -91 
Q 1263 -91 848 271 
Q 434 634 434 1313 
Q 434 1759 690 2068 
Q 947 2378 1403 2484 
z
M 1172 3481 
Q 1172 3119 1398 2916 
Q 1625 2713 2034 2713 
Q 2441 2713 2670 2916 
Q 2900 3119 2900 3481 
Q 2900 3844 2670 4047 
Q 2441 4250 2034 4250 
Q 1625 4250 1398 4047 
Q 1172 3844 1172 3481 
z
" transform="scale(0.015625)"/>
       </defs>
       <use xlink:href="#DejaVuSans-38"/>
       <use xlink:href="#DejaVuSans-30" x="63.623047"/>
      </g>
     </g>
    </g>
    <g id="xtick_6">
     <g id="line2d_11">
      <path d="M 498.109091 384.48 
L 498.109091 51.84 
" clip-path="url(#p35d58e1be0)" style="fill: none; stroke: #b0b0b0; stroke-width: 0.8; stroke-linecap: square"/>
     </g>
     <g id="line2d_12">
      <g>
       <use xlink:href="#m39e5dc480e" x="498.109091" y="384.48" style="stroke: #000000; stroke-width: 0.8"/>
      </g>
     </g>
     <g id="text_6">
      <!-- 100 -->
      <g transform="translate(488.565341 399.078438) scale(0.1 -0.1)">
       <defs>
        <path id="DejaVuSans-31" d="M 794 531 
L 1825 531 
L 1825 4091 
L 703 3866 
L 703 4441 
L 1819 4666 
L 2450 4666 
L 2450 531 
L 3481 531 
L 3481 0 
L 794 0 
L 794 531 
z
" transform="scale(0.015625)"/>
       </defs>
       <use xlink:href="#DejaVuSans-31"/>
       <use xlink:href="#DejaVuSans-30" x="63.623047"/>
       <use xlink:href="#DejaVuSans-30" x="127.246094"/>
      </g>
     </g>
    </g>
    <g id="text_7">
     <!-- Epochs -->
     <g transform="translate(277.284375 412.756563) scale(0.1 -0.1)">
      <defs>
       <path id="DejaVuSans-45" d="M 628 4666 
L 3578 4666 
L 3578 4134 
L 1259 4134 
L 1259 2753 
L 3481 2753 
L 3481 2222 
L 1259 2222 
L 1259 531 
L 3634 531 
L 3634 0 
L 628 0 
L 628 4666 
z
" transform="scale(0.015625)"/>
       <path id="DejaVuSans-70" d="M 1159 525 
L 1159 -1331 
L 581 -1331 
L 581 3500 
L 1159 3500 
L 1159 2969 
Q 1341 3281 1617 3432 
Q 1894 3584 2278 3584 
Q 2916 3584 3314 3078 
Q 3713 2572 3713 1747 
Q 3713 922 3314 415 
Q 2916 -91 2278 -91 
Q 1894 -91 1617 61 
Q 1341 213 1159 525 
z
M 3116 1747 
Q 3116 2381 2855 2742 
Q 2594 3103 2138 3103 
Q 1681 3103 1420 2742 
Q 1159 2381 1159 1747 
Q 1159 1113 1420 752 
Q 1681 391 2138 391 
Q 2594 391 2855 752 
Q 3116 1113 3116 1747 
z
" transform="scale(0.015625)"/>
       <path id="DejaVuSans-6f" d="M 1959 3097 
Q 1497 3097 1228 2736 
Q 959 2375 959 1747 
Q 959 1119 1226 758 
Q 1494 397 1959 397 
Q 2419 397 2687 759 
Q 2956 1122 2956 1747 
Q 2956 2369 2687 2733 
Q 2419 3097 1959 3097 
z
M 1959 3584 
Q 2709 3584 3137 3096 
Q 3566 2609 3566 1747 
Q 3566 888 3137 398 
Q 2709 -91 1959 -91 
Q 1206 -91 779 398 
Q 353 888 353 1747 
Q 353 2609 779 3096 
Q 1206 3584 1959 3584 
z
" transform="scale(0.015625)"/>
       <path id="DejaVuSans-63" d="M 3122 3366 
L 3122 2828 
Q 2878 2963 2633 3030 
Q 2388 3097 2138 3097 
Q 1578 3097 1268 2742 
Q 959 2388 959 1747 
Q 959 1106 1268 751 
Q 1578 397 2138 397 
Q 2388 397 2633 464 
Q 2878 531 3122 666 
L 3122 134 
Q 2881 22 2623 -34 
Q 2366 -91 2075 -91 
Q 1284 -91 818 406 
Q 353 903 353 1747 
Q 353 2603 823 3093 
Q 1294 3584 2113 3584 
Q 2378 3584 2631 3529 
Q 2884 3475 3122 3366 
z
" transform="scale(0.015625)"/>
       <path id="DejaVuSans-68" d="M 3513 2113 
L 3513 0 
L 2938 0 
L 2938 2094 
Q 2938 2591 2744 2837 
Q 2550 3084 2163 3084 
Q 1697 3084 1428 2787 
Q 1159 2491 1159 1978 
L 1159 0 
L 581 0 
L 581 4863 
L 1159 4863 
L 1159 2956 
Q 1366 3272 1645 3428 
Q 1925 3584 2291 3584 
Q 2894 3584 3203 3211 
Q 3513 2838 3513 2113 
z
" transform="scale(0.015625)"/>
       <path id="DejaVuSans-73" d="M 2834 3397 
L 2834 2853 
Q 2591 2978 2328 3040 
Q 2066 3103 1784 3103 
Q 1356 3103 1142 2972 
Q 928 2841 928 2578 
Q 928 2378 1081 2264 
Q 1234 2150 1697 2047 
L 1894 2003 
Q 2506 1872 2764 1633 
Q 3022 1394 3022 966 
Q 3022 478 2636 193 
Q 2250 -91 1575 -91 
Q 1294 -91 989 -36 
Q 684 19 347 128 
L 347 722 
Q 666 556 975 473 
Q 1284 391 1588 391 
Q 1994 391 2212 530 
Q 2431 669 2431 922 
Q 2431 1156 2273 1281 
Q 2116 1406 1581 1522 
L 1381 1569 
Q 847 1681 609 1914 
Q 372 2147 372 2553 
Q 372 3047 722 3315 
Q 1072 3584 1716 3584 
Q 2034 3584 2315 3537 
Q 2597 3491 2834 3397 
z
" transform="scale(0.015625)"/>
      </defs>
      <use xlink:href="#DejaVuSans-45"/>
      <use xlink:href="#DejaVuSans-70" x="63.183594"/>
      <use xlink:href="#DejaVuSans-6f" x="126.660156"/>
      <use xlink:href="#DejaVuSans-63" x="187.841797"/>
      <use xlink:href="#DejaVuSans-68" x="242.822266"/>
      <use xlink:href="#DejaVuSans-73" x="306.201172"/>
     </g>
    </g>
   </g>
   <g id="matplotlib.axis_2">
    <g id="ytick_1">
     <g id="line2d_13">
      <path d="M 72 344.873735 
L 518.4 344.873735 
" clip-path="url(#p35d58e1be0)" style="fill: none; stroke: #b0b0b0; stroke-width: 0.8; stroke-linecap: square"/>
     </g>
     <g id="line2d_14">
      <defs>
       <path id="mb7a58d0bc5" d="M 0 0 
L -3.5 0 
" style="stroke: #000000; stroke-width: 0.8"/>
      </defs>
      <g>
       <use xlink:href="#mb7a58d0bc5" x="72" y="344.873735" style="stroke: #000000; stroke-width: 0.8"/>
      </g>
     </g>
     <g id="text_8">
      <!-- 0.006 -->
      <g transform="translate(36.371875 348.672954) scale(0.1 -0.1)">
       <defs>
        <path id="DejaVuSans-2e" d="M 684 794 
L 1344 794 
L 1344 0 
L 684 0 
L 684 794 
z
" transform="scale(0.015625)"/>
       </defs>
       <use xlink:href="#DejaVuSans-30"/>
       <use xlink:href="#DejaVuSans-2e" x="63.623047"/>
       <use xlink:href="#DejaVuSans-30" x="95.410156"/>
       <use xlink:href="#DejaVuSans-30" x="159.033203"/>
       <use xlink:href="#DejaVuSans-36" x="222.65625"/>
      </g>
     </g>
    </g>
    <g id="ytick_2">
     <g id="line2d_15">
      <path d="M 72 290.473333 
L 518.4 290.473333 
" clip-path="url(#p35d58e1be0)" style="fill: none; stroke: #b0b0b0; stroke-width: 0.8; stroke-linecap: square"/>
     </g>
     <g id="line2d_16">
      <g>
       <use xlink:href="#mb7a58d0bc5" x="72" y="290.473333" style="stroke: #000000; stroke-width: 0.8"/>
      </g>
     </g>
     <g id="text_9">
      <!-- 0.008 -->
      <g transform="translate(36.371875 294.272552) scale(0.1 -0.1)">
       <use xlink:href="#DejaVuSans-30"/>
       <use xlink:href="#DejaVuSans-2e" x="63.623047"/>
       <use xlink:href="#DejaVuSans-30" x="95.410156"/>
       <use xlink:href="#DejaVuSans-30" x="159.033203"/>
       <use xlink:href="#DejaVuSans-38" x="222.65625"/>
      </g>
     </g>
    </g>
    <g id="ytick_3">
     <g id="line2d_17">
      <path d="M 72 236.072931 
L 518.4 236.072931 
" clip-path="url(#p35d58e1be0)" style="fill: none; stroke: #b0b0b0; stroke-width: 0.8; stroke-linecap: square"/>
     </g>
     <g id="line2d_18">
      <g>
       <use xlink:href="#mb7a58d0bc5" x="72" y="236.072931" style="stroke: #000000; stroke-width: 0.8"/>
      </g>
     </g>
     <g id="text_10">
      <!-- 0.010 -->
      <g transform="translate(36.371875 239.87215) scale(0.1 -0.1)">
       <use xlink:href="#DejaVuSans-30"/>
       <use xlink:href="#DejaVuSans-2e" x="63.623047"/>
       <use xlink:href="#DejaVuSans-30" x="95.410156"/>
       <use xlink:href="#DejaVuSans-31" x="159.033203"/>
       <use xlink:href="#DejaVuSans-30" x="222.65625"/>
      </g>
     </g>
    </g>
    <g id="ytick_4">
     <g id="line2d_19">
      <path d="M 72 181.672529 
L 518.4 181.672529 
" clip-path="url(#p35d58e1be0)" style="fill: none; stroke: #b0b0b0; stroke-width: 0.8; stroke-linecap: square"/>
     </g>
     <g id="line2d_20">
      <g>
       <use xlink:href="#mb7a58d0bc5" x="72" y="181.672529" style="stroke: #000000; stroke-width: 0.8"/>
      </g>
     </g>
     <g id="text_11">
      <!-- 0.012 -->
      <g transform="translate(36.371875 185.471748) scale(0.1 -0.1)">
       <use xlink:href="#DejaVuSans-30"/>
       <use xlink:href="#DejaVuSans-2e" x="63.623047"/>
       <use xlink:href="#DejaVuSans-30" x="95.410156"/>
       <use xlink:href="#DejaVuSans-31" x="159.033203"/>
       <use xlink:href="#DejaVuSans-32" x="222.65625"/>
      </g>
     </g>
    </g>
    <g id="ytick_5">
     <g id="line2d_21">
      <path d="M 72 127.272127 
L 518.4 127.272127 
" clip-path="url(#p35d58e1be0)" style="fill: none; stroke: #b0b0b0; stroke-width: 0.8; stroke-linecap: square"/>
     </g>
     <g id="line2d_22">
      <g>
       <use xlink:href="#mb7a58d0bc5" x="72" y="127.272127" style="stroke: #000000; stroke-width: 0.8"/>
      </g>
     </g>
     <g id="text_12">
      <!-- 0.014 -->
      <g transform="translate(36.371875 131.071346) scale(0.1 -0.1)">
       <use xlink:href="#DejaVuSans-30"/>
       <use xlink:href="#DejaVuSans-2e" x="63.623047"/>
       <use xlink:href="#DejaVuSans-30" x="95.410156"/>
       <use xlink:href="#DejaVuSans-31" x="159.033203"/>
       <use xlink:href="#DejaVuSans-34" x="222.65625"/>
      </g>
     </g>
    </g>
    <g id="ytick_6">
     <g id="line2d_23">
      <path d="M 72 72.871725 
L 518.4 72.871725 
" clip-path="url(#p35d58e1be0)" style="fill: none; stroke: #b0b0b0; stroke-width: 0.8; stroke-linecap: square"/>
     </g>
     <g id="line2d_24">
      <g>
       <use xlink:href="#mb7a58d0bc5" x="72" y="72.871725" style="stroke: #000000; stroke-width: 0.8"/>
      </g>
     </g>
     <g id="text_13">
      <!-- 0.016 -->
      <g transform="translate(36.371875 76.670944) scale(0.1 -0.1)">
       <use xlink:href="#DejaVuSans-30"/>
       <use xlink:href="#DejaVuSans-2e" x="63.623047"/>
       <use xlink:href="#DejaVuSans-30" x="95.410156"/>
       <use xlink:href="#DejaVuSans-31" x="159.033203"/>
       <use xlink:href="#DejaVuSans-36" x="222.65625"/>
      </g>
     </g>
    </g>
    <g id="text_14">
     <!-- Loss -->
     <g transform="translate(30.292188 229.127187) rotate(-90) scale(0.1 -0.1)">
      <defs>
       <path id="DejaVuSans-4c" d="M 628 4666 
L 1259 4666 
L 1259 531 
L 3531 531 
L 3531 0 
L 628 0 
L 628 4666 
z
" transform="scale(0.015625)"/>
      </defs>
      <use xlink:href="#DejaVuSans-4c"/>
      <use xlink:href="#DejaVuSans-6f" x="53.962891"/>
      <use xlink:href="#DejaVuSans-73" x="115.144531"/>
      <use xlink:href="#DejaVuSans-73" x="167.244141"/>
     </g>
    </g>
   </g>
   <g id="line2d_25">
    <path d="M 92.290909 66.96 
L 96.390083 153.159983 
L 100.489256 190.278102 
L 104.58843 221.723459 
L 108.687603 234.774974 
L 112.786777 250.79344 
L 116.88595 264.702653 
L 120.985124 273.818291 
L 125.084298 277.082674 
L 129.183471 283.51217 
L 133.282645 296.127979 
L 137.381818 304.083093 
L 141.480992 292.159165 
L 145.580165 303.83201 
L 149.679339 307.137484 
L 153.778512 313.238952 
L 157.877686 316.050867 
L 161.97686 328.027078 
L 166.076033 322.571924 
L 170.175207 322.556797 
L 174.27438 332.445518 
L 178.373554 324.189022 
L 182.472727 332.343425 
L 186.571901 333.706918 
L 190.671074 331.632047 
L 194.770248 335.666628 
L 198.869421 333.376159 
L 202.968595 338.125714 
L 207.067769 331.405674 
L 211.166942 340.029879 
L 215.266116 343.682506 
L 219.365289 342.8476 
L 223.464463 334.96551 
L 227.563636 346.826579 
L 231.66281 346.228174 
L 235.761983 340.344556 
L 239.861157 348.549831 
L 243.960331 348.480095 
L 248.059504 340.533058 
L 252.158678 345.698092 
L 256.257851 349.809576 
L 260.357025 349.168994 
L 264.456198 348.013858 
L 268.555372 347.787136 
L 272.654545 351.246007 
L 276.753719 359.685195 
L 280.852893 354.703727 
L 284.952066 356.625024 
L 289.05124 350.222776 
L 293.150413 357.297295 
L 297.249587 352.213335 
L 301.34876 359.817317 
L 305.447934 354.127485 
L 309.547107 348.551971 
L 313.646281 356.726085 
L 317.745455 356.712505 
L 321.844628 353.714846 
L 325.943802 360.606512 
L 330.042975 362.009734 
L 334.142149 359.884363 
L 338.241322 357.752657 
L 342.340496 344.67817 
L 346.439669 360.966719 
L 350.538843 360.576058 
L 354.638017 357.98171 
L 358.73719 362.199445 
L 362.836364 369.36 
L 366.935537 363.025398 
L 371.034711 357.05978 
L 375.133884 364.427041 
L 379.233058 362.373187 
L 383.332231 358.688816 
L 387.431405 361.819746 
L 391.530579 362.722467 
L 395.629752 358.692651 
L 399.728926 360.605114 
L 403.828099 350.620164 
L 407.927273 360.044407 
L 412.026446 367.119429 
L 416.12562 354.334987 
L 420.224793 361.856924 
L 424.323967 364.850142 
L 428.42314 352.804013 
L 432.522314 360.467311 
L 436.621488 360.081162 
L 440.720661 363.979402 
L 444.819835 366.479752 
L 448.919008 364.650111 
L 453.018182 366.21333 
L 457.117355 364.155044 
L 461.216529 363.894431 
L 465.315702 367.358153 
L 469.414876 369.356294 
L 473.51405 359.292947 
L 477.613223 364.128461 
L 481.712397 363.11653 
L 485.81157 365.388704 
L 489.910744 360.925994 
L 494.009917 364.862328 
L 498.109091 369.346344 
" clip-path="url(#p35d58e1be0)" style="fill: none; stroke: #1f77b4; stroke-width: 1.5; stroke-linecap: square"/>
    <defs>
     <path id="m1fee575c97" d="M 0 3 
C 0.795609 3 1.55874 2.683901 2.12132 2.12132 
C 2.683901 1.55874 3 0.795609 3 0 
C 3 -0.795609 2.683901 -1.55874 2.12132 -2.12132 
C 1.55874 -2.683901 0.795609 -3 0 -3 
C -0.795609 -3 -1.55874 -2.683901 -2.12132 -2.12132 
C -2.683901 -1.55874 -3 -0.795609 -3 0 
C -3 0.795609 -2.683901 1.55874 -2.12132 2.12132 
C -1.55874 2.683901 -0.795609 3 0 3 
z
" style="stroke: #1f77b4"/>
    </defs>
    <g clip-path="url(#p35d58e1be0)">
     <use xlink:href="#m1fee575c97" x="92.290909" y="66.96" style="fill: #1f77b4; stroke: #1f77b4"/>
     <use xlink:href="#m1fee575c97" x="96.390083" y="153.159983" style="fill: #1f77b4; stroke: #1f77b4"/>
     <use xlink:href="#m1fee575c97" x="100.489256" y="190.278102" style="fill: #1f77b4; stroke: #1f77b4"/>
     <use xlink:href="#m1fee575c97" x="104.58843" y="221.723459" style="fill: #1f77b4; stroke: #1f77b4"/>
     <use xlink:href="#m1fee575c97" x="108.687603" y="234.774974" style="fill: #1f77b4; stroke: #1f77b4"/>
     <use xlink:href="#m1fee575c97" x="112.786777" y="250.79344" style="fill: #1f77b4; stroke: #1f77b4"/>
     <use xlink:href="#m1fee575c97" x="116.88595" y="264.702653" style="fill: #1f77b4; stroke: #1f77b4"/>
     <use xlink:href="#m1fee575c97" x="120.985124" y="273.818291" style="fill: #1f77b4; stroke: #1f77b4"/>
     <use xlink:href="#m1fee575c97" x="125.084298" y="277.082674" style="fill: #1f77b4; stroke: #1f77b4"/>
     <use xlink:href="#m1fee575c97" x="129.183471" y="283.51217" style="fill: #1f77b4; stroke: #1f77b4"/>
     <use xlink:href="#m1fee575c97" x="133.282645" y="296.127979" style="fill: #1f77b4; stroke: #1f77b4"/>
     <use xlink:href="#m1fee575c97" x="137.381818" y="304.083093" style="fill: #1f77b4; stroke: #1f77b4"/>
     <use xlink:href="#m1fee575c97" x="141.480992" y="292.159165" style="fill: #1f77b4; stroke: #1f77b4"/>
     <use xlink:href="#m1fee575c97" x="145.580165" y="303.83201" style="fill: #1f77b4; stroke: #1f77b4"/>
     <use xlink:href="#m1fee575c97" x="149.679339" y="307.137484" style="fill: #1f77b4; stroke: #1f77b4"/>
     <use xlink:href="#m1fee575c97" x="153.778512" y="313.238952" style="fill: #1f77b4; stroke: #1f77b4"/>
     <use xlink:href="#m1fee575c97" x="157.877686" y="316.050867" style="fill: #1f77b4; stroke: #1f77b4"/>
     <use xlink:href="#m1fee575c97" x="161.97686" y="328.027078" style="fill: #1f77b4; stroke: #1f77b4"/>
     <use xlink:href="#m1fee575c97" x="166.076033" y="322.571924" style="fill: #1f77b4; stroke: #1f77b4"/>
     <use xlink:href="#m1fee575c97" x="170.175207" y="322.556797" style="fill: #1f77b4; stroke: #1f77b4"/>
     <use xlink:href="#m1fee575c97" x="174.27438" y="332.445518" style="fill: #1f77b4; stroke: #1f77b4"/>
     <use xlink:href="#m1fee575c97" x="178.373554" y="324.189022" style="fill: #1f77b4; stroke: #1f77b4"/>
     <use xlink:href="#m1fee575c97" x="182.472727" y="332.343425" style="fill: #1f77b4; stroke: #1f77b4"/>
     <use xlink:href="#m1fee575c97" x="186.571901" y="333.706918" style="fill: #1f77b4; stroke: #1f77b4"/>
     <use xlink:href="#m1fee575c97" x="190.671074" y="331.632047" style="fill: #1f77b4; stroke: #1f77b4"/>
     <use xlink:href="#m1fee575c97" x="194.770248" y="335.666628" style="fill: #1f77b4; stroke: #1f77b4"/>
     <use xlink:href="#m1fee575c97" x="198.869421" y="333.376159" style="fill: #1f77b4; stroke: #1f77b4"/>
     <use xlink:href="#m1fee575c97" x="202.968595" y="338.125714" style="fill: #1f77b4; stroke: #1f77b4"/>
     <use xlink:href="#m1fee575c97" x="207.067769" y="331.405674" style="fill: #1f77b4; stroke: #1f77b4"/>
     <use xlink:href="#m1fee575c97" x="211.166942" y="340.029879" style="fill: #1f77b4; stroke: #1f77b4"/>
     <use xlink:href="#m1fee575c97" x="215.266116" y="343.682506" style="fill: #1f77b4; stroke: #1f77b4"/>
     <use xlink:href="#m1fee575c97" x="219.365289" y="342.8476" style="fill: #1f77b4; stroke: #1f77b4"/>
     <use xlink:href="#m1fee575c97" x="223.464463" y="334.96551" style="fill: #1f77b4; stroke: #1f77b4"/>
     <use xlink:href="#m1fee575c97" x="227.563636" y="346.826579" style="fill: #1f77b4; stroke: #1f77b4"/>
     <use xlink:href="#m1fee575c97" x="231.66281" y="346.228174" style="fill: #1f77b4; stroke: #1f77b4"/>
     <use xlink:href="#m1fee575c97" x="235.761983" y="340.344556" style="fill: #1f77b4; stroke: #1f77b4"/>
     <use xlink:href="#m1fee575c97" x="239.861157" y="348.549831" style="fill: #1f77b4; stroke: #1f77b4"/>
     <use xlink:href="#m1fee575c97" x="243.960331" y="348.480095" style="fill: #1f77b4; stroke: #1f77b4"/>
     <use xlink:href="#m1fee575c97" x="248.059504" y="340.533058" style="fill: #1f77b4; stroke: #1f77b4"/>
     <use xlink:href="#m1fee575c97" x="252.158678" y="345.698092" style="fill: #1f77b4; stroke: #1f77b4"/>
     <use xlink:href="#m1fee575c97" x="256.257851" y="349.809576" style="fill: #1f77b4; stroke: #1f77b4"/>
     <use xlink:href="#m1fee575c97" x="260.357025" y="349.168994" style="fill: #1f77b4; stroke: #1f77b4"/>
     <use xlink:href="#m1fee575c97" x="264.456198" y="348.013858" style="fill: #1f77b4; stroke: #1f77b4"/>
     <use xlink:href="#m1fee575c97" x="268.555372" y="347.787136" style="fill: #1f77b4; stroke: #1f77b4"/>
     <use xlink:href="#m1fee575c97" x="272.654545" y="351.246007" style="fill: #1f77b4; stroke: #1f77b4"/>
     <use xlink:href="#m1fee575c97" x="276.753719" y="359.685195" style="fill: #1f77b4; stroke: #1f77b4"/>
     <use xlink:href="#m1fee575c97" x="280.852893" y="354.703727" style="fill: #1f77b4; stroke: #1f77b4"/>
     <use xlink:href="#m1fee575c97" x="284.952066" y="356.625024" style="fill: #1f77b4; stroke: #1f77b4"/>
     <use xlink:href="#m1fee575c97" x="289.05124" y="350.222776" style="fill: #1f77b4; stroke: #1f77b4"/>
     <use xlink:href="#m1fee575c97" x="293.150413" y="357.297295" style="fill: #1f77b4; stroke: #1f77b4"/>
     <use xlink:href="#m1fee575c97" x="297.249587" y="352.213335" style="fill: #1f77b4; stroke: #1f77b4"/>
     <use xlink:href="#m1fee575c97" x="301.34876" y="359.817317" style="fill: #1f77b4; stroke: #1f77b4"/>
     <use xlink:href="#m1fee575c97" x="305.447934" y="354.127485" style="fill: #1f77b4; stroke: #1f77b4"/>
     <use xlink:href="#m1fee575c97" x="309.547107" y="348.551971" style="fill: #1f77b4; stroke: #1f77b4"/>
     <use xlink:href="#m1fee575c97" x="313.646281" y="356.726085" style="fill: #1f77b4; stroke: #1f77b4"/>
     <use xlink:href="#m1fee575c97" x="317.745455" y="356.712505" style="fill: #1f77b4; stroke: #1f77b4"/>
     <use xlink:href="#m1fee575c97" x="321.844628" y="353.714846" style="fill: #1f77b4; stroke: #1f77b4"/>
     <use xlink:href="#m1fee575c97" x="325.943802" y="360.606512" style="fill: #1f77b4; stroke: #1f77b4"/>
     <use xlink:href="#m1fee575c97" x="330.042975" y="362.009734" style="fill: #1f77b4; stroke: #1f77b4"/>
     <use xlink:href="#m1fee575c97" x="334.142149" y="359.884363" style="fill: #1f77b4; stroke: #1f77b4"/>
     <use xlink:href="#m1fee575c97" x="338.241322" y="357.752657" style="fill: #1f77b4; stroke: #1f77b4"/>
     <use xlink:href="#m1fee575c97" x="342.340496" y="344.67817" style="fill: #1f77b4; stroke: #1f77b4"/>
     <use xlink:href="#m1fee575c97" x="346.439669" y="360.966719" style="fill: #1f77b4; stroke: #1f77b4"/>
     <use xlink:href="#m1fee575c97" x="350.538843" y="360.576058" style="fill: #1f77b4; stroke: #1f77b4"/>
     <use xlink:href="#m1fee575c97" x="354.638017" y="357.98171" style="fill: #1f77b4; stroke: #1f77b4"/>
     <use xlink:href="#m1fee575c97" x="358.73719" y="362.199445" style="fill: #1f77b4; stroke: #1f77b4"/>
     <use xlink:href="#m1fee575c97" x="362.836364" y="369.36" style="fill: #1f77b4; stroke: #1f77b4"/>
     <use xlink:href="#m1fee575c97" x="366.935537" y="363.025398" style="fill: #1f77b4; stroke: #1f77b4"/>
     <use xlink:href="#m1fee575c97" x="371.034711" y="357.05978" style="fill: #1f77b4; stroke: #1f77b4"/>
     <use xlink:href="#m1fee575c97" x="375.133884" y="364.427041" style="fill: #1f77b4; stroke: #1f77b4"/>
     <use xlink:href="#m1fee575c97" x="379.233058" y="362.373187" style="fill: #1f77b4; stroke: #1f77b4"/>
     <use xlink:href="#m1fee575c97" x="383.332231" y="358.688816" style="fill: #1f77b4; stroke: #1f77b4"/>
     <use xlink:href="#m1fee575c97" x="387.431405" y="361.819746" style="fill: #1f77b4; stroke: #1f77b4"/>
     <use xlink:href="#m1fee575c97" x="391.530579" y="362.722467" style="fill: #1f77b4; stroke: #1f77b4"/>
     <use xlink:href="#m1fee575c97" x="395.629752" y="358.692651" style="fill: #1f77b4; stroke: #1f77b4"/>
     <use xlink:href="#m1fee575c97" x="399.728926" y="360.605114" style="fill: #1f77b4; stroke: #1f77b4"/>
     <use xlink:href="#m1fee575c97" x="403.828099" y="350.620164" style="fill: #1f77b4; stroke: #1f77b4"/>
     <use xlink:href="#m1fee575c97" x="407.927273" y="360.044407" style="fill: #1f77b4; stroke: #1f77b4"/>
     <use xlink:href="#m1fee575c97" x="412.026446" y="367.119429" style="fill: #1f77b4; stroke: #1f77b4"/>
     <use xlink:href="#m1fee575c97" x="416.12562" y="354.334987" style="fill: #1f77b4; stroke: #1f77b4"/>
     <use xlink:href="#m1fee575c97" x="420.224793" y="361.856924" style="fill: #1f77b4; stroke: #1f77b4"/>
     <use xlink:href="#m1fee575c97" x="424.323967" y="364.850142" style="fill: #1f77b4; stroke: #1f77b4"/>
     <use xlink:href="#m1fee575c97" x="428.42314" y="352.804013" style="fill: #1f77b4; stroke: #1f77b4"/>
     <use xlink:href="#m1fee575c97" x="432.522314" y="360.467311" style="fill: #1f77b4; stroke: #1f77b4"/>
     <use xlink:href="#m1fee575c97" x="436.621488" y="360.081162" style="fill: #1f77b4; stroke: #1f77b4"/>
     <use xlink:href="#m1fee575c97" x="440.720661" y="363.979402" style="fill: #1f77b4; stroke: #1f77b4"/>
     <use xlink:href="#m1fee575c97" x="444.819835" y="366.479752" style="fill: #1f77b4; stroke: #1f77b4"/>
     <use xlink:href="#m1fee575c97" x="448.919008" y="364.650111" style="fill: #1f77b4; stroke: #1f77b4"/>
     <use xlink:href="#m1fee575c97" x="453.018182" y="366.21333" style="fill: #1f77b4; stroke: #1f77b4"/>
     <use xlink:href="#m1fee575c97" x="457.117355" y="364.155044" style="fill: #1f77b4; stroke: #1f77b4"/>
     <use xlink:href="#m1fee575c97" x="461.216529" y="363.894431" style="fill: #1f77b4; stroke: #1f77b4"/>
     <use xlink:href="#m1fee575c97" x="465.315702" y="367.358153" style="fill: #1f77b4; stroke: #1f77b4"/>
     <use xlink:href="#m1fee575c97" x="469.414876" y="369.356294" style="fill: #1f77b4; stroke: #1f77b4"/>
     <use xlink:href="#m1fee575c97" x="473.51405" y="359.292947" style="fill: #1f77b4; stroke: #1f77b4"/>
     <use xlink:href="#m1fee575c97" x="477.613223" y="364.128461" style="fill: #1f77b4; stroke: #1f77b4"/>
     <use xlink:href="#m1fee575c97" x="481.712397" y="363.11653" style="fill: #1f77b4; stroke: #1f77b4"/>
     <use xlink:href="#m1fee575c97" x="485.81157" y="365.388704" style="fill: #1f77b4; stroke: #1f77b4"/>
     <use xlink:href="#m1fee575c97" x="489.910744" y="360.925994" style="fill: #1f77b4; stroke: #1f77b4"/>
     <use xlink:href="#m1fee575c97" x="494.009917" y="364.862328" style="fill: #1f77b4; stroke: #1f77b4"/>
     <use xlink:href="#m1fee575c97" x="498.109091" y="369.346344" style="fill: #1f77b4; stroke: #1f77b4"/>
    </g>
   </g>
   <g id="patch_3">
    <path d="M 72 384.48 
L 72 51.84 
" style="fill: none; stroke: #000000; stroke-width: 0.8; stroke-linejoin: miter; stroke-linecap: square"/>
   </g>
   <g id="patch_4">
    <path d="M 518.4 384.48 
L 518.4 51.84 
" style="fill: none; stroke: #000000; stroke-width: 0.8; stroke-linejoin: miter; stroke-linecap: square"/>
   </g>
   <g id="patch_5">
    <path d="M 72 384.48 
L 518.4 384.48 
" style="fill: none; stroke: #000000; stroke-width: 0.8; stroke-linejoin: miter; stroke-linecap: square"/>
   </g>
   <g id="patch_6">
    <path d="M 72 51.84 
L 518.4 51.84 
" style="fill: none; stroke: #000000; stroke-width: 0.8; stroke-linejoin: miter; stroke-linecap: square"/>
   </g>
   <g id="text_15">
    <!-- Training Loss Over Epochs -->
    <g transform="translate(216.71625 45.84) scale(0.12 -0.12)">
     <defs>
      <path id="DejaVuSans-54" d="M -19 4666 
L 3928 4666 
L 3928 4134 
L 2272 4134 
L 2272 0 
L 1638 0 
L 1638 4134 
L -19 4134 
L -19 4666 
z
" transform="scale(0.015625)"/>
      <path id="DejaVuSans-72" d="M 2631 2963 
Q 2534 3019 2420 3045 
Q 2306 3072 2169 3072 
Q 1681 3072 1420 2755 
Q 1159 2438 1159 1844 
L 1159 0 
L 581 0 
L 581 3500 
L 1159 3500 
L 1159 2956 
Q 1341 3275 1631 3429 
Q 1922 3584 2338 3584 
Q 2397 3584 2469 3576 
Q 2541 3569 2628 3553 
L 2631 2963 
z
" transform="scale(0.015625)"/>
      <path id="DejaVuSans-61" d="M 2194 1759 
Q 1497 1759 1228 1600 
Q 959 1441 959 1056 
Q 959 750 1161 570 
Q 1363 391 1709 391 
Q 2188 391 2477 730 
Q 2766 1069 2766 1631 
L 2766 1759 
L 2194 1759 
z
M 3341 1997 
L 3341 0 
L 2766 0 
L 2766 531 
Q 2569 213 2275 61 
Q 1981 -91 1556 -91 
Q 1019 -91 701 211 
Q 384 513 384 1019 
Q 384 1609 779 1909 
Q 1175 2209 1959 2209 
L 2766 2209 
L 2766 2266 
Q 2766 2663 2505 2880 
Q 2244 3097 1772 3097 
Q 1472 3097 1187 3025 
Q 903 2953 641 2809 
L 641 3341 
Q 956 3463 1253 3523 
Q 1550 3584 1831 3584 
Q 2591 3584 2966 3190 
Q 3341 2797 3341 1997 
z
" transform="scale(0.015625)"/>
      <path id="DejaVuSans-69" d="M 603 3500 
L 1178 3500 
L 1178 0 
L 603 0 
L 603 3500 
z
M 603 4863 
L 1178 4863 
L 1178 4134 
L 603 4134 
L 603 4863 
z
" transform="scale(0.015625)"/>
      <path id="DejaVuSans-6e" d="M 3513 2113 
L 3513 0 
L 2938 0 
L 2938 2094 
Q 2938 2591 2744 2837 
Q 2550 3084 2163 3084 
Q 1697 3084 1428 2787 
Q 1159 2491 1159 1978 
L 1159 0 
L 581 0 
L 581 3500 
L 1159 3500 
L 1159 2956 
Q 1366 3272 1645 3428 
Q 1925 3584 2291 3584 
Q 2894 3584 3203 3211 
Q 3513 2838 3513 2113 
z
" transform="scale(0.015625)"/>
      <path id="DejaVuSans-67" d="M 2906 1791 
Q 2906 2416 2648 2759 
Q 2391 3103 1925 3103 
Q 1463 3103 1205 2759 
Q 947 2416 947 1791 
Q 947 1169 1205 825 
Q 1463 481 1925 481 
Q 2391 481 2648 825 
Q 2906 1169 2906 1791 
z
M 3481 434 
Q 3481 -459 3084 -895 
Q 2688 -1331 1869 -1331 
Q 1566 -1331 1297 -1286 
Q 1028 -1241 775 -1147 
L 775 -588 
Q 1028 -725 1275 -790 
Q 1522 -856 1778 -856 
Q 2344 -856 2625 -561 
Q 2906 -266 2906 331 
L 2906 616 
Q 2728 306 2450 153 
Q 2172 0 1784 0 
Q 1141 0 747 490 
Q 353 981 353 1791 
Q 353 2603 747 3093 
Q 1141 3584 1784 3584 
Q 2172 3584 2450 3431 
Q 2728 3278 2906 2969 
L 2906 3500 
L 3481 3500 
L 3481 434 
z
" transform="scale(0.015625)"/>
      <path id="DejaVuSans-20" transform="scale(0.015625)"/>
      <path id="DejaVuSans-4f" d="M 2522 4238 
Q 1834 4238 1429 3725 
Q 1025 3213 1025 2328 
Q 1025 1447 1429 934 
Q 1834 422 2522 422 
Q 3209 422 3611 934 
Q 4013 1447 4013 2328 
Q 4013 3213 3611 3725 
Q 3209 4238 2522 4238 
z
M 2522 4750 
Q 3503 4750 4090 4092 
Q 4678 3434 4678 2328 
Q 4678 1225 4090 567 
Q 3503 -91 2522 -91 
Q 1538 -91 948 565 
Q 359 1222 359 2328 
Q 359 3434 948 4092 
Q 1538 4750 2522 4750 
z
" transform="scale(0.015625)"/>
      <path id="DejaVuSans-76" d="M 191 3500 
L 800 3500 
L 1894 563 
L 2988 3500 
L 3597 3500 
L 2284 0 
L 1503 0 
L 191 3500 
z
" transform="scale(0.015625)"/>
      <path id="DejaVuSans-65" d="M 3597 1894 
L 3597 1613 
L 953 1613 
Q 991 1019 1311 708 
Q 1631 397 2203 397 
Q 2534 397 2845 478 
Q 3156 559 3463 722 
L 3463 178 
Q 3153 47 2828 -22 
Q 2503 -91 2169 -91 
Q 1331 -91 842 396 
Q 353 884 353 1716 
Q 353 2575 817 3079 
Q 1281 3584 2069 3584 
Q 2775 3584 3186 3129 
Q 3597 2675 3597 1894 
z
M 3022 2063 
Q 3016 2534 2758 2815 
Q 2500 3097 2075 3097 
Q 1594 3097 1305 2825 
Q 1016 2553 972 2059 
L 3022 2063 
z
" transform="scale(0.015625)"/>
     </defs>
     <use xlink:href="#DejaVuSans-54"/>
     <use xlink:href="#DejaVuSans-72" x="46.333984"/>
     <use xlink:href="#DejaVuSans-61" x="87.447266"/>
     <use xlink:href="#DejaVuSans-69" x="148.726562"/>
     <use xlink:href="#DejaVuSans-6e" x="176.509766"/>
     <use xlink:href="#DejaVuSans-69" x="239.888672"/>
     <use xlink:href="#DejaVuSans-6e" x="267.671875"/>
     <use xlink:href="#DejaVuSans-67" x="331.050781"/>
     <use xlink:href="#DejaVuSans-20" x="394.527344"/>
     <use xlink:href="#DejaVuSans-4c" x="426.314453"/>
     <use xlink:href="#DejaVuSans-6f" x="480.277344"/>
     <use xlink:href="#DejaVuSans-73" x="541.458984"/>
     <use xlink:href="#DejaVuSans-73" x="593.558594"/>
     <use xlink:href="#DejaVuSans-20" x="645.658203"/>
     <use xlink:href="#DejaVuSans-4f" x="677.445312"/>
     <use xlink:href="#DejaVuSans-76" x="756.15625"/>
     <use xlink:href="#DejaVuSans-65" x="815.335938"/>
     <use xlink:href="#DejaVuSans-72" x="876.859375"/>
     <use xlink:href="#DejaVuSans-20" x="917.972656"/>
     <use xlink:href="#DejaVuSans-45" x="949.759766"/>
     <use xlink:href="#DejaVuSans-70" x="1012.943359"/>
     <use xlink:href="#DejaVuSans-6f" x="1076.419922"/>
     <use xlink:href="#DejaVuSans-63" x="1137.601562"/>
     <use xlink:href="#DejaVuSans-68" x="1192.582031"/>
     <use xlink:href="#DejaVuSans-73" x="1255.960938"/>
    </g>
   </g>
  </g>
 </g>
 <defs>
  <clipPath id="p35d58e1be0">
   <rect x="72" y="51.84" width="446.4" height="332.64"/>
  </clipPath>
 </defs>
</svg>
