<?xml version="1.0" encoding="utf-8" standalone="no"?>
<!DOCTYPE svg PUBLIC "-//W3C//DTD SVG 1.1//EN"
  "http://www.w3.org/Graphics/SVG/1.1/DTD/svg11.dtd">
<svg xmlns:xlink="http://www.w3.org/1999/xlink" width="576pt" height="432pt" viewBox="0 0 576 432" xmlns="http://www.w3.org/2000/svg" version="1.1">
 <metadata>
  <rdf:RDF xmlns:dc="http://purl.org/dc/elements/1.1/" xmlns:cc="http://creativecommons.org/ns#" xmlns:rdf="http://www.w3.org/1999/02/22-rdf-syntax-ns#">
   <cc:Work>
    <dc:type rdf:resource="http://purl.org/dc/dcmitype/StillImage"/>
    <dc:date>2025-01-07T11:12:35.645573</dc:date>
    <dc:format>image/svg+xml</dc:format>
    <dc:creator>
     <cc:Agent>
      <dc:title>Matplotlib v3.9.2, https://matplotlib.org/</dc:title>
     </cc:Agent>
    </dc:creator>
   </cc:Work>
  </rdf:RDF>
 </metadata>
 <defs>
  <style type="text/css">*{stroke-linejoin: round; stroke-linecap: butt}</style>
 </defs>
 <g id="figure_1">
  <g id="patch_1">
   <path d="M 0 432 
L 576 432 
L 576 0 
L 0 0 
z
" style="fill: #ffffff"/>
  </g>
  <g id="axes_1">
   <g id="patch_2">
    <path d="M 72 384.48 
L 518.4 384.48 
L 518.4 51.84 
L 72 51.84 
z
" style="fill: #ffffff"/>
   </g>
   <g id="matplotlib.axis_1">
    <g id="xtick_1">
     <g id="line2d_1">
      <path d="M 88.191736 384.48 
L 88.191736 51.84 
" clip-path="url(#p7a451aa11f)" style="fill: none; stroke: #b0b0b0; stroke-width: 0.8; stroke-linecap: square"/>
     </g>
     <g id="line2d_2">
      <defs>
       <path id="ma179c808f2" d="M 0 0 
L 0 3.5 
" style="stroke: #000000; stroke-width: 0.8"/>
      </defs>
      <g>
       <use xlink:href="#ma179c808f2" x="88.191736" y="384.48" style="stroke: #000000; stroke-width: 0.8"/>
      </g>
     </g>
     <g id="text_1">
      <!-- 0 -->
      <g transform="translate(85.010486 399.078438) scale(0.1 -0.1)">
       <defs>
        <path id="DejaVuSans-30" d="M 2034 4250 
Q 1547 4250 1301 3770 
Q 1056 3291 1056 2328 
Q 1056 1369 1301 889 
Q 1547 409 2034 409 
Q 2525 409 2770 889 
Q 3016 1369 3016 2328 
Q 3016 3291 2770 3770 
Q 2525 4250 2034 4250 
z
M 2034 4750 
Q 2819 4750 3233 4129 
Q 3647 3509 3647 2328 
Q 3647 1150 3233 529 
Q 2819 -91 2034 -91 
Q 1250 -91 836 529 
Q 422 1150 422 2328 
Q 422 3509 836 4129 
Q 1250 4750 2034 4750 
z
" transform="scale(0.015625)"/>
       </defs>
       <use xlink:href="#DejaVuSans-30"/>
      </g>
     </g>
    </g>
    <g id="xtick_2">
     <g id="line2d_3">
      <path d="M 170.175207 384.48 
L 170.175207 51.84 
" clip-path="url(#p7a451aa11f)" style="fill: none; stroke: #b0b0b0; stroke-width: 0.8; stroke-linecap: square"/>
     </g>
     <g id="line2d_4">
      <g>
       <use xlink:href="#ma179c808f2" x="170.175207" y="384.48" style="stroke: #000000; stroke-width: 0.8"/>
      </g>
     </g>
     <g id="text_2">
      <!-- 20 -->
      <g transform="translate(163.812707 399.078438) scale(0.1 -0.1)">
       <defs>
        <path id="DejaVuSans-32" d="M 1228 531 
L 3431 531 
L 3431 0 
L 469 0 
L 469 531 
Q 828 903 1448 1529 
Q 2069 2156 2228 2338 
Q 2531 2678 2651 2914 
Q 2772 3150 2772 3378 
Q 2772 3750 2511 3984 
Q 2250 4219 1831 4219 
Q 1534 4219 1204 4116 
Q 875 4013 500 3803 
L 500 4441 
Q 881 4594 1212 4672 
Q 1544 4750 1819 4750 
Q 2544 4750 2975 4387 
Q 3406 4025 3406 3419 
Q 3406 3131 3298 2873 
Q 3191 2616 2906 2266 
Q 2828 2175 2409 1742 
Q 1991 1309 1228 531 
z
" transform="scale(0.015625)"/>
       </defs>
       <use xlink:href="#DejaVuSans-32"/>
       <use xlink:href="#DejaVuSans-30" x="63.623047"/>
      </g>
     </g>
    </g>
    <g id="xtick_3">
     <g id="line2d_5">
      <path d="M 252.158678 384.48 
L 252.158678 51.84 
" clip-path="url(#p7a451aa11f)" style="fill: none; stroke: #b0b0b0; stroke-width: 0.8; stroke-linecap: square"/>
     </g>
     <g id="line2d_6">
      <g>
       <use xlink:href="#ma179c808f2" x="252.158678" y="384.48" style="stroke: #000000; stroke-width: 0.8"/>
      </g>
     </g>
     <g id="text_3">
      <!-- 40 -->
      <g transform="translate(245.796178 399.078438) scale(0.1 -0.1)">
       <defs>
        <path id="DejaVuSans-34" d="M 2419 4116 
L 825 1625 
L 2419 1625 
L 2419 4116 
z
M 2253 4666 
L 3047 4666 
L 3047 1625 
L 3713 1625 
L 3713 1100 
L 3047 1100 
L 3047 0 
L 2419 0 
L 2419 1100 
L 313 1100 
L 313 1709 
L 2253 4666 
z
" transform="scale(0.015625)"/>
       </defs>
       <use xlink:href="#DejaVuSans-34"/>
       <use xlink:href="#DejaVuSans-30" x="63.623047"/>
      </g>
     </g>
    </g>
    <g id="xtick_4">
     <g id="line2d_7">
      <path d="M 334.142149 384.48 
L 334.142149 51.84 
" clip-path="url(#p7a451aa11f)" style="fill: none; stroke: #b0b0b0; stroke-width: 0.8; stroke-linecap: square"/>
     </g>
     <g id="line2d_8">
      <g>
       <use xlink:href="#ma179c808f2" x="334.142149" y="384.48" style="stroke: #000000; stroke-width: 0.8"/>
      </g>
     </g>
     <g id="text_4">
      <!-- 60 -->
      <g transform="translate(327.779649 399.078438) scale(0.1 -0.1)">
       <defs>
        <path id="DejaVuSans-36" d="M 2113 2584 
Q 1688 2584 1439 2293 
Q 1191 2003 1191 1497 
Q 1191 994 1439 701 
Q 1688 409 2113 409 
Q 2538 409 2786 701 
Q 3034 994 3034 1497 
Q 3034 2003 2786 2293 
Q 2538 2584 2113 2584 
z
M 3366 4563 
L 3366 3988 
Q 3128 4100 2886 4159 
Q 2644 4219 2406 4219 
Q 1781 4219 1451 3797 
Q 1122 3375 1075 2522 
Q 1259 2794 1537 2939 
Q 1816 3084 2150 3084 
Q 2853 3084 3261 2657 
Q 3669 2231 3669 1497 
Q 3669 778 3244 343 
Q 2819 -91 2113 -91 
Q 1303 -91 875 529 
Q 447 1150 447 2328 
Q 447 3434 972 4092 
Q 1497 4750 2381 4750 
Q 2619 4750 2861 4703 
Q 3103 4656 3366 4563 
z
" transform="scale(0.015625)"/>
       </defs>
       <use xlink:href="#DejaVuSans-36"/>
       <use xlink:href="#DejaVuSans-30" x="63.623047"/>
      </g>
     </g>
    </g>
    <g id="xtick_5">
     <g id="line2d_9">
      <path d="M 416.12562 384.48 
L 416.12562 51.84 
" clip-path="url(#p7a451aa11f)" style="fill: none; stroke: #b0b0b0; stroke-width: 0.8; stroke-linecap: square"/>
     </g>
     <g id="line2d_10">
      <g>
       <use xlink:href="#ma179c808f2" x="416.12562" y="384.48" style="stroke: #000000; stroke-width: 0.8"/>
      </g>
     </g>
     <g id="text_5">
      <!-- 80 -->
      <g transform="translate(409.76312 399.078438) scale(0.1 -0.1)">
       <defs>
        <path id="DejaVuSans-38" d="M 2034 2216 
Q 1584 2216 1326 1975 
Q 1069 1734 1069 1313 
Q 1069 891 1326 650 
Q 1584 409 2034 409 
Q 2484 409 2743 651 
Q 3003 894 3003 1313 
Q 3003 1734 2745 1975 
Q 2488 2216 2034 2216 
z
M 1403 2484 
Q 997 2584 770 2862 
Q 544 3141 544 3541 
Q 544 4100 942 4425 
Q 1341 4750 2034 4750 
Q 2731 4750 3128 4425 
Q 3525 4100 3525 3541 
Q 3525 3141 3298 2862 
Q 3072 2584 2669 2484 
Q 3125 2378 3379 2068 
Q 3634 1759 3634 1313 
Q 3634 634 3220 271 
Q 2806 -91 2034 -91 
Q 1263 -91 848 271 
Q 434 634 434 1313 
Q 434 1759 690 2068 
Q 947 2378 1403 2484 
z
M 1172 3481 
Q 1172 3119 1398 2916 
Q 1625 2713 2034 2713 
Q 2441 2713 2670 2916 
Q 2900 3119 2900 3481 
Q 2900 3844 2670 4047 
Q 2441 4250 2034 4250 
Q 1625 4250 1398 4047 
Q 1172 3844 1172 3481 
z
" transform="scale(0.015625)"/>
       </defs>
       <use xlink:href="#DejaVuSans-38"/>
       <use xlink:href="#DejaVuSans-30" x="63.623047"/>
      </g>
     </g>
    </g>
    <g id="xtick_6">
     <g id="line2d_11">
      <path d="M 498.109091 384.48 
L 498.109091 51.84 
" clip-path="url(#p7a451aa11f)" style="fill: none; stroke: #b0b0b0; stroke-width: 0.8; stroke-linecap: square"/>
     </g>
     <g id="line2d_12">
      <g>
       <use xlink:href="#ma179c808f2" x="498.109091" y="384.48" style="stroke: #000000; stroke-width: 0.8"/>
      </g>
     </g>
     <g id="text_6">
      <!-- 100 -->
      <g transform="translate(488.565341 399.078438) scale(0.1 -0.1)">
       <defs>
        <path id="DejaVuSans-31" d="M 794 531 
L 1825 531 
L 1825 4091 
L 703 3866 
L 703 4441 
L 1819 4666 
L 2450 4666 
L 2450 531 
L 3481 531 
L 3481 0 
L 794 0 
L 794 531 
z
" transform="scale(0.015625)"/>
       </defs>
       <use xlink:href="#DejaVuSans-31"/>
       <use xlink:href="#DejaVuSans-30" x="63.623047"/>
       <use xlink:href="#DejaVuSans-30" x="127.246094"/>
      </g>
     </g>
    </g>
    <g id="text_7">
     <!-- Epochs -->
     <g transform="translate(259.36875 420.355) scale(0.2 -0.2)">
      <defs>
       <path id="DejaVuSans-45" d="M 628 4666 
L 3578 4666 
L 3578 4134 
L 1259 4134 
L 1259 2753 
L 3481 2753 
L 3481 2222 
L 1259 2222 
L 1259 531 
L 3634 531 
L 3634 0 
L 628 0 
L 628 4666 
z
" transform="scale(0.015625)"/>
       <path id="DejaVuSans-70" d="M 1159 525 
L 1159 -1331 
L 581 -1331 
L 581 3500 
L 1159 3500 
L 1159 2969 
Q 1341 3281 1617 3432 
Q 1894 3584 2278 3584 
Q 2916 3584 3314 3078 
Q 3713 2572 3713 1747 
Q 3713 922 3314 415 
Q 2916 -91 2278 -91 
Q 1894 -91 1617 61 
Q 1341 213 1159 525 
z
M 3116 1747 
Q 3116 2381 2855 2742 
Q 2594 3103 2138 3103 
Q 1681 3103 1420 2742 
Q 1159 2381 1159 1747 
Q 1159 1113 1420 752 
Q 1681 391 2138 391 
Q 2594 391 2855 752 
Q 3116 1113 3116 1747 
z
" transform="scale(0.015625)"/>
       <path id="DejaVuSans-6f" d="M 1959 3097 
Q 1497 3097 1228 2736 
Q 959 2375 959 1747 
Q 959 1119 1226 758 
Q 1494 397 1959 397 
Q 2419 397 2687 759 
Q 2956 1122 2956 1747 
Q 2956 2369 2687 2733 
Q 2419 3097 1959 3097 
z
M 1959 3584 
Q 2709 3584 3137 3096 
Q 3566 2609 3566 1747 
Q 3566 888 3137 398 
Q 2709 -91 1959 -91 
Q 1206 -91 779 398 
Q 353 888 353 1747 
Q 353 2609 779 3096 
Q 1206 3584 1959 3584 
z
" transform="scale(0.015625)"/>
       <path id="DejaVuSans-63" d="M 3122 3366 
L 3122 2828 
Q 2878 2963 2633 3030 
Q 2388 3097 2138 3097 
Q 1578 3097 1268 2742 
Q 959 2388 959 1747 
Q 959 1106 1268 751 
Q 1578 397 2138 397 
Q 2388 397 2633 464 
Q 2878 531 3122 666 
L 3122 134 
Q 2881 22 2623 -34 
Q 2366 -91 2075 -91 
Q 1284 -91 818 406 
Q 353 903 353 1747 
Q 353 2603 823 3093 
Q 1294 3584 2113 3584 
Q 2378 3584 2631 3529 
Q 2884 3475 3122 3366 
z
" transform="scale(0.015625)"/>
       <path id="DejaVuSans-68" d="M 3513 2113 
L 3513 0 
L 2938 0 
L 2938 2094 
Q 2938 2591 2744 2837 
Q 2550 3084 2163 3084 
Q 1697 3084 1428 2787 
Q 1159 2491 1159 1978 
L 1159 0 
L 581 0 
L 581 4863 
L 1159 4863 
L 1159 2956 
Q 1366 3272 1645 3428 
Q 1925 3584 2291 3584 
Q 2894 3584 3203 3211 
Q 3513 2838 3513 2113 
z
" transform="scale(0.015625)"/>
       <path id="DejaVuSans-73" d="M 2834 3397 
L 2834 2853 
Q 2591 2978 2328 3040 
Q 2066 3103 1784 3103 
Q 1356 3103 1142 2972 
Q 928 2841 928 2578 
Q 928 2378 1081 2264 
Q 1234 2150 1697 2047 
L 1894 2003 
Q 2506 1872 2764 1633 
Q 3022 1394 3022 966 
Q 3022 478 2636 193 
Q 2250 -91 1575 -91 
Q 1294 -91 989 -36 
Q 684 19 347 128 
L 347 722 
Q 666 556 975 473 
Q 1284 391 1588 391 
Q 1994 391 2212 530 
Q 2431 669 2431 922 
Q 2431 1156 2273 1281 
Q 2116 1406 1581 1522 
L 1381 1569 
Q 847 1681 609 1914 
Q 372 2147 372 2553 
Q 372 3047 722 3315 
Q 1072 3584 1716 3584 
Q 2034 3584 2315 3537 
Q 2597 3491 2834 3397 
z
" transform="scale(0.015625)"/>
      </defs>
      <use xlink:href="#DejaVuSans-45"/>
      <use xlink:href="#DejaVuSans-70" x="63.183594"/>
      <use xlink:href="#DejaVuSans-6f" x="126.660156"/>
      <use xlink:href="#DejaVuSans-63" x="187.841797"/>
      <use xlink:href="#DejaVuSans-68" x="242.822266"/>
      <use xlink:href="#DejaVuSans-73" x="306.201172"/>
     </g>
    </g>
   </g>
   <g id="matplotlib.axis_2">
    <g id="ytick_1">
     <g id="line2d_13">
      <path d="M 72 373.459562 
L 518.4 373.459562 
" clip-path="url(#p7a451aa11f)" style="fill: none; stroke: #b0b0b0; stroke-width: 0.8; stroke-linecap: square"/>
     </g>
     <g id="line2d_14">
      <defs>
       <path id="m97547df8ad" d="M 0 0 
L -3.5 0 
" style="stroke: #000000; stroke-width: 0.8"/>
      </defs>
      <g>
       <use xlink:href="#m97547df8ad" x="72" y="373.459562" style="stroke: #000000; stroke-width: 0.8"/>
      </g>
     </g>
     <g id="text_8">
      <!-- 0.00025 -->
      <g transform="translate(23.646875 377.258781) scale(0.1 -0.1)">
       <defs>
        <path id="DejaVuSans-2e" d="M 684 794 
L 1344 794 
L 1344 0 
L 684 0 
L 684 794 
z
" transform="scale(0.015625)"/>
        <path id="DejaVuSans-35" d="M 691 4666 
L 3169 4666 
L 3169 4134 
L 1269 4134 
L 1269 2991 
Q 1406 3038 1543 3061 
Q 1681 3084 1819 3084 
Q 2600 3084 3056 2656 
Q 3513 2228 3513 1497 
Q 3513 744 3044 326 
Q 2575 -91 1722 -91 
Q 1428 -91 1123 -41 
Q 819 9 494 109 
L 494 744 
Q 775 591 1075 516 
Q 1375 441 1709 441 
Q 2250 441 2565 725 
Q 2881 1009 2881 1497 
Q 2881 1984 2565 2268 
Q 2250 2553 1709 2553 
Q 1456 2553 1204 2497 
Q 953 2441 691 2322 
L 691 4666 
z
" transform="scale(0.015625)"/>
       </defs>
       <use xlink:href="#DejaVuSans-30"/>
       <use xlink:href="#DejaVuSans-2e" x="63.623047"/>
       <use xlink:href="#DejaVuSans-30" x="95.410156"/>
       <use xlink:href="#DejaVuSans-30" x="159.033203"/>
       <use xlink:href="#DejaVuSans-30" x="222.65625"/>
       <use xlink:href="#DejaVuSans-32" x="286.279297"/>
       <use xlink:href="#DejaVuSans-35" x="349.902344"/>
      </g>
     </g>
    </g>
    <g id="ytick_2">
     <g id="line2d_15">
      <path d="M 72 329.402517 
L 518.4 329.402517 
" clip-path="url(#p7a451aa11f)" style="fill: none; stroke: #b0b0b0; stroke-width: 0.8; stroke-linecap: square"/>
     </g>
     <g id="line2d_16">
      <g>
       <use xlink:href="#m97547df8ad" x="72" y="329.402517" style="stroke: #000000; stroke-width: 0.8"/>
      </g>
     </g>
     <g id="text_9">
      <!-- 0.00050 -->
      <g transform="translate(23.646875 333.201735) scale(0.1 -0.1)">
       <use xlink:href="#DejaVuSans-30"/>
       <use xlink:href="#DejaVuSans-2e" x="63.623047"/>
       <use xlink:href="#DejaVuSans-30" x="95.410156"/>
       <use xlink:href="#DejaVuSans-30" x="159.033203"/>
       <use xlink:href="#DejaVuSans-30" x="222.65625"/>
       <use xlink:href="#DejaVuSans-35" x="286.279297"/>
       <use xlink:href="#DejaVuSans-30" x="349.902344"/>
      </g>
     </g>
    </g>
    <g id="ytick_3">
     <g id="line2d_17">
      <path d="M 72 285.345471 
L 518.4 285.345471 
" clip-path="url(#p7a451aa11f)" style="fill: none; stroke: #b0b0b0; stroke-width: 0.8; stroke-linecap: square"/>
     </g>
     <g id="line2d_18">
      <g>
       <use xlink:href="#m97547df8ad" x="72" y="285.345471" style="stroke: #000000; stroke-width: 0.8"/>
      </g>
     </g>
     <g id="text_10">
      <!-- 0.00075 -->
      <g transform="translate(23.646875 289.14469) scale(0.1 -0.1)">
       <defs>
        <path id="DejaVuSans-37" d="M 525 4666 
L 3525 4666 
L 3525 4397 
L 1831 0 
L 1172 0 
L 2766 4134 
L 525 4134 
L 525 4666 
z
" transform="scale(0.015625)"/>
       </defs>
       <use xlink:href="#DejaVuSans-30"/>
       <use xlink:href="#DejaVuSans-2e" x="63.623047"/>
       <use xlink:href="#DejaVuSans-30" x="95.410156"/>
       <use xlink:href="#DejaVuSans-30" x="159.033203"/>
       <use xlink:href="#DejaVuSans-30" x="222.65625"/>
       <use xlink:href="#DejaVuSans-37" x="286.279297"/>
       <use xlink:href="#DejaVuSans-35" x="349.902344"/>
      </g>
     </g>
    </g>
    <g id="ytick_4">
     <g id="line2d_19">
      <path d="M 72 241.288426 
L 518.4 241.288426 
" clip-path="url(#p7a451aa11f)" style="fill: none; stroke: #b0b0b0; stroke-width: 0.8; stroke-linecap: square"/>
     </g>
     <g id="line2d_20">
      <g>
       <use xlink:href="#m97547df8ad" x="72" y="241.288426" style="stroke: #000000; stroke-width: 0.8"/>
      </g>
     </g>
     <g id="text_11">
      <!-- 0.00100 -->
      <g transform="translate(23.646875 245.087644) scale(0.1 -0.1)">
       <use xlink:href="#DejaVuSans-30"/>
       <use xlink:href="#DejaVuSans-2e" x="63.623047"/>
       <use xlink:href="#DejaVuSans-30" x="95.410156"/>
       <use xlink:href="#DejaVuSans-30" x="159.033203"/>
       <use xlink:href="#DejaVuSans-31" x="222.65625"/>
       <use xlink:href="#DejaVuSans-30" x="286.279297"/>
       <use xlink:href="#DejaVuSans-30" x="349.902344"/>
      </g>
     </g>
    </g>
    <g id="ytick_5">
     <g id="line2d_21">
      <path d="M 72 197.23138 
L 518.4 197.23138 
" clip-path="url(#p7a451aa11f)" style="fill: none; stroke: #b0b0b0; stroke-width: 0.8; stroke-linecap: square"/>
     </g>
     <g id="line2d_22">
      <g>
       <use xlink:href="#m97547df8ad" x="72" y="197.23138" style="stroke: #000000; stroke-width: 0.8"/>
      </g>
     </g>
     <g id="text_12">
      <!-- 0.00125 -->
      <g transform="translate(23.646875 201.030599) scale(0.1 -0.1)">
       <use xlink:href="#DejaVuSans-30"/>
       <use xlink:href="#DejaVuSans-2e" x="63.623047"/>
       <use xlink:href="#DejaVuSans-30" x="95.410156"/>
       <use xlink:href="#DejaVuSans-30" x="159.033203"/>
       <use xlink:href="#DejaVuSans-31" x="222.65625"/>
       <use xlink:href="#DejaVuSans-32" x="286.279297"/>
       <use xlink:href="#DejaVuSans-35" x="349.902344"/>
      </g>
     </g>
    </g>
    <g id="ytick_6">
     <g id="line2d_23">
      <path d="M 72 153.174335 
L 518.4 153.174335 
" clip-path="url(#p7a451aa11f)" style="fill: none; stroke: #b0b0b0; stroke-width: 0.8; stroke-linecap: square"/>
     </g>
     <g id="line2d_24">
      <g>
       <use xlink:href="#m97547df8ad" x="72" y="153.174335" style="stroke: #000000; stroke-width: 0.8"/>
      </g>
     </g>
     <g id="text_13">
      <!-- 0.00150 -->
      <g transform="translate(23.646875 156.973553) scale(0.1 -0.1)">
       <use xlink:href="#DejaVuSans-30"/>
       <use xlink:href="#DejaVuSans-2e" x="63.623047"/>
       <use xlink:href="#DejaVuSans-30" x="95.410156"/>
       <use xlink:href="#DejaVuSans-30" x="159.033203"/>
       <use xlink:href="#DejaVuSans-31" x="222.65625"/>
       <use xlink:href="#DejaVuSans-35" x="286.279297"/>
       <use xlink:href="#DejaVuSans-30" x="349.902344"/>
      </g>
     </g>
    </g>
    <g id="ytick_7">
     <g id="line2d_25">
      <path d="M 72 109.117289 
L 518.4 109.117289 
" clip-path="url(#p7a451aa11f)" style="fill: none; stroke: #b0b0b0; stroke-width: 0.8; stroke-linecap: square"/>
     </g>
     <g id="line2d_26">
      <g>
       <use xlink:href="#m97547df8ad" x="72" y="109.117289" style="stroke: #000000; stroke-width: 0.8"/>
      </g>
     </g>
     <g id="text_14">
      <!-- 0.00175 -->
      <g transform="translate(23.646875 112.916508) scale(0.1 -0.1)">
       <use xlink:href="#DejaVuSans-30"/>
       <use xlink:href="#DejaVuSans-2e" x="63.623047"/>
       <use xlink:href="#DejaVuSans-30" x="95.410156"/>
       <use xlink:href="#DejaVuSans-30" x="159.033203"/>
       <use xlink:href="#DejaVuSans-31" x="222.65625"/>
       <use xlink:href="#DejaVuSans-37" x="286.279297"/>
       <use xlink:href="#DejaVuSans-35" x="349.902344"/>
      </g>
     </g>
    </g>
    <g id="ytick_8">
     <g id="line2d_27">
      <path d="M 72 65.060244 
L 518.4 65.060244 
" clip-path="url(#p7a451aa11f)" style="fill: none; stroke: #b0b0b0; stroke-width: 0.8; stroke-linecap: square"/>
     </g>
     <g id="line2d_28">
      <g>
       <use xlink:href="#m97547df8ad" x="72" y="65.060244" style="stroke: #000000; stroke-width: 0.8"/>
      </g>
     </g>
     <g id="text_15">
      <!-- 0.00200 -->
      <g transform="translate(23.646875 68.859462) scale(0.1 -0.1)">
       <use xlink:href="#DejaVuSans-30"/>
       <use xlink:href="#DejaVuSans-2e" x="63.623047"/>
       <use xlink:href="#DejaVuSans-30" x="95.410156"/>
       <use xlink:href="#DejaVuSans-30" x="159.033203"/>
       <use xlink:href="#DejaVuSans-32" x="222.65625"/>
       <use xlink:href="#DejaVuSans-30" x="286.279297"/>
       <use xlink:href="#DejaVuSans-30" x="349.902344"/>
      </g>
     </g>
    </g>
    <g id="text_16">
     <!-- Loss -->
     <g transform="translate(15.4875 240.094375) rotate(-90) scale(0.2 -0.2)">
      <defs>
       <path id="DejaVuSans-4c" d="M 628 4666 
L 1259 4666 
L 1259 531 
L 3531 531 
L 3531 0 
L 628 0 
L 628 4666 
z
" transform="scale(0.015625)"/>
      </defs>
      <use xlink:href="#DejaVuSans-4c"/>
      <use xlink:href="#DejaVuSans-6f" x="53.962891"/>
      <use xlink:href="#DejaVuSans-73" x="115.144531"/>
      <use xlink:href="#DejaVuSans-73" x="167.244141"/>
     </g>
    </g>
   </g>
   <g id="line2d_29">
    <path d="M 92.290909 66.96 
L 96.390083 254.494659 
L 100.489256 241.345303 
L 104.58843 284.578153 
L 108.687603 317.734423 
L 112.786777 305.524527 
L 116.88595 308.088755 
L 120.985124 335.086988 
L 125.084298 327.859913 
L 129.183471 343.492843 
L 133.282645 335.716015 
L 137.381818 330.454999 
L 141.480992 354.742762 
L 145.580165 354.966941 
L 149.679339 345.934804 
L 153.778512 351.342068 
L 157.877686 345.323937 
L 161.97686 347.843195 
L 166.076033 353.258917 
L 170.175207 351.813737 
L 174.27438 325.696002 
L 178.373554 348.862293 
L 182.472727 331.064152 
L 186.571901 351.51901 
L 190.671074 343.851244 
L 194.770248 349.269062 
L 198.869421 346.205783 
L 202.968595 346.78443 
L 207.067769 349.79704 
L 211.166942 345.546803 
L 215.266116 343.426564 
L 219.365289 360.051715 
L 223.464463 340.604336 
L 227.563636 354.481883 
L 231.66281 362.769015 
L 235.761983 347.402178 
L 239.861157 339.771157 
L 243.960331 368.104852 
L 248.059504 354.546935 
L 252.158678 353.776656 
L 256.257851 361.40891 
L 260.357025 356.166784 
L 264.456198 360.269324 
L 268.555372 353.399021 
L 272.654545 345.955688 
L 276.753719 345.531391 
L 280.852893 347.974904 
L 284.952066 358.294366 
L 289.05124 355.004693 
L 293.150413 362.226484 
L 297.249587 353.777289 
L 301.34876 322.29792 
L 305.447934 343.094502 
L 309.547107 368.629895 
L 313.646281 367.43325 
L 317.745455 359.179803 
L 321.844628 355.990828 
L 325.943802 347.389322 
L 330.042975 355.412397 
L 334.142149 335.361533 
L 338.241322 346.118886 
L 342.340496 360.6446 
L 346.439669 355.454595 
L 350.538843 362.913874 
L 354.638017 354.31754 
L 358.73719 355.303363 
L 362.836364 355.538168 
L 366.935537 348.588463 
L 371.034711 366.631718 
L 375.133884 354.091549 
L 379.233058 357.782026 
L 383.332231 363.37786 
L 387.431405 354.767046 
L 391.530579 359.640478 
L 395.629752 369.36 
L 399.728926 347.148987 
L 403.828099 366.83224 
L 407.927273 354.995867 
L 412.026446 365.735149 
L 416.12562 357.14698 
L 420.224793 357.529464 
L 424.323967 354.852319 
L 428.42314 365.385295 
L 432.522314 350.365414 
L 436.621488 350.262359 
L 440.720661 366.199814 
L 444.819835 356.547441 
L 448.919008 361.104289 
L 453.018182 360.511858 
L 457.117355 351.312958 
L 461.216529 353.97993 
L 465.315702 364.164403 
L 469.414876 360.434518 
L 473.51405 363.047419 
L 477.613223 366.035244 
L 481.712397 360.135434 
L 485.81157 350.086246 
L 489.910744 349.372922 
L 494.009917 347.051625 
L 498.109091 360.357167 
" clip-path="url(#p7a451aa11f)" style="fill: none; stroke: #1f77b4; stroke-width: 1.5; stroke-linecap: square"/>
    <defs>
     <path id="m4c47e6a89a" d="M 0 3 
C 0.795609 3 1.55874 2.683901 2.12132 2.12132 
C 2.683901 1.55874 3 0.795609 3 0 
C 3 -0.795609 2.683901 -1.55874 2.12132 -2.12132 
C 1.55874 -2.683901 0.795609 -3 0 -3 
C -0.795609 -3 -1.55874 -2.683901 -2.12132 -2.12132 
C -2.683901 -1.55874 -3 -0.795609 -3 0 
C -3 0.795609 -2.683901 1.55874 -2.12132 2.12132 
C -1.55874 2.683901 -0.795609 3 0 3 
z
" style="stroke: #1f77b4"/>
    </defs>
    <g clip-path="url(#p7a451aa11f)">
     <use xlink:href="#m4c47e6a89a" x="92.290909" y="66.96" style="fill: #1f77b4; stroke: #1f77b4"/>
     <use xlink:href="#m4c47e6a89a" x="96.390083" y="254.494659" style="fill: #1f77b4; stroke: #1f77b4"/>
     <use xlink:href="#m4c47e6a89a" x="100.489256" y="241.345303" style="fill: #1f77b4; stroke: #1f77b4"/>
     <use xlink:href="#m4c47e6a89a" x="104.58843" y="284.578153" style="fill: #1f77b4; stroke: #1f77b4"/>
     <use xlink:href="#m4c47e6a89a" x="108.687603" y="317.734423" style="fill: #1f77b4; stroke: #1f77b4"/>
     <use xlink:href="#m4c47e6a89a" x="112.786777" y="305.524527" style="fill: #1f77b4; stroke: #1f77b4"/>
     <use xlink:href="#m4c47e6a89a" x="116.88595" y="308.088755" style="fill: #1f77b4; stroke: #1f77b4"/>
     <use xlink:href="#m4c47e6a89a" x="120.985124" y="335.086988" style="fill: #1f77b4; stroke: #1f77b4"/>
     <use xlink:href="#m4c47e6a89a" x="125.084298" y="327.859913" style="fill: #1f77b4; stroke: #1f77b4"/>
     <use xlink:href="#m4c47e6a89a" x="129.183471" y="343.492843" style="fill: #1f77b4; stroke: #1f77b4"/>
     <use xlink:href="#m4c47e6a89a" x="133.282645" y="335.716015" style="fill: #1f77b4; stroke: #1f77b4"/>
     <use xlink:href="#m4c47e6a89a" x="137.381818" y="330.454999" style="fill: #1f77b4; stroke: #1f77b4"/>
     <use xlink:href="#m4c47e6a89a" x="141.480992" y="354.742762" style="fill: #1f77b4; stroke: #1f77b4"/>
     <use xlink:href="#m4c47e6a89a" x="145.580165" y="354.966941" style="fill: #1f77b4; stroke: #1f77b4"/>
     <use xlink:href="#m4c47e6a89a" x="149.679339" y="345.934804" style="fill: #1f77b4; stroke: #1f77b4"/>
     <use xlink:href="#m4c47e6a89a" x="153.778512" y="351.342068" style="fill: #1f77b4; stroke: #1f77b4"/>
     <use xlink:href="#m4c47e6a89a" x="157.877686" y="345.323937" style="fill: #1f77b4; stroke: #1f77b4"/>
     <use xlink:href="#m4c47e6a89a" x="161.97686" y="347.843195" style="fill: #1f77b4; stroke: #1f77b4"/>
     <use xlink:href="#m4c47e6a89a" x="166.076033" y="353.258917" style="fill: #1f77b4; stroke: #1f77b4"/>
     <use xlink:href="#m4c47e6a89a" x="170.175207" y="351.813737" style="fill: #1f77b4; stroke: #1f77b4"/>
     <use xlink:href="#m4c47e6a89a" x="174.27438" y="325.696002" style="fill: #1f77b4; stroke: #1f77b4"/>
     <use xlink:href="#m4c47e6a89a" x="178.373554" y="348.862293" style="fill: #1f77b4; stroke: #1f77b4"/>
     <use xlink:href="#m4c47e6a89a" x="182.472727" y="331.064152" style="fill: #1f77b4; stroke: #1f77b4"/>
     <use xlink:href="#m4c47e6a89a" x="186.571901" y="351.51901" style="fill: #1f77b4; stroke: #1f77b4"/>
     <use xlink:href="#m4c47e6a89a" x="190.671074" y="343.851244" style="fill: #1f77b4; stroke: #1f77b4"/>
     <use xlink:href="#m4c47e6a89a" x="194.770248" y="349.269062" style="fill: #1f77b4; stroke: #1f77b4"/>
     <use xlink:href="#m4c47e6a89a" x="198.869421" y="346.205783" style="fill: #1f77b4; stroke: #1f77b4"/>
     <use xlink:href="#m4c47e6a89a" x="202.968595" y="346.78443" style="fill: #1f77b4; stroke: #1f77b4"/>
     <use xlink:href="#m4c47e6a89a" x="207.067769" y="349.79704" style="fill: #1f77b4; stroke: #1f77b4"/>
     <use xlink:href="#m4c47e6a89a" x="211.166942" y="345.546803" style="fill: #1f77b4; stroke: #1f77b4"/>
     <use xlink:href="#m4c47e6a89a" x="215.266116" y="343.426564" style="fill: #1f77b4; stroke: #1f77b4"/>
     <use xlink:href="#m4c47e6a89a" x="219.365289" y="360.051715" style="fill: #1f77b4; stroke: #1f77b4"/>
     <use xlink:href="#m4c47e6a89a" x="223.464463" y="340.604336" style="fill: #1f77b4; stroke: #1f77b4"/>
     <use xlink:href="#m4c47e6a89a" x="227.563636" y="354.481883" style="fill: #1f77b4; stroke: #1f77b4"/>
     <use xlink:href="#m4c47e6a89a" x="231.66281" y="362.769015" style="fill: #1f77b4; stroke: #1f77b4"/>
     <use xlink:href="#m4c47e6a89a" x="235.761983" y="347.402178" style="fill: #1f77b4; stroke: #1f77b4"/>
     <use xlink:href="#m4c47e6a89a" x="239.861157" y="339.771157" style="fill: #1f77b4; stroke: #1f77b4"/>
     <use xlink:href="#m4c47e6a89a" x="243.960331" y="368.104852" style="fill: #1f77b4; stroke: #1f77b4"/>
     <use xlink:href="#m4c47e6a89a" x="248.059504" y="354.546935" style="fill: #1f77b4; stroke: #1f77b4"/>
     <use xlink:href="#m4c47e6a89a" x="252.158678" y="353.776656" style="fill: #1f77b4; stroke: #1f77b4"/>
     <use xlink:href="#m4c47e6a89a" x="256.257851" y="361.40891" style="fill: #1f77b4; stroke: #1f77b4"/>
     <use xlink:href="#m4c47e6a89a" x="260.357025" y="356.166784" style="fill: #1f77b4; stroke: #1f77b4"/>
     <use xlink:href="#m4c47e6a89a" x="264.456198" y="360.269324" style="fill: #1f77b4; stroke: #1f77b4"/>
     <use xlink:href="#m4c47e6a89a" x="268.555372" y="353.399021" style="fill: #1f77b4; stroke: #1f77b4"/>
     <use xlink:href="#m4c47e6a89a" x="272.654545" y="345.955688" style="fill: #1f77b4; stroke: #1f77b4"/>
     <use xlink:href="#m4c47e6a89a" x="276.753719" y="345.531391" style="fill: #1f77b4; stroke: #1f77b4"/>
     <use xlink:href="#m4c47e6a89a" x="280.852893" y="347.974904" style="fill: #1f77b4; stroke: #1f77b4"/>
     <use xlink:href="#m4c47e6a89a" x="284.952066" y="358.294366" style="fill: #1f77b4; stroke: #1f77b4"/>
     <use xlink:href="#m4c47e6a89a" x="289.05124" y="355.004693" style="fill: #1f77b4; stroke: #1f77b4"/>
     <use xlink:href="#m4c47e6a89a" x="293.150413" y="362.226484" style="fill: #1f77b4; stroke: #1f77b4"/>
     <use xlink:href="#m4c47e6a89a" x="297.249587" y="353.777289" style="fill: #1f77b4; stroke: #1f77b4"/>
     <use xlink:href="#m4c47e6a89a" x="301.34876" y="322.29792" style="fill: #1f77b4; stroke: #1f77b4"/>
     <use xlink:href="#m4c47e6a89a" x="305.447934" y="343.094502" style="fill: #1f77b4; stroke: #1f77b4"/>
     <use xlink:href="#m4c47e6a89a" x="309.547107" y="368.629895" style="fill: #1f77b4; stroke: #1f77b4"/>
     <use xlink:href="#m4c47e6a89a" x="313.646281" y="367.43325" style="fill: #1f77b4; stroke: #1f77b4"/>
     <use xlink:href="#m4c47e6a89a" x="317.745455" y="359.179803" style="fill: #1f77b4; stroke: #1f77b4"/>
     <use xlink:href="#m4c47e6a89a" x="321.844628" y="355.990828" style="fill: #1f77b4; stroke: #1f77b4"/>
     <use xlink:href="#m4c47e6a89a" x="325.943802" y="347.389322" style="fill: #1f77b4; stroke: #1f77b4"/>
     <use xlink:href="#m4c47e6a89a" x="330.042975" y="355.412397" style="fill: #1f77b4; stroke: #1f77b4"/>
     <use xlink:href="#m4c47e6a89a" x="334.142149" y="335.361533" style="fill: #1f77b4; stroke: #1f77b4"/>
     <use xlink:href="#m4c47e6a89a" x="338.241322" y="346.118886" style="fill: #1f77b4; stroke: #1f77b4"/>
     <use xlink:href="#m4c47e6a89a" x="342.340496" y="360.6446" style="fill: #1f77b4; stroke: #1f77b4"/>
     <use xlink:href="#m4c47e6a89a" x="346.439669" y="355.454595" style="fill: #1f77b4; stroke: #1f77b4"/>
     <use xlink:href="#m4c47e6a89a" x="350.538843" y="362.913874" style="fill: #1f77b4; stroke: #1f77b4"/>
     <use xlink:href="#m4c47e6a89a" x="354.638017" y="354.31754" style="fill: #1f77b4; stroke: #1f77b4"/>
     <use xlink:href="#m4c47e6a89a" x="358.73719" y="355.303363" style="fill: #1f77b4; stroke: #1f77b4"/>
     <use xlink:href="#m4c47e6a89a" x="362.836364" y="355.538168" style="fill: #1f77b4; stroke: #1f77b4"/>
     <use xlink:href="#m4c47e6a89a" x="366.935537" y="348.588463" style="fill: #1f77b4; stroke: #1f77b4"/>
     <use xlink:href="#m4c47e6a89a" x="371.034711" y="366.631718" style="fill: #1f77b4; stroke: #1f77b4"/>
     <use xlink:href="#m4c47e6a89a" x="375.133884" y="354.091549" style="fill: #1f77b4; stroke: #1f77b4"/>
     <use xlink:href="#m4c47e6a89a" x="379.233058" y="357.782026" style="fill: #1f77b4; stroke: #1f77b4"/>
     <use xlink:href="#m4c47e6a89a" x="383.332231" y="363.37786" style="fill: #1f77b4; stroke: #1f77b4"/>
     <use xlink:href="#m4c47e6a89a" x="387.431405" y="354.767046" style="fill: #1f77b4; stroke: #1f77b4"/>
     <use xlink:href="#m4c47e6a89a" x="391.530579" y="359.640478" style="fill: #1f77b4; stroke: #1f77b4"/>
     <use xlink:href="#m4c47e6a89a" x="395.629752" y="369.36" style="fill: #1f77b4; stroke: #1f77b4"/>
     <use xlink:href="#m4c47e6a89a" x="399.728926" y="347.148987" style="fill: #1f77b4; stroke: #1f77b4"/>
     <use xlink:href="#m4c47e6a89a" x="403.828099" y="366.83224" style="fill: #1f77b4; stroke: #1f77b4"/>
     <use xlink:href="#m4c47e6a89a" x="407.927273" y="354.995867" style="fill: #1f77b4; stroke: #1f77b4"/>
     <use xlink:href="#m4c47e6a89a" x="412.026446" y="365.735149" style="fill: #1f77b4; stroke: #1f77b4"/>
     <use xlink:href="#m4c47e6a89a" x="416.12562" y="357.14698" style="fill: #1f77b4; stroke: #1f77b4"/>
     <use xlink:href="#m4c47e6a89a" x="420.224793" y="357.529464" style="fill: #1f77b4; stroke: #1f77b4"/>
     <use xlink:href="#m4c47e6a89a" x="424.323967" y="354.852319" style="fill: #1f77b4; stroke: #1f77b4"/>
     <use xlink:href="#m4c47e6a89a" x="428.42314" y="365.385295" style="fill: #1f77b4; stroke: #1f77b4"/>
     <use xlink:href="#m4c47e6a89a" x="432.522314" y="350.365414" style="fill: #1f77b4; stroke: #1f77b4"/>
     <use xlink:href="#m4c47e6a89a" x="436.621488" y="350.262359" style="fill: #1f77b4; stroke: #1f77b4"/>
     <use xlink:href="#m4c47e6a89a" x="440.720661" y="366.199814" style="fill: #1f77b4; stroke: #1f77b4"/>
     <use xlink:href="#m4c47e6a89a" x="444.819835" y="356.547441" style="fill: #1f77b4; stroke: #1f77b4"/>
     <use xlink:href="#m4c47e6a89a" x="448.919008" y="361.104289" style="fill: #1f77b4; stroke: #1f77b4"/>
     <use xlink:href="#m4c47e6a89a" x="453.018182" y="360.511858" style="fill: #1f77b4; stroke: #1f77b4"/>
     <use xlink:href="#m4c47e6a89a" x="457.117355" y="351.312958" style="fill: #1f77b4; stroke: #1f77b4"/>
     <use xlink:href="#m4c47e6a89a" x="461.216529" y="353.97993" style="fill: #1f77b4; stroke: #1f77b4"/>
     <use xlink:href="#m4c47e6a89a" x="465.315702" y="364.164403" style="fill: #1f77b4; stroke: #1f77b4"/>
     <use xlink:href="#m4c47e6a89a" x="469.414876" y="360.434518" style="fill: #1f77b4; stroke: #1f77b4"/>
     <use xlink:href="#m4c47e6a89a" x="473.51405" y="363.047419" style="fill: #1f77b4; stroke: #1f77b4"/>
     <use xlink:href="#m4c47e6a89a" x="477.613223" y="366.035244" style="fill: #1f77b4; stroke: #1f77b4"/>
     <use xlink:href="#m4c47e6a89a" x="481.712397" y="360.135434" style="fill: #1f77b4; stroke: #1f77b4"/>
     <use xlink:href="#m4c47e6a89a" x="485.81157" y="350.086246" style="fill: #1f77b4; stroke: #1f77b4"/>
     <use xlink:href="#m4c47e6a89a" x="489.910744" y="349.372922" style="fill: #1f77b4; stroke: #1f77b4"/>
     <use xlink:href="#m4c47e6a89a" x="494.009917" y="347.051625" style="fill: #1f77b4; stroke: #1f77b4"/>
     <use xlink:href="#m4c47e6a89a" x="498.109091" y="360.357167" style="fill: #1f77b4; stroke: #1f77b4"/>
    </g>
   </g>
   <g id="patch_3">
    <path d="M 72 384.48 
L 72 51.84 
" style="fill: none; stroke: #000000; stroke-width: 0.8; stroke-linejoin: miter; stroke-linecap: square"/>
   </g>
   <g id="patch_4">
    <path d="M 518.4 384.48 
L 518.4 51.84 
" style="fill: none; stroke: #000000; stroke-width: 0.8; stroke-linejoin: miter; stroke-linecap: square"/>
   </g>
   <g id="patch_5">
    <path d="M 72 384.48 
L 518.4 384.48 
" style="fill: none; stroke: #000000; stroke-width: 0.8; stroke-linejoin: miter; stroke-linecap: square"/>
   </g>
   <g id="patch_6">
    <path d="M 72 51.84 
L 518.4 51.84 
" style="fill: none; stroke: #000000; stroke-width: 0.8; stroke-linejoin: miter; stroke-linecap: square"/>
   </g>
   <g id="text_17">
    <!-- Training Loss Over Epochs -->
    <g transform="translate(164.39375 45.84) scale(0.2 -0.2)">
     <defs>
      <path id="DejaVuSans-54" d="M -19 4666 
L 3928 4666 
L 3928 4134 
L 2272 4134 
L 2272 0 
L 1638 0 
L 1638 4134 
L -19 4134 
L -19 4666 
z
" transform="scale(0.015625)"/>
      <path id="DejaVuSans-72" d="M 2631 2963 
Q 2534 3019 2420 3045 
Q 2306 3072 2169 3072 
Q 1681 3072 1420 2755 
Q 1159 2438 1159 1844 
L 1159 0 
L 581 0 
L 581 3500 
L 1159 3500 
L 1159 2956 
Q 1341 3275 1631 3429 
Q 1922 3584 2338 3584 
Q 2397 3584 2469 3576 
Q 2541 3569 2628 3553 
L 2631 2963 
z
" transform="scale(0.015625)"/>
      <path id="DejaVuSans-61" d="M 2194 1759 
Q 1497 1759 1228 1600 
Q 959 1441 959 1056 
Q 959 750 1161 570 
Q 1363 391 1709 391 
Q 2188 391 2477 730 
Q 2766 1069 2766 1631 
L 2766 1759 
L 2194 1759 
z
M 3341 1997 
L 3341 0 
L 2766 0 
L 2766 531 
Q 2569 213 2275 61 
Q 1981 -91 1556 -91 
Q 1019 -91 701 211 
Q 384 513 384 1019 
Q 384 1609 779 1909 
Q 1175 2209 1959 2209 
L 2766 2209 
L 2766 2266 
Q 2766 2663 2505 2880 
Q 2244 3097 1772 3097 
Q 1472 3097 1187 3025 
Q 903 2953 641 2809 
L 641 3341 
Q 956 3463 1253 3523 
Q 1550 3584 1831 3584 
Q 2591 3584 2966 3190 
Q 3341 2797 3341 1997 
z
" transform="scale(0.015625)"/>
      <path id="DejaVuSans-69" d="M 603 3500 
L 1178 3500 
L 1178 0 
L 603 0 
L 603 3500 
z
M 603 4863 
L 1178 4863 
L 1178 4134 
L 603 4134 
L 603 4863 
z
" transform="scale(0.015625)"/>
      <path id="DejaVuSans-6e" d="M 3513 2113 
L 3513 0 
L 2938 0 
L 2938 2094 
Q 2938 2591 2744 2837 
Q 2550 3084 2163 3084 
Q 1697 3084 1428 2787 
Q 1159 2491 1159 1978 
L 1159 0 
L 581 0 
L 581 3500 
L 1159 3500 
L 1159 2956 
Q 1366 3272 1645 3428 
Q 1925 3584 2291 3584 
Q 2894 3584 3203 3211 
Q 3513 2838 3513 2113 
z
" transform="scale(0.015625)"/>
      <path id="DejaVuSans-67" d="M 2906 1791 
Q 2906 2416 2648 2759 
Q 2391 3103 1925 3103 
Q 1463 3103 1205 2759 
Q 947 2416 947 1791 
Q 947 1169 1205 825 
Q 1463 481 1925 481 
Q 2391 481 2648 825 
Q 2906 1169 2906 1791 
z
M 3481 434 
Q 3481 -459 3084 -895 
Q 2688 -1331 1869 -1331 
Q 1566 -1331 1297 -1286 
Q 1028 -1241 775 -1147 
L 775 -588 
Q 1028 -725 1275 -790 
Q 1522 -856 1778 -856 
Q 2344 -856 2625 -561 
Q 2906 -266 2906 331 
L 2906 616 
Q 2728 306 2450 153 
Q 2172 0 1784 0 
Q 1141 0 747 490 
Q 353 981 353 1791 
Q 353 2603 747 3093 
Q 1141 3584 1784 3584 
Q 2172 3584 2450 3431 
Q 2728 3278 2906 2969 
L 2906 3500 
L 3481 3500 
L 3481 434 
z
" transform="scale(0.015625)"/>
      <path id="DejaVuSans-20" transform="scale(0.015625)"/>
      <path id="DejaVuSans-4f" d="M 2522 4238 
Q 1834 4238 1429 3725 
Q 1025 3213 1025 2328 
Q 1025 1447 1429 934 
Q 1834 422 2522 422 
Q 3209 422 3611 934 
Q 4013 1447 4013 2328 
Q 4013 3213 3611 3725 
Q 3209 4238 2522 4238 
z
M 2522 4750 
Q 3503 4750 4090 4092 
Q 4678 3434 4678 2328 
Q 4678 1225 4090 567 
Q 3503 -91 2522 -91 
Q 1538 -91 948 565 
Q 359 1222 359 2328 
Q 359 3434 948 4092 
Q 1538 4750 2522 4750 
z
" transform="scale(0.015625)"/>
      <path id="DejaVuSans-76" d="M 191 3500 
L 800 3500 
L 1894 563 
L 2988 3500 
L 3597 3500 
L 2284 0 
L 1503 0 
L 191 3500 
z
" transform="scale(0.015625)"/>
      <path id="DejaVuSans-65" d="M 3597 1894 
L 3597 1613 
L 953 1613 
Q 991 1019 1311 708 
Q 1631 397 2203 397 
Q 2534 397 2845 478 
Q 3156 559 3463 722 
L 3463 178 
Q 3153 47 2828 -22 
Q 2503 -91 2169 -91 
Q 1331 -91 842 396 
Q 353 884 353 1716 
Q 353 2575 817 3079 
Q 1281 3584 2069 3584 
Q 2775 3584 3186 3129 
Q 3597 2675 3597 1894 
z
M 3022 2063 
Q 3016 2534 2758 2815 
Q 2500 3097 2075 3097 
Q 1594 3097 1305 2825 
Q 1016 2553 972 2059 
L 3022 2063 
z
" transform="scale(0.015625)"/>
     </defs>
     <use xlink:href="#DejaVuSans-54"/>
     <use xlink:href="#DejaVuSans-72" x="46.333984"/>
     <use xlink:href="#DejaVuSans-61" x="87.447266"/>
     <use xlink:href="#DejaVuSans-69" x="148.726562"/>
     <use xlink:href="#DejaVuSans-6e" x="176.509766"/>
     <use xlink:href="#DejaVuSans-69" x="239.888672"/>
     <use xlink:href="#DejaVuSans-6e" x="267.671875"/>
     <use xlink:href="#DejaVuSans-67" x="331.050781"/>
     <use xlink:href="#DejaVuSans-20" x="394.527344"/>
     <use xlink:href="#DejaVuSans-4c" x="426.314453"/>
     <use xlink:href="#DejaVuSans-6f" x="480.277344"/>
     <use xlink:href="#DejaVuSans-73" x="541.458984"/>
     <use xlink:href="#DejaVuSans-73" x="593.558594"/>
     <use xlink:href="#DejaVuSans-20" x="645.658203"/>
     <use xlink:href="#DejaVuSans-4f" x="677.445312"/>
     <use xlink:href="#DejaVuSans-76" x="756.15625"/>
     <use xlink:href="#DejaVuSans-65" x="815.335938"/>
     <use xlink:href="#DejaVuSans-72" x="876.859375"/>
     <use xlink:href="#DejaVuSans-20" x="917.972656"/>
     <use xlink:href="#DejaVuSans-45" x="949.759766"/>
     <use xlink:href="#DejaVuSans-70" x="1012.943359"/>
     <use xlink:href="#DejaVuSans-6f" x="1076.419922"/>
     <use xlink:href="#DejaVuSans-63" x="1137.601562"/>
     <use xlink:href="#DejaVuSans-68" x="1192.582031"/>
     <use xlink:href="#DejaVuSans-73" x="1255.960938"/>
    </g>
   </g>
  </g>
 </g>
 <defs>
  <clipPath id="p7a451aa11f">
   <rect x="72" y="51.84" width="446.4" height="332.64"/>
  </clipPath>
 </defs>
</svg>
